<?xml version="1.0" encoding="iso-8859-1"?>
<!-- Generator: Adobe Illustrator 21.0.0, SVG Export Plug-In . SVG Version: 6.00 Build 0)  -->
<svg xmlns="http://www.w3.org/2000/svg" xmlns:xlink="http://www.w3.org/1999/xlink" version="1.1" id="Capa_1" x="0px" y="0px" viewBox="0 0 512 512" style="enable-background:new 0 0 512 512;" xml:space="preserve" width="512" height="512">
<g>
	<g>
		<g>
			<g>
				<g>
					<g>
						<g>
							<g>
								<g>
									<g>
										<g>
											<g>
												<g>
													<circle style="fill:#FF0335;" cx="256" cy="256" r="256"/>
												</g>
											</g>
										</g>
									</g>
								</g>
							</g>
						</g>
					</g>
				</g>
			</g>
		</g>
	</g>
	<g>
		<path style="fill:#990011;" d="M512,256c0-17.896-1.843-35.361-5.338-52.222l-93.539-93.539H389.75l-32.969-33.364h-30v33.364    H216.5l-33.281-33.364h-30v33.364H96.877v282.147l115.974,115.974C226.88,510.742,241.292,512,256,512    C397.385,512,512,397.385,512,256z"/>
		<g>
			<g>
				<g>
					<polyline style="fill:#FFFFFF;" points="96.877,392.387 96.877,159.047 413.123,159.047 413.123,392.387      "/>
				</g>
				<g>
					<rect x="255" y="159.05" style="fill:#FFF5CB;" width="158.12" height="233.34"/>
				</g>
				<g>
					<rect x="96.877" y="110.239" style="fill:#FFB84D;" width="316.246" height="68.531"/>
				</g>
				<g>
					<rect x="255" y="110.24" style="fill:#E67500;" width="158.12" height="68.53"/>
				</g>
				<g>
					<g>
						<g>
							<circle style="fill:#FF3D62;" cx="149.982" cy="226.575" r="21.514"/>
						</g>
						<g>
							<circle style="fill:#00DFC1;" cx="219.994" cy="226.575" r="21.514"/>
						</g>
						<g>
							<circle style="fill:#00AD95;" cx="290.006" cy="226.575" r="21.514"/>
						</g>
						<g>
							<circle style="fill:#00AD95;" cx="360.018" cy="226.575" r="21.514"/>
						</g>
					</g>
					<g>
						<g>
							<circle style="fill:#FF3D62;" cx="149.982" cy="283.907" r="21.514"/>
						</g>
						<g>
							<circle style="fill:#00DFC1;" cx="219.994" cy="283.907" r="21.514"/>
						</g>
						<g>
							<circle style="fill:#00AD95;" cx="290.006" cy="283.907" r="21.514"/>
						</g>
						<g>
							<circle style="fill:#00AD95;" cx="360.018" cy="283.907" r="21.514"/>
						</g>
					</g>
					<g>
						<g>
							<circle style="fill:#FF3D62;" cx="149.982" cy="341.239" r="21.514"/>
						</g>
						<g>
							<circle style="fill:#00DFC1;" cx="219.994" cy="341.239" r="21.514"/>
						</g>
						<g>
							<circle style="fill:#00AD95;" cx="290.006" cy="341.239" r="21.514"/>
						</g>
						<g>
							<circle style="fill:#00AD95;" cx="360.018" cy="341.239" r="21.514"/>
						</g>
					</g>
				</g>
				<g>
					<g>
						<rect x="153.219" y="76.875" style="fill:#FFFFFF;" width="30" height="66.728"/>
					</g>
					<g>
						<rect x="326.781" y="76.875" style="fill:#FFF5CB;" width="30" height="66.728"/>
					</g>
				</g>
			</g>
			<circle style="fill:#6D76E7;" cx="384.09" cy="364.415" r="55.383"/>
			<path style="fill:#283EE1;" d="M439.478,364.417c0,30.588-24.797,55.385-55.385,55.385v-110.77     C414.681,309.032,439.478,333.83,439.478,364.417z"/>
			<g>
				<polygon style="fill:#FFFFFF;" points="379.923,401.368 339.504,365.842 359.308,343.309 378.575,360.243 406.787,331.962       428.025,353.149     "/>
			</g>
			<polygon style="fill:#FFF5CB;" points="406.787,331.962 384.093,354.711 384.093,397.188 428.025,353.149    "/>
		</g>
	</g>
</g>















</svg>
