<?xml version="1.0" encoding="UTF-8"?>
<!-- Generator: Adobe Illustrator 19.0.0, SVG Export Plug-In . SVG Version: 6.00 Build 0)  -->
<svg version="1.1" id="Layer_1" xmlns="http://www.w3.org/2000/svg" xmlns:xlink="http://www.w3.org/1999/xlink" x="0px" y="0px" viewBox="0 0 512 512" style="enable-background:new 0 0 512 512;" xml:space="preserve">
<style type="text/css">
	.st0{fill:#F65315;}
	.st1{fill:#333333;}
</style>
<g>
	<path class="st0" d="M399.4,155.8c-25.7,0.5-47.6,10-65.3,28.9c-5.6,6-8.6,6.1-14,0.2c-35.6-38.6-95.1-38.8-130.9-0.3   c-5.9,6.3-8.6,6.3-14.5-0.1c-36-38.7-95.9-38.2-131.4,1c-0.3,0.3-0.5,0.6-0.8,0.9c-3,3.2-7.1,3.7-10.2,1.5c-3-2.2-3.6-5.9-1.4-9.7   c8.9-15.5,19.3-29.9,31.3-43.1c43.8-48,97.9-76.1,162.5-84.1c4.3-0.5,8.5-0.9,12.8-1c2.4-0.1,3.2-1,3-3.3c-0.2-2.6-0.1-5.2,0-7.8   c0.3-7.3,5.3-12.8,12.2-13.4c7.1-0.6,13.1,4,14.7,11.2c0.7,3.2,0.5,6.5,0.4,9.7c-0.1,2.4,0.4,3.4,3.1,3.6   c38.5,2.4,74.6,13,108.2,31.8c41.1,22.9,73.5,54.9,97.6,95.3c1.8,3,2.7,5.9,0.4,9c-1.7,2.3-4.1,3.1-6.9,2.6c-2.2-0.4-3.5-2-5-3.6   C447.6,166,425.6,156.3,399.4,155.8z"/>
	<path class="st1" d="M248.9,484.8c-31.3-0.2-67.6-2-103.5-8.9c-12.9-2.5-25.5-5.9-37.7-10.9c-3.8-1.6-5.3-3.9-5.1-8   c1-21.5,6.9-41.4,18.2-59.7c6.5-10.6,15.5-18.8,26.5-24.6c17.2-9.2,35.4-16.2,53.4-23.6c3.1-1.3,2.9,0.9,3.3,2.4   c3.6,14.9,6.8,29.9,11.2,44.6c3,10,6.4,19.8,11.6,28.8c2.4,4.3,5.3,8.3,8.8,11.8c11.1,10.9,26.1,10.9,37.1-0.1   c7.1-7,11.3-15.8,14.9-24.9c7.1-18.1,11-37.1,15.5-55.8c1.9-7.9,1.9-7.9,9.5-4.8c13.3,5.4,26.5,11.3,39.7,17.1   c21.9,9.6,36.3,25.8,44.6,47.9c5,13.4,8.3,27,8.7,41.3c0.1,3.8-1.4,6-4.8,7.4c-16.2,6.7-33.1,10.5-50.3,13.2   C318.4,483.1,286.3,484.7,248.9,484.8z"/>
	<path class="st1" d="M317.3,250.5c0,1.4,0.1,2.9,0,4.3c-0.1,3.2-0.6,6.2,2.7,8.6c2.3,1.7,2.5,5,2.9,7.8   c1.9,16.3-3.8,30.1-14.2,42.3c-2.2,2.5-3.7,5.1-4.8,8.3c-5,14.5-13.5,26.3-26.9,34.1c-20.4,11.9-44.2,7-60.4-12.2   c-5.9-7-10.2-15-13-23.7c-0.7-2.1-1.7-3.7-3.1-5.3c-11-12.4-17.1-26.5-15.2-43.4c0.4-3.8,1.4-7.5,4.7-9.9c1.5-1.1,1.2-2.5,1.3-3.8   c0.3-8.7-0.3-17.5,0.9-26.1c3.6-25.7,18.8-41.9,44.2-47.7c18.3-4.2,35.8-1.9,52.7,6.2c9.1,4.3,14.6,11.4,16.5,21.3   c0.2,1,0.2,2.1,1,2.9c8.4,7.8,9.6,18.4,10.7,28.9C317.4,245.5,317.2,248,317.3,250.5C317.2,250.5,317.2,250.5,317.3,250.5z"/>
</g>
</svg>