<?xml version="1.0" encoding="iso-8859-1"?>
<!-- Generator: Adobe Illustrator 19.0.0, SVG Export Plug-In . SVG Version: 6.00 Build 0)  -->
<svg version="1.1" id="Capa_1" xmlns="http://www.w3.org/2000/svg" xmlns:xlink="http://www.w3.org/1999/xlink" x="0px" y="0px"
	 viewBox="0 0 512 512" style="enable-background:new 0 0 512 512;" xml:space="preserve">
<circle style="fill:#7AA0EA;" cx="256" cy="256" r="256"/>
<path style="fill:#FDCF49;" d="M451.28,208.841v-20.443c0-9.683-7.849-17.532-17.532-17.532c-18.116,0-367.894,0-388.998,0
	c-9.683,0-17.532,7.849-17.532,17.532c0,1.449,0,98.504,0,182.56c10.543,20.941,23.866,40.242,39.502,57.403
	c0-126.892,0-72.938,0-210.25c0-5.12,4.15-9.27,9.27-9.27C98.513,208.841,436.911,208.841,451.28,208.841L451.28,208.841z"/>
<path style="fill:#FDB913;" d="M66.72,188.399c0-9.683,7.85-17.532,17.532-17.532c-21.25,0-35.703,0-39.502,0
	c-9.683,0-17.532,7.849-17.532,17.532c0,1.449,0,98.504,0,182.56c10.543,20.941,23.866,40.242,39.502,57.402
	C66.72,335.408,66.72,189.664,66.72,188.399z"/>
<path style="fill:#DAECF7;" d="M128.129,0c-0.001,0-0.001,0-0.001,0h-0.001c-10.908,0-19.751,8.843-19.751,19.751
	c0,5.089,0,153.795,0,189.09h342.845V0H128.129z"/>
<path style="fill:#B2D9ED;" d="M148.043,19.751C148.043,8.843,156.886,0,167.794,0h-39.665h-0.001l0,0
	c-10.908,0-19.751,8.843-19.751,19.751c0,5.089,0,153.795,0,189.09h39.667C148.043,199.578,148.043,29.05,148.043,19.751z"/>
<g>
	<path style="fill:#FFFFFF;" d="M373.993,108.368H187.432c-5.113,0-9.258-4.145-9.258-9.258s4.145-9.258,9.258-9.258h186.561
		c5.113,0,9.258,4.145,9.258,9.258S379.106,108.368,373.993,108.368z"/>
	<path style="fill:#FFFFFF;" d="M373.993,146.692H187.432c-5.113,0-9.258-4.145-9.258-9.258c0-5.114,4.145-9.258,9.258-9.258
		h186.561c5.113,0,9.258,4.145,9.258,9.258C383.251,142.548,379.106,146.692,373.993,146.692z"/>
</g>
<path style="fill:#B2D9ED;" d="M451.221,0L451.221,0H128.127c10.908,0,19.751,8.843,19.751,19.751v24.251
	c0,2.969,2.407,5.376,5.376,5.376h311.572c3.394,0,6.145-2.751,6.145-6.145V19.751C470.972,8.843,462.129,0,451.221,0z"/>
<path style="fill:#BBEF89;" d="M340.375,177.609h-76.823c-17.008,0-30.923,13.915-30.923,30.923v2.407h138.669v-2.407
	C371.298,191.524,357.383,177.609,340.375,177.609z"/>
<path style="fill:#7DD776;" d="M321.311,193.892c0-6.962,3.789-13.026,9.407-16.284h-67.166c-17.008,0-30.923,13.915-30.923,30.923
	v2.407h99.556C325.768,207.939,321.311,201.444,321.311,193.892z"/>
<path id="SVGCleanerId_0" style="fill:#28D2F9;" d="M271.041,177.609h-76.823c-17.008,0-30.923,13.915-30.923,30.923v2.407h138.669
	v-2.407C301.964,191.524,288.048,177.609,271.041,177.609z"/>
<g>
	<path id="SVGCleanerId_0_1_" style="fill:#28D2F9;" d="M271.041,177.609h-76.823c-17.008,0-30.923,13.915-30.923,30.923v2.407
		h138.669v-2.407C301.964,191.524,288.048,177.609,271.041,177.609z"/>
</g>
<path style="fill:#14C0EB;" d="M251.771,193.892c0-6.962,3.789-13.026,9.407-16.284h-66.96c-17.008,0-30.923,13.915-30.923,30.923
	v2.407h99.351C256.228,207.939,251.771,201.444,251.771,193.892z"/>
<path style="fill:#5F6AB9;" d="M201.706,177.609h-76.823c-17.008,0-30.923,13.915-30.923,30.923v2.407h138.669v-2.407
	C232.629,191.524,218.714,177.609,201.706,177.609z"/>
<path style="fill:#524FA1;" d="M146.771,193.892c0-6.962,3.789-13.026,9.407-16.284h-31.295c-17.008,0-30.923,13.915-30.923,30.923
	v2.407h63.686C151.228,207.939,146.771,201.444,146.771,193.892z"/>
<path style="fill:#FDE57F;" d="M490.782,358.162V224.251c0-8.51-6.899-15.409-15.409-15.409H451.28h-0.001H75.99
	c-5.119,0-9.269,4.15-9.269,9.269v210.25C113.541,479.748,181.003,512,256,512C361.065,512,451.331,448.699,490.782,358.162z"/>
<path style="fill:#FDCF49;" d="M146.72,218.111c0-5.119,4.15-9.269,9.269-9.269h-80c-5.119,0-9.269,4.15-9.269,9.269v210.25
	c22.413,24.599,49.565,44.797,80,59.187V218.111z"/>
<circle style="fill:#FB6467;" cx="278.56" cy="361.65" r="91.75"/>
<path style="fill:#EF525A;" d="M245.416,380.793c-20.685-35.828-14.456-79.805,12.409-108.532
	c-8.613,2.001-17.081,5.286-25.136,9.937c-43.883,25.336-58.918,81.449-33.583,125.332c25.336,43.883,81.449,58.918,125.332,33.582
	c8.055-4.651,15.134-10.341,21.174-16.8C307.302,433.214,266.102,416.621,245.416,380.793z"/>
<path style="fill:#DAECF7;" d="M318.094,347.215h-22.13c-1.634,0-2.959-1.325-2.959-2.959v-22.131c0-1.634-1.325-2.959-2.959-2.959
	h-22.964c-1.634,0-2.959,1.324-2.959,2.959v22.131c0,1.634-1.325,2.959-2.959,2.959h-22.131c-1.634,0-2.959,1.325-2.959,2.959
	v22.964c0,1.634,1.325,2.959,2.959,2.959h22.131c1.634,0,2.959,1.324,2.959,2.959v22.13c0,1.634,1.325,2.959,2.959,2.959h22.964
	c1.634,0,2.959-1.324,2.959-2.959v-22.13c0-1.634,1.325-2.959,2.959-2.959h22.13c1.634,0,2.959-1.324,2.959-2.959v-22.964
	C321.052,348.539,319.728,347.215,318.094,347.215z"/>
<path style="fill:#92D1EA;" d="M197.602,24.689c0-10.395,5.437-19.515,13.617-24.689h-83.093c10.908,0,19.751,8.843,19.751,19.751
	v24.251c0,2.969,2.407,5.376,5.375,5.376h57.966C203.039,44.204,197.602,35.084,197.602,24.689z"/>
<path style="fill:#B2D9ED;" d="M278.564,397.988v-72.666c0-3.399,2.756-6.155,6.155-6.155h-17.637c-1.634,0-2.958,1.324-2.958,2.959
	v22.131c0,1.634-1.325,2.959-2.959,2.959h-22.131c-1.634,0-2.958,1.325-2.958,2.959v22.964c0,1.634,1.324,2.959,2.958,2.959h22.131
	c1.634,0,2.959,1.324,2.959,2.959v22.13c0,1.634,1.324,2.959,2.958,2.959h17.637C281.32,404.143,278.564,401.388,278.564,397.988z"
	/>
<g>
</g>
<g>
</g>
<g>
</g>
<g>
</g>
<g>
</g>
<g>
</g>
<g>
</g>
<g>
</g>
<g>
</g>
<g>
</g>
<g>
</g>
<g>
</g>
<g>
</g>
<g>
</g>
<g>
</g>
</svg>
