<svg height="472pt" viewBox="-3 0 471 472" width="472pt" xmlns="http://www.w3.org/2000/svg"><path d="m128.5 208h208v160h-208zm0 0" fill="#87ced9"/><path d="m168.5 368h168v-160h-8zm0 0" fill="#71c4d1"/><path d="m352.5 208h-16v160h16c13.253906 0 24-10.746094 24-24v-112c0-13.253906-10.746094-24-24-24zm0 0" fill="#d6d9db"/><path d="m112.5 208c-13.253906 0-24 10.746094-24 24v112c0 13.253906 10.746094 24 24 24h16v-160zm0 0" fill="#d6d9db"/><path d="m192.5 256h80c17.671875 0 32 14.328125 32 32s-14.328125 32-32 32h-80c-17.671875 0-32-14.328125-32-32s14.328125-32 32-32zm0 0" fill="#5eb3d1"/><path d="m224.5 280h16v16h-16zm0 0" fill="#a7e1eb"/><path d="m256.5 280h16v16h-16zm0 0" fill="#a7e1eb"/><path d="m192.5 280h16v16h-16zm0 0" fill="#a7e1eb"/><path d="m376.5 0h-288c-48.601562 0-88 39.398438-88 88s39.398438 88 88 88h200l-16 64 64-64h40c48.601562 0 88-39.398438 88-88s-39.398438-88-88-88zm0 0" fill="#4398d1"/><path d="m376.5 0h-23.414062c-42.402344 132.433594-212.753907 161.160156-303.320313 166.929688 12.042969 5.957031 25.296875 9.0625 38.734375 9.070312h200l-16 64 64-64h40c48.601562 0 88-39.398438 88-88s-39.398438-88-88-88zm0 0" fill="#3e8cc7"/><path d="m288.5 88c0 30.929688-25.070312 56-56 56s-56-25.070312-56-56 25.070312-56 56-56 56 25.070312 56 56zm0 0" fill="#ffc24f"/><path d="m144.5 88c0 30.929688-25.070312 56-56 56s-56-25.070312-56-56 25.070312-56 56-56 56 25.070312 56 56zm0 0" fill="#e3584b"/><path d="m432.5 88c0 30.929688-25.070312 56-56 56s-56-25.070312-56-56 25.070312-56 56-56 56 25.070312 56 56zm0 0" fill="#88b337"/><g fill="#126099"><path d="m200.5 72h16v16h-16zm0 0"/><path d="m248.5 72h16v16h-16zm0 0"/><path d="m216.5 104h32v16h-32zm0 0"/><path d="m56.5 72h16v16h-16zm0 0"/><path d="m104.5 72h16v16h-16zm0 0"/><path d="m98.84375 116.289062c-5.785156-5.539062-14.902344-5.539062-20.6875 0l-11.3125-11.3125c12.117188-11.574218 31.195312-11.574218 43.3125 0zm0 0"/><path d="m344.5 72h16v16h-16zm0 0"/><path d="m392.5 72h16v16h-16zm0 0"/><path d="m376.5 118.617188c-8.125.015624-15.917969-3.210938-21.65625-8.960938l11.3125-11.3125c5.71875 5.703125 14.96875 5.703125 20.6875 0l11.3125 11.3125c-5.738281 5.75-13.53125 8.976562-21.65625 8.960938zm0 0"/></g><path d="m140.890625 284.65625c-3.230469-5.386719-8.527344-9.21875-14.65625-10.59375-6.128906-1.378906-12.554687-.1875-17.78125 3.296875l-19.953125 13.304687v-42.664062l-41.441406 24c-14.03125 8.769531-22.558594 24.152344-22.558594 40.703125v111.296875h64v-16c17.671875-17.671875 17.671875-46.328125 0-64l44.871094-28.046875c10.621094-6.636719 13.964844-20.558594 7.519531-31.296875zm0 0" fill="#fec9a3"/><path d="m24.5 424h80v48h-80zm0 0" fill="#4398d1"/><path d="m435.1875 360.214844c-4.648438-.792969-9.410156.507812-13.011719 3.550781-3.601562 3.042969-5.679687 7.519531-5.675781 12.234375 0-8.835938-7.164062-16-16-16s-16 7.164062-16 16c0-8.835938-7.164062-16-16-16s-16 7.164062-16 16v-63.144531c.179688-8.039063-5.429688-15.046875-13.3125-16.640625-4.648438-.792969-9.410156.507812-13.011719 3.550781-3.601562 3.042969-5.679687 7.519531-5.675781 12.234375v112l-33.351562-20c-4.144532-2.496094-9.277344-2.695312-13.601563-.527344l-1.253906.632813c-4.777344 2.394531-7.792969 7.277343-7.792969 12.621093-.003906 4.5625 2.199219 8.847657 5.910156 11.496094l50.089844 35.777344v8h128v-95.144531c.179688-8.039063-5.429688-15.046875-13.3125-16.640625zm0 0" fill="#fec9a3"/><path d="m56.5 320c-3.527344.003906-6.640625-2.300781-7.664062-5.675781-1.023438-3.375.28125-7.023438 3.214843-8.980469l32-21.335938c3.679688-2.453124 8.648438-1.457031 11.101563 2.21875 2.453125 3.679688 1.457031 8.648438-2.21875 11.101563l-32 21.328125c-1.3125.875-2.855469 1.34375-4.433594 1.34375zm0 0" fill="#f0a789"/><path d="m64.5 456h16v16h-16zm0 0" fill="#126099"/></svg>