<?xml version="1.0" encoding="utf-8"?>
<!-- Generator: Adobe Illustrator 19.1.1, SVG Export Plug-In . SVG Version: 6.00 Build 0)  -->
<svg version="1.1" id="svg" xmlns="http://www.w3.org/2000/svg" xmlns:xlink="http://www.w3.org/1999/xlink" x="0px" y="0px"
	 viewBox="-97 309.5 400 223.4" style="enable-background:new -97 309.5 400 223.4;" xml:space="preserve">
<style type="text/css">
	.st0{fill:#104c82;}
	.st1{fill:#B3B4B4;}
	.st2{fill:#636464;}
	.st3{fill:#ACACAC;}
	.st4{fill:#299CE1;}
</style>
<g id="svgg">
	<path id="path0" class="st0" d="M92.1,309.8c0,0.2-0.6,0.3-2.5,0.5c-1.4,0.1-2.6,0.2-2.6,0.3c-0.1,0.1-0.9,0.3-1.8,0.3
		c-1,0.1-1.7,0.2-1.7,0.3c0,0.1-0.7,0.2-1.6,0.3c-0.9,0.1-1.6,0.2-1.6,0.4c0,0.1-0.3,0.2-0.6,0.2c-0.3,0-0.6,0.1-0.6,0.2
		c0,0.1-0.6,0.3-1.2,0.4c-0.7,0.1-1.3,0.2-1.4,0.4c-0.1,0.1-0.3,0.2-0.6,0.2c-0.2,0-0.4,0.1-0.4,0.2c0,0.1-0.5,0.3-1.1,0.4
		c-0.6,0.1-1.1,0.2-1.1,0.3c0,0.1-0.4,0.2-0.9,0.3c-0.5,0.1-0.9,0.2-0.9,0.4c0,0.1-0.3,0.2-0.6,0.2c-0.3,0-0.6,0.1-0.6,0.2
		c0,0.1-0.6,0.3-1.2,0.4c-0.7,0.1-1.2,0.2-1.2,0.4c0,0.1-0.2,0.2-0.3,0.2c-0.2,0-0.3,0.1-0.3,0.2s-0.1,0.2-0.3,0.2
		c-0.4-0.1-1.3,0.3-1.3,0.5c0,0.1-0.3,0.2-0.7,0.3s-0.7,0.2-0.7,0.4S64.2,318,64,318c-0.2,0-0.3,0.1-0.3,0.2c0,0.1-0.3,0.3-0.6,0.4
		c-0.3,0.1-0.6,0.2-0.6,0.3c0,0.1-0.2,0.2-0.5,0.2c-0.3,0-0.7,0.2-1,0.5c-0.3,0.3-0.8,0.6-1.1,0.7c-0.3,0.1-0.7,0.3-1,0.5
		c-0.2,0.2-0.6,0.4-0.7,0.3c-0.1,0-0.3,0.1-0.4,0.4c-0.1,0.3-0.3,0.5-0.6,0.5c-0.2,0-0.5,0.1-0.6,0.3c-0.2,0.3-0.9,0.8-1.5,1
		c-0.2,0.1-0.4,0.2-0.4,0.3c0,0.1-0.2,0.3-0.5,0.3c-0.3,0.1-0.7,0.4-0.9,0.7c-0.2,0.3-0.6,0.5-0.7,0.5c-0.3,0-1.4,1-1.4,1.4
		c0,0.1-0.2,0.2-0.4,0.2c-0.2,0-0.7,0.4-1.1,0.9c-0.4,0.5-0.9,0.9-1.2,1c-0.3,0.1-1,0.7-1.6,1.3c-1.2,1.3-1.1,1.1-2.6,2.6
		c-0.6,0.6-1.2,1.2-1.2,1.3s-0.3,0.5-0.6,0.8c-1.2,1.3-1.6,1.8-1.5,1.9c0.1,0.1-0.1,0.2-0.3,0.3c-0.2,0.1-0.5,0.4-0.6,0.6
		c-0.1,0.3-0.4,0.7-0.7,1c-0.3,0.3-0.5,0.6-0.5,0.8s-0.2,0.4-0.3,0.5c-0.2,0.1-0.3,0.3-0.3,0.6s-0.2,0.5-0.4,0.6
		c-0.2,0.1-0.5,0.4-0.6,0.7s-0.2,0.6-0.4,0.6s-0.2,0.1-0.2,0.3c0,0.2-0.2,0.5-0.5,0.7c-0.3,0.2-0.6,0.7-0.7,1.1
		c-0.1,0.4-0.3,0.7-0.4,0.7c-0.1,0-0.2,0.2-0.2,0.3c0,0.2-0.1,0.3-0.2,0.3c-0.1,0-0.2,0.1-0.2,0.3c0,0.2-0.3,0.3-0.9,0.2
		c-0.5,0-0.9-0.2-0.9-0.3c0-0.1-0.2-0.2-0.5-0.2s-0.6-0.1-0.7-0.2s-0.8-0.3-1.6-0.4c-0.8-0.1-1.5-0.2-1.5-0.3c0-0.1-0.8-0.3-1.8-0.3
		c-1-0.1-1.8-0.2-1.8-0.4c0-0.1-0.4-0.2-0.9-0.2c-0.5,0-0.9-0.1-0.9-0.2c0-0.1-0.5-0.1-1.2-0.1c-0.7,0.1-1.3,0-1.4-0.1
		c-0.1-0.1-0.8-0.2-1.6-0.2c-0.8,0-1.4-0.1-1.3-0.2c0.3-0.5-20.6-0.5-21.2,0c-0.1,0.1-0.8,0.2-1.5,0.2c-0.7,0-1.3,0.1-1.3,0.2
		s-0.9,0.3-2,0.4c-1.1,0.1-2,0.2-2,0.3c0,0.1-0.8,0.3-1.7,0.3s-1.7,0.2-1.7,0.3c0,0.1-0.6,0.2-1.2,0.3c-0.7,0.1-1.3,0.2-1.4,0.4
		c-0.1,0.1-0.4,0.2-0.7,0.2c-0.3,0-0.5,0.1-0.5,0.2c0,0.1-0.5,0.3-1.1,0.4c-0.6,0.1-1.1,0.2-1.1,0.4c0,0.1-0.3,0.2-0.6,0.2
		s-0.6,0.1-0.6,0.2c0,0.1-0.4,0.3-0.9,0.4c-0.5,0.1-0.9,0.2-0.9,0.3c0,0.1-0.4,0.2-0.9,0.3c-0.5,0.1-0.9,0.2-0.9,0.4
		c0,0.1-0.3,0.2-0.6,0.2s-0.6,0.1-0.6,0.2s-0.3,0.3-0.7,0.4c-0.4,0.1-0.7,0.2-0.7,0.3c0,0.1-0.2,0.3-0.5,0.3
		c-0.3,0.1-0.6,0.2-0.6,0.2c-0.1,0-0.3,0.1-0.6,0.2c-0.3,0.1-0.5,0.2-0.5,0.3c0,0.1-0.3,0.2-0.7,0.3c-0.4,0.1-0.7,0.2-0.7,0.4
		c0,0.1-0.2,0.2-0.4,0.2c-0.2,0-0.4,0.1-0.4,0.2s-0.3,0.3-0.7,0.4c-0.4,0.1-0.7,0.2-0.7,0.3c0,0.1-0.3,0.2-0.6,0.3
		c-0.3,0.1-0.6,0.2-0.6,0.4c0,0.1-0.2,0.2-0.3,0.2c-0.2,0-0.3,0.1-0.3,0.2c0,0.1-0.1,0.2-0.3,0.2c-0.2,0-0.5,0.1-0.6,0.3
		c-0.2,0.2-0.5,0.4-0.8,0.5c-0.3,0.1-0.5,0.3-0.5,0.4c0,0.1-0.2,0.2-0.3,0.2s-0.3,0.1-0.3,0.2s-0.2,0.3-0.5,0.4
		c-0.6,0.2-1.1,0.7-0.9,0.9c0.1,0.1,0,0.1-0.2,0c-0.2-0.1-0.5,0-0.7,0.3c-0.2,0.2-0.6,0.6-1,0.8c-0.4,0.2-0.9,0.7-1.1,0.9
		c-0.3,0.3-0.6,0.5-0.7,0.5s-1,0.8-2,1.8c-1,1-1.9,1.8-2,1.8c-0.2,0-3.7,3.6-3.7,3.7c0,0.1-0.5,0.7-1.2,1.3
		c-0.7,0.6-1.2,1.4-1.3,1.6c0,0.2-0.3,0.4-0.6,0.5c-0.3,0-0.5,0.2-0.5,0.4c0,0.2-0.2,0.5-0.5,0.8c-0.3,0.3-0.6,0.8-0.8,1.1
		c-0.2,0.3-0.4,0.6-0.5,0.6c-0.1,0-0.2,0.2-0.2,0.3c0,0.2-0.1,0.3-0.2,0.3c-0.1,0-0.3,0.3-0.4,0.6c-0.1,0.3-0.3,0.7-0.5,0.8
		c-0.2,0.2-0.5,0.5-0.6,0.8c-0.1,0.3-0.4,0.7-0.6,0.9c-0.2,0.2-0.5,0.6-0.6,0.9c-0.1,0.3-0.2,0.6-0.3,0.6c-0.1,0-0.3,0.4-0.3,0.8
		c-0.1,0.4-0.2,0.8-0.3,0.8c-0.1,0-0.2,0.1-0.2,0.3c0,0.2-0.1,0.3-0.2,0.3c-0.1,0-0.2,0.1-0.2,0.2c0,0.4-0.8,2-0.9,2
		c-0.1,0-0.2,0.4-0.3,0.9c-0.1,0.5-0.2,0.9-0.3,0.9c-0.1,0-0.3,0.4-0.3,0.9c-0.1,0.5-0.2,0.9-0.3,0.9c-0.1,0-0.2,0.2-0.2,0.3
		c0,0.2-0.1,0.3-0.2,0.3s-0.3,0.5-0.4,1.1c-0.1,0.6-0.2,1.1-0.3,1.1c-0.1,0-0.2,0.6-0.3,1.2s-0.2,1.2-0.4,1.2s-0.2,0.4-0.2,0.8
		c0,0.4-0.1,0.7-0.2,0.7c-0.1-0.1-0.3,0.6-0.4,1.5c-0.1,0.9-0.3,1.7-0.4,1.7c-0.1,0.1-0.3,1.1-0.3,2.4c-0.1,1.3-0.2,2.3-0.3,2.3
		c-0.1,0-0.2,1-0.2,2.3c0,1.3-0.1,2.4-0.2,2.5c-0.3,0.2-0.3,5.9,0,5.9c0.1,0,0.2,1,0.2,2.6c0,1.4,0.1,2.6,0.2,2.6
		c0.1,0,0.3,1.1,0.3,2.4c0.1,1.3,0.2,2.4,0.3,2.5c0.3,0.2,0.4,2.2,0.1,2.2c-0.2,0-0.3,0.1-0.3,0.2c0,0.1-0.2,0.2-0.4,0.2
		c-0.5,0-1.7,0.6-2.2,1.1c-0.2,0.2-0.4,0.3-0.6,0.3c-0.2,0-0.3,0.1-0.3,0.2c0,0.1-0.2,0.2-0.3,0.2c-0.2,0-0.3,0.1-0.3,0.2
		s-0.1,0.2-0.2,0.1c-0.1-0.1-0.2,0-0.2,0.1c0,0.1-0.2,0.2-0.3,0.2c-0.2,0-0.3,0.1-0.3,0.2c0,0.1-0.2,0.3-0.5,0.4
		c-0.3,0.1-0.8,0.5-1.2,0.9c-0.4,0.4-0.9,0.8-1.2,0.9c-0.3,0.1-0.5,0.2-0.5,0.4s-0.1,0.2-0.2,0.2c-0.1,0-0.5,0.3-0.8,0.6
		c-0.3,0.3-1,0.9-1.4,1.2c-0.4,0.4-0.8,0.7-0.9,0.7c-0.1,0-0.2,0.2-0.3,0.5c-0.1,0.2-0.3,0.4-0.4,0.4c-0.3-0.1-5.3,4.8-5.3,5.1
		c0,0.1-0.4,0.6-0.9,1c-0.5,0.5-0.9,0.9-0.9,1c0,0.1-0.2,0.4-0.4,0.7c-0.2,0.3-0.4,0.6-0.4,0.8c0,0.2-0.2,0.4-0.4,0.4
		c-0.2,0.1-0.5,0.4-0.6,0.7c-0.1,0.3-0.2,0.5-0.3,0.5c-0.1,0-0.3,0.2-0.3,0.5c-0.1,0.3-0.3,0.7-0.5,0.8c-0.2,0.2-0.5,0.6-0.6,0.9
		c-0.1,0.3-0.4,0.7-0.6,0.9c-0.2,0.2-0.5,0.6-0.6,0.9s-0.2,0.6-0.3,0.6c-0.1,0-0.3,0.4-0.3,0.8c-0.1,0.4-0.2,0.8-0.3,0.8
		c-0.1,0-0.3,0.4-0.6,0.9c-0.2,0.5-0.5,0.9-0.6,0.9c-0.1,0-0.2,0.4-0.3,0.9c-0.1,0.5-0.2,0.9-0.3,0.9c-0.1,0-0.2,0.2-0.2,0.3
		c0,0.2-0.1,0.3-0.2,0.3c-0.1,0-0.3,0.5-0.4,1.1c-0.1,0.6-0.2,1.1-0.3,1.1c-0.2,0-0.7,1.1-0.8,2.1c-0.1,0.5-0.2,1-0.3,1.1
		c-0.1,0.1-0.2,0.8-0.3,1.5c-0.1,0.7-0.2,1.3-0.4,1.3c-0.1,0-0.2,0.4-0.2,0.9c0,0.5-0.1,0.9-0.2,0.9s-0.1,0.5-0.1,1
		c0.1,0.7,0,1.1-0.2,1.2c-0.5,0.3-0.5,20.2,0,20.5c0.2,0.1,0.3,0.5,0.2,1.3c-0.1,0.6,0,1.1,0.1,1.1c0.1,0,0.2,0.4,0.2,0.9
		c0,0.5,0.1,0.9,0.2,0.9s0.3,0.8,0.4,1.8c0.1,1,0.2,1.8,0.3,1.8c0.1,0,0.3,0.6,0.3,1.2c0.1,0.7,0.2,1.3,0.4,1.4
		c0.1,0.1,0.2,0.3,0.2,0.6c0,0.2,0.1,0.4,0.2,0.4s0.3,0.5,0.4,1.1c0.1,0.6,0.2,1.1,0.4,1.1c0.1,0,0.2,0.2,0.2,0.3
		c0,0.2,0.1,0.3,0.2,0.3c0.1,0,0.3,0.4,0.3,0.9c0.1,0.5,0.2,0.9,0.4,0.9c0.1,0,0.2,0.2,0.2,0.4c0,0.2,0.1,0.5,0.2,0.6
		s0.2,0.2,0.1,0.3c-0.1,0.1,0,0.2,0.1,0.2s0.4,0.4,0.6,0.9c0.2,0.5,0.5,0.9,0.6,0.9c0.1,0,0.3,0.4,0.6,0.8c0.4,0.9,0.6,1.2,1.3,2
		c0.3,0.3,0.6,0.7,0.6,1c0.1,0.3,0.2,0.5,0.4,0.5c0.1,0,0.2,0.1,0.2,0.3c0,0.2,0.3,0.6,0.7,0.9c0.4,0.4,0.7,0.7,0.7,0.8
		c0,0.3,0.5,0.8,2.3,2.6c0.7,0.7,1.2,1.3,1.2,1.4c0,0.1,0.1,0.2,0.1,0.1c0.2-0.2,1.8,1.5,1.7,1.7c0,0.1,0.2,0.2,0.5,0.3
		c0.3,0.1,0.6,0.2,0.6,0.3c0,0.1,0.2,0.3,0.5,0.3c0.3,0.1,0.4,0.2,0.3,0.3c-0.1,0.1,0.4,0.7,0.7,0.7c0.1,0,0.4,0.2,0.7,0.4
		c0.3,0.2,0.6,0.4,0.8,0.4c0.2,0,0.3,0.2,0.4,0.3c0.1,0.2,0.4,0.4,0.7,0.6c0.3,0.1,0.6,0.3,0.6,0.4c0,0.1,0.2,0.3,0.4,0.3
		c0.4,0.1,1.2,0.6,1.4,0.8c0.1,0.1,0.5,0.3,0.9,0.5c0.5,0.2,0.8,0.5,0.8,0.6c0,0.1,0.2,0.2,0.4,0.2c0.2,0,0.7,0.2,1,0.5
		c0.4,0.3,0.8,0.5,1,0.4c0.2-0.1,0.3,0,0.3,0.1s0.2,0.2,0.3,0.2c0.2,0,0.3,0.1,0.3,0.2c0,0.1,0.3,0.3,0.7,0.4
		c0.4,0.1,0.7,0.2,0.7,0.4c0,0.1,0.2,0.2,0.4,0.2s0.4,0.1,0.4,0.2s0.4,0.3,0.9,0.4c0.5,0.1,0.9,0.2,0.9,0.3c0,0.1,0.4,0.3,0.9,0.3
		c0.5,0.1,0.9,0.2,0.9,0.4s0.3,0.2,0.6,0.2c0.3,0,0.6,0.1,0.6,0.2s0.4,0.3,0.9,0.4c0.5,0.1,1.1,0.2,1.3,0.3c0.9,0.5,1.5,0.7,2.4,0.8
		c0.5,0.1,0.9,0.2,0.9,0.3c0,0.1,0.7,0.2,1.5,0.3c0.8,0.1,1.5,0.2,1.5,0.4c0,0.1,0.4,0.2,0.9,0.2c0.5,0,0.9,0.1,0.9,0.2
		c0,0.1,0.4,0.2,0.8,0.1c0.5-0.1,0.9,0,1.2,0.2c0.3,0.3,10.1,0.3,62.5,0.4l62.1,0.1v-30.4v-30.4l0.9-0.1c0.5-0.1,0.9-0.2,0.9-0.4
		s0.3-0.2,0.6-0.2s0.6-0.1,0.6-0.2c0-0.2,0.6-0.5,1.6-1c0.3-0.1,0.7-0.4,0.7-0.7s0.3-0.5,0.6-0.6c0.2-0.1,0.4-0.2,0.4-0.3
		c0-0.1,0.2-0.2,0.3-0.2c0.2,0,0.3-0.1,0.3-0.2c0-0.1,0.2-0.3,0.5-0.4c0.3-0.1,0.6-0.4,0.7-0.9c0.1-0.4,0.3-0.7,0.6-0.8
		c0.3-0.1,0.4-0.2,0.3-0.4c-0.1-0.1,0.1-0.2,0.3-0.2c0.4,0,0.4-0.1,0.3-0.5c-0.1-0.3,0-0.5,0.3-0.6c0.4-0.1,0.7-0.6,0.8-1.6
		c0-0.3,0.2-0.7,0.4-0.8c0.2-0.1,0.4-0.5,0.5-0.8c0.1-0.3,0.2-0.6,0.3-0.6c0.1,0,0.2-0.2,0.2-0.5c0-0.3,0.2-0.7,0.3-0.9
		c0.2-0.2,0.3-0.6,0.3-0.8c0-0.2,0.1-0.4,0.2-0.4s0.2-0.3,0.2-0.6c0-0.3,0.1-0.6,0.2-0.6s0.2-0.1,0.2-0.2c0-0.1-0.2-0.2-0.5-0.1
		c-0.4,0.1-0.8,0-1.3-0.4c-0.4-0.3-1.1-0.6-1.4-0.6c-0.4,0-0.9-0.2-1.1-0.4c-0.4-0.4-1.1-0.2-1.2,0.5c0,0.2-0.3,0.8-0.5,1.4
		c-0.2,0.5-0.4,1-0.4,1.2c0,0.1-0.1,0.2-0.2,0.2c-0.1,0-0.4,0.4-0.6,0.9c-0.2,0.5-0.5,0.9-0.6,0.9s-0.2,0.2-0.2,0.3
		c0,0.2-0.1,0.3-0.2,0.3c-0.1,0-0.2,0.1-0.1,0.2c0.1,0.1,0,0.2-0.1,0.2s-0.2,0.1-0.2,0.2c0,0.3-3.4,3.8-3.7,3.8
		c-0.1,0-0.4,0.1-0.5,0.3c-0.2,0.2-0.5,0.3-0.7,0.3c-0.2,0-0.4,0.1-0.4,0.3c0,0.1-0.2,0.2-0.6,0.1c-0.3-0.1-0.6,0-0.6,0.1
		c0,0.1-0.7,0.2-1.5,0.2c-0.8,0-1.5,0.1-1.5,0.2c0,0.1-0.3,0.2-0.6,0.2c-0.3,0-0.6-0.1-0.6-0.2s-0.6-0.2-1.2-0.2
		c-0.7,0-1.2-0.1-1.2-0.2c0-0.1-0.4-0.2-0.8-0.1c-0.5,0.1-0.8,0-0.8-0.1c0-0.1-0.2-0.3-0.3-0.3c-0.2,0-0.3-0.1-0.3-0.2
		c0-0.1-0.3-0.3-0.6-0.3c-0.3-0.1-0.6-0.2-0.6-0.4c0-0.1-0.1-0.2-0.3-0.2c-0.2,0-0.6-0.3-0.9-0.6c-0.3-0.3-0.7-0.7-0.9-0.9
		c-0.5-0.5-0.9-0.9-0.9-1.2c0-0.1-0.1-0.2-0.2-0.2c-0.1,0-0.3-0.3-0.5-0.6c-0.2-0.3-0.5-0.8-0.7-1c-0.2-0.2-0.4-0.6-0.5-1
		c-0.1-0.3-0.2-0.6-0.4-0.6c-0.1,0-0.2-0.2-0.2-0.4s-0.1-0.4-0.2-0.4c-0.1,0-0.3-0.4-0.3-0.9c-0.1-0.5-0.2-1-0.4-1
		c-0.1,0-0.2-0.2-0.2-0.5c0-0.5-1.1-1.3-1.1-0.8c0,0.4-0.7,0.8-1.4,0.8c-0.3,0-0.8,0.2-1.2,0.5c-0.3,0.3-0.8,0.5-1.1,0.5
		c-0.5,0-0.9,1.2-0.4,1.2c0.1,0,0.3,0.4,0.4,0.9c0.1,0.5,0.2,0.9,0.3,0.9c0.1,0,0.2,0.1,0.2,0.3c0,0.2,0.1,0.3,0.2,0.3
		c0.1,0,0.3,0.3,0.4,0.7c0.1,0.4,0.2,0.7,0.3,0.7c0.1,0,0.2,0.3,0.3,0.8c0.1,0.4,0.3,0.8,0.4,0.9c0.2,0.1,0.5,0.6,0.8,1.2
		c0.3,0.6,0.6,1.1,0.8,1.2c0.2,0.1,0.3,0.2,0.3,0.3c0,0.3,0.3,0.7,2.7,2.9c0.5,0.5,1,0.8,1.1,0.8c0.1,0,0.3,0.2,0.3,0.3
		c0.1,0.2,0.3,0.3,0.6,0.3c0.3,0,0.5,0.2,0.6,0.3c0.1,0.2,0.3,0.3,0.4,0.3c0.2,0,0.3,0.1,0.3,0.2c0,0.1,0.3,0.2,0.6,0.2
		c0.3,0,0.6,0.1,0.6,0.2c0,0.1,0.2,0.2,0.4,0.2c1.2,0,1.1-1.9,1.1,25.8v25.6L10,523.3c-41.4,0-56.1-0.1-56.3-0.3
		c-0.1-0.1-1-0.3-2-0.4c-1-0.1-1.8-0.3-1.8-0.4c0-0.1-0.3-0.2-0.7-0.2c-0.4,0-0.7-0.1-0.8-0.2c-0.1-0.1-0.6-0.3-1.2-0.4
		c-0.6-0.1-1.1-0.2-1.1-0.4c0-0.1-0.4-0.2-0.8-0.2c-0.4,0-0.8-0.1-0.8-0.2s-0.2-0.2-0.5-0.2c-0.3,0-0.8-0.1-1.1-0.3
		c-0.3-0.2-0.9-0.4-1.3-0.5s-0.7-0.2-0.7-0.4c0-0.1-0.3-0.2-0.6-0.2s-0.6-0.1-0.6-0.2c0-0.1-0.4-0.3-0.9-0.4
		c-0.5-0.1-0.9-0.2-0.9-0.3c0-0.1-0.2-0.2-0.3-0.2c-0.2,0-0.3-0.1-0.3-0.2s-0.1-0.2-0.3-0.1c-0.2,0.1-0.3,0-0.3-0.1
		s-0.2-0.2-0.3-0.2c-0.2,0-0.3-0.1-0.3-0.2c0-0.1-0.4-0.3-0.8-0.3c-0.4-0.1-0.8-0.2-0.8-0.4c0-0.1-0.1-0.2-0.3-0.2
		c-0.2,0-0.3-0.1-0.3-0.2s-0.1-0.2-0.2-0.1c-0.1,0.1-0.2,0-0.2-0.1s-0.2-0.2-0.3-0.2s-0.3-0.1-0.3-0.2c0-0.1-0.1-0.2-0.3-0.2
		c-0.2,0-0.5-0.1-0.6-0.3c-0.2-0.2-0.4-0.4-0.6-0.5c-0.9-0.4-1.3-0.7-2.5-1.8c-0.4-0.3-0.7-0.6-0.9-0.6c-0.1,0-0.5-0.4-0.9-0.8
		c-0.4-0.4-0.8-0.8-1-0.8c-0.3,0-3.2-2.9-3.2-3.2c0-0.1-0.4-0.6-0.9-1c-0.5-0.4-0.9-1-0.9-1.2s-0.1-0.4-0.2-0.3
		c-0.1,0.1-0.3-0.1-0.4-0.4c-0.1-0.3-0.3-0.7-0.5-0.8c-0.2-0.2-0.5-0.6-0.5-0.8c-0.1-0.3-0.2-0.5-0.3-0.5s-0.3-0.3-0.3-0.6
		c-0.1-0.3-0.3-0.8-0.6-1c-0.2-0.2-0.5-0.6-0.6-1c-0.1-0.3-0.2-0.6-0.3-0.6s-0.2-0.3-0.2-0.6c0-0.3-0.1-0.6-0.2-0.6
		c-0.1,0-0.3-0.4-0.4-0.8c-0.1-0.4-0.2-0.8-0.3-0.8c-0.1,0-0.2-0.5-0.3-1s-0.2-1-0.4-1c-0.1,0-0.2-0.4-0.2-0.8
		c0-0.4-0.1-0.8-0.2-0.8s-0.3-0.7-0.4-1.5c-0.1-0.8-0.2-1.5-0.3-1.5c-0.1,0-0.2-0.9-0.3-1.9c-0.1-1-0.2-1.9-0.4-1.9
		c-0.1,0-0.2-0.6-0.2-1.3c0-0.8-0.1-1.4-0.3-1.4c-0.4-0.1-0.4-13.8,0-14c0.2-0.1,0.3-0.5,0.3-1.3c0-0.7,0.1-1.2,0.2-1.2
		s0.3-0.7,0.3-1.6c0.1-0.9,0.2-1.6,0.3-1.7c0.1-0.1,0.3-0.7,0.3-1.3c0.1-0.7,0.2-1.2,0.4-1.2s0.2-0.3,0.2-0.6c0-0.3,0.1-0.6,0.2-0.6
		c0.1,0,0.3-0.5,0.4-1c0.1-0.6,0.2-1,0.3-1c0.1,0,0.2-0.3,0.3-0.7c0.2-0.9,0.6-2,0.8-2c0.1,0,0.2-0.3,0.3-0.7
		c0.1-0.4,0.2-0.7,0.3-0.7c0.1,0,0.3-0.4,0.4-0.8c0.2-0.4,0.4-0.9,0.6-0.9c0.2-0.1,0.3-0.3,0.3-0.5c0-0.2,0.2-0.6,0.5-0.8
		c0.3-0.2,0.6-0.6,0.7-0.9c0.1-0.3,0.2-0.5,0.3-0.4c0.1,0.1,0.2-0.1,0.2-0.3c0-0.7,0.2-1.1,0.7-1.1c0.3,0,0.4-0.2,0.4-0.5
		c0-0.3,0.2-0.7,0.3-0.8c0.2-0.2,0.3-0.4,0.3-0.5c0-0.2,6.6-6.9,6.9-6.9c0.1,0,0.5-0.3,0.8-0.7c0.4-0.4,0.8-0.7,0.9-0.7
		c0.1,0,0.4-0.3,0.7-0.6c0.2-0.3,0.6-0.6,0.8-0.6c0.2,0,0.5-0.2,0.6-0.3c0.1-0.2,0.3-0.3,0.4-0.3s0.3-0.1,0.3-0.2
		c0-0.1,0.2-0.3,0.5-0.4c0.3-0.1,0.7-0.3,0.9-0.6c0.2-0.2,0.6-0.5,1-0.6c0.3-0.1,0.6-0.2,0.6-0.4c0-0.1,0.2-0.2,0.5-0.2
		c0.3,0,0.5-0.2,0.6-0.3c0.1-0.2,0.3-0.3,0.4-0.3c0.2,0,0.3-0.1,0.3-0.2c0-0.1,0.4-0.3,0.8-0.3c0.4-0.1,0.8-0.2,0.8-0.4
		s0.2-0.2,0.3-0.2c0.2,0,0.3-0.1,0.3-0.2c0-0.2,0.2-0.2,0.6-0.1c0.3,0.1,0.6,0,0.6-0.1c0-0.1,0.2-0.2,0.3-0.2c0.2,0,0.3-0.1,0.3-0.2
		s0.5-0.3,1.1-0.4s1.1-0.3,1.2-0.4c0.1-0.1,0.5-0.3,1-0.3c1.2-0.2,1.5-0.5,1.4-1.4c-0.1-0.9-0.6-2.1-0.8-2.1c-0.1,0-0.2-0.5-0.3-1.1
		c-0.1-0.6-0.2-1.1-0.4-1.1s-0.2-0.2-0.2-0.4c0-0.2-0.1-0.5-0.2-0.6c-0.1-0.1-0.3-0.7-0.4-1.5c-0.1-0.7-0.2-1.3-0.3-1.3
		c-0.1,0-0.3-1-0.3-2.2c-0.1-1.2-0.3-2.2-0.4-2.2c-0.1,0-0.2-0.8-0.2-1.9c0-1-0.1-1.9-0.2-2c-0.3-0.2-0.3-7.5,0-7.5
		c0.1,0,0.2-0.8,0.2-1.9c0-1,0.1-1.9,0.2-1.9c0.1,0,0.3-0.9,0.4-1.9c0.1-1,0.2-1.9,0.3-1.9c0.1,0,0.2-0.7,0.3-1.5
		c0.1-0.8,0.2-1.5,0.4-1.5c0.1,0,0.2-0.3,0.2-0.6c0-0.3,0.1-0.6,0.2-0.6s0.3-0.5,0.4-1.1c0.1-0.6,0.2-1.1,0.4-1.1
		c0.1,0,0.2-0.3,0.2-0.6c0-0.3,0.1-0.6,0.2-0.6c0.1,0,0.3-0.3,0.3-0.8c0.1-0.4,0.3-1.1,0.5-1.4c0.2-0.3,0.3-0.8,0.3-1
		c0-0.2,0.1-0.4,0.2-0.4c0.1,0,0.2-0.2,0.2-0.3c0-0.2,0.1-0.3,0.2-0.3c0.1,0,0.3-0.3,0.4-0.6c0.1-0.3,0.2-0.7,0.4-0.7
		c0.1-0.1,0.2-0.5,0.3-0.9c0-0.4,0.2-0.8,0.3-0.8c0.1,0,0.3-0.3,0.3-0.5c0-0.2,0.2-0.4,0.3-0.4c0.2,0,0.3-0.2,0.3-0.4
		c0-0.2,0.1-0.4,0.2-0.4c0.1,0,0.2-0.2,0.2-0.4c0-0.2,0.1-0.5,0.3-0.7c0.2-0.2,0.3-0.4,0.3-0.6c0-0.2,0.2-0.3,0.3-0.4
		c0.2-0.1,0.3-0.2,0.3-0.4c0-0.1,0.3-0.5,0.6-0.8c0.3-0.3,0.6-0.7,0.6-0.8c0-0.1,0.4-0.6,0.9-1.1c0.5-0.5,0.9-0.9,0.9-1.1
		c0-0.1,0.3-0.5,0.6-0.8c0.6-0.6,0.8-0.8,1.7-1.8c0.3-0.4,0.7-0.7,0.8-0.7s0.3-0.2,0.3-0.4c0.1-0.2,0.3-0.4,0.5-0.4
		c0.2,0,0.8-0.5,1.3-1c0.5-0.6,1-1,1.1-1c0.1,0,0.6-0.4,1-0.8c0.4-0.4,0.9-0.8,1-0.8c0.1,0,0.5-0.3,0.9-0.7c0.4-0.4,0.8-0.7,0.9-0.7
		s0.5-0.3,0.8-0.6c0.3-0.3,0.6-0.6,0.8-0.6s0.2-0.1,0.2-0.2c0-0.1,0.3-0.3,0.6-0.4c0.3-0.1,0.6-0.2,0.6-0.3c0-0.1,0.4-0.3,0.8-0.6
		c0.4-0.2,0.8-0.5,0.8-0.6s0.3-0.2,0.6-0.3s0.6-0.2,0.6-0.4c0-0.1,0.2-0.2,0.3-0.2c0.2,0,0.3-0.1,0.3-0.2c0-0.2,1.8-1.1,2.2-1.1
		c0.1,0,0.2-0.1,0.2-0.2c0-0.1,0.2-0.2,0.3-0.2c0.2,0,0.3-0.1,0.3-0.2c0-0.1,0.1-0.2,0.2-0.2c0.3,0,1.8-0.7,2-1
		c0.1-0.1,0.4-0.1,0.6-0.1c0.3,0.1,0.5,0.1,0.5-0.1c0-0.1,0.2-0.2,0.3-0.2c0.2,0,0.3-0.1,0.3-0.2c0-0.1,0.4-0.3,0.8-0.4
		c0.4-0.1,0.8-0.2,0.9-0.3c0.1-0.1,0.4-0.2,0.7-0.2c0.3,0,0.5-0.1,0.5-0.2c0-0.1,0.4-0.3,0.9-0.3c0.5-0.1,0.9-0.2,0.9-0.3
		c0-0.1,0.6-0.3,1.2-0.3c0.7-0.1,1.2-0.2,1.2-0.4c0-0.1,0.4-0.2,0.8-0.2s0.8-0.1,0.8-0.2s0.6-0.3,1.3-0.4c0.7-0.1,1.4-0.2,1.5-0.4
		c0.1-0.1,0.5-0.2,1-0.2c0.5,0,0.9-0.1,0.9-0.2c0-0.2,0.4-0.2,1-0.2c0.6,0,1,0,1-0.1s0.4-0.2,0.9-0.2c0.5,0,0.9-0.1,1-0.3
		c0.1-0.4,20.8-0.4,20.9,0c0.1,0.2,0.5,0.3,1.3,0.3c0.7,0,1.2,0.1,1.2,0.2s0.6,0.1,1.3,0.1c0.9-0.1,1.3,0,1.3,0.2
		c0,0.1,0.4,0.3,0.9,0.3c0.5,0,0.9,0.1,0.9,0.2c0,0.1,0.7,0.3,1.6,0.3c0.9,0.1,1.6,0.2,1.6,0.4c0,0.1,0.4,0.2,0.9,0.2
		c0.5,0,0.9,0.1,0.9,0.2s0.6,0.3,1.3,0.4c0.7,0.1,1.3,0.2,1.3,0.3s0.6,0.2,1.2,0.3c0.7,0.1,1.2,0.2,1.2,0.4c0,0.1,0.3,0.2,0.6,0.2
		c0.3,0,0.6,0.1,0.6,0.2c0,0.1,0.4,0.3,0.9,0.4c0.5,0.1,0.9,0.2,0.9,0.3c0,0.1,0.2,0.2,0.3,0.2c0.2,0,0.3,0.1,0.3,0.2
		c0,0.1,0.3,0.1,0.6,0.1c0.3-0.1,0.6,0,0.6,0.1c0,0.1,0.2,0.3,0.3,0.3c0.2,0,0.3,0.1,0.3,0.2c0,0.9,1.1,0.1,1.3-0.9
		c0.1-0.6,0.2-1.1,0.3-1.1c0.1,0,0.2-0.3,0.2-0.6c0-0.3,0.1-0.6,0.2-0.6c0.1,0,0.3-0.5,0.3-1c0.1-0.6,0.2-1,0.3-1
		c0.1,0,0.2-0.3,0.3-0.7c0.2-0.9,0.6-2,0.8-2c0.1,0,0.2-0.3,0.3-0.7c0.1-0.4,0.3-0.8,0.6-1c0.2-0.2,0.5-0.6,0.6-0.9
		c0.1-0.3,0.3-0.7,0.5-0.9c0.2-0.1,0.3-0.4,0.3-0.5c0-0.1,0.2-0.4,0.4-0.6c0.2-0.2,0.5-0.6,0.6-0.9c0.1-0.3,0.3-0.5,0.4-0.5
		c0.1,0,0.2-0.1,0.2-0.3c0-0.2,0.3-0.5,0.6-0.8c0.3-0.2,0.6-0.5,0.6-0.6s0.3-0.3,0.6-0.5c0.3-0.2,0.6-0.5,0.7-0.7
		c0.1-0.2,0.6-0.9,1.2-1.5c0.6-0.6,1.1-1.2,1.1-1.3c0-0.3,1.5-1.8,1.6-1.7c0.1,0.1,0.2-0.1,0.3-0.4s0.2-0.5,0.3-0.5
		c0.3,0,1.8-1.5,1.7-1.6c-0.1-0.1,0.1-0.2,0.4-0.3c0.3-0.1,0.8-0.5,1.2-0.9c0.4-0.4,0.8-0.8,0.9-0.8c0.1,0,0.4-0.3,0.8-0.6
		c0.3-0.3,0.7-0.6,0.8-0.6s0.4-0.3,0.7-0.6c0.3-0.3,0.5-0.5,0.6-0.5c0.1,0.1,0.3,0,0.5-0.3c0.2-0.2,0.6-0.5,0.9-0.6
		c0.3-0.1,0.5-0.3,0.5-0.4c0-0.1,0.1-0.2,0.3-0.2c0.2,0,0.6-0.2,0.9-0.5c0.3-0.3,0.9-0.6,1.2-0.7c0.3-0.1,0.7-0.4,0.9-0.6
		c0.2-0.2,0.6-0.5,0.9-0.6c0.3-0.1,0.6-0.2,0.6-0.3c0-0.2,1.1-0.6,1.4-0.5c0.1,0,0.2-0.1,0.2-0.2c0-0.1,0.2-0.2,0.3-0.2
		s0.3-0.1,0.3-0.2s0.3-0.3,0.7-0.4c0.4-0.1,0.7-0.2,0.8-0.4c0.1-0.1,0.3-0.2,0.6-0.2c0.2,0,0.4-0.1,0.4-0.2c0-0.1,0.1-0.2,0.3-0.2
		c0.2,0,0.5-0.1,0.9-0.3c0.3-0.2,0.9-0.4,1.4-0.5c0.4-0.1,0.8-0.3,0.8-0.4s0.3-0.2,0.6-0.2c0.3,0,0.6-0.1,0.6-0.2s0.5-0.3,1-0.3
		c0.6-0.1,1-0.2,1-0.3c0-0.1,0.4-0.3,1-0.3c0.6-0.1,1.1-0.2,1.1-0.4c0.1-0.1,0.4-0.2,0.7-0.2s0.5-0.1,0.5-0.2c0-0.1,0.7-0.3,1.6-0.4
		s1.6-0.2,1.6-0.3s0.4-0.2,0.9-0.2c0.5,0,0.9-0.1,0.9-0.2c0-0.1,1-0.3,2.2-0.4c1.2-0.1,2.3-0.3,2.3-0.4c0.2-0.4,18.1-0.3,18.2,0
		c0.1,0.2,0.6,0.3,1.5,0.3c0.8,0,1.4,0.1,1.4,0.2c0,0.1,0.5,0.1,1.1,0.1c0.7-0.1,1.1,0,1.1,0.1c0,0.1,0.4,0.3,0.9,0.3
		c0.5,0,0.9,0.1,0.9,0.2c0,0.1,0.7,0.3,1.5,0.4c0.8,0.1,1.5,0.2,1.5,0.4c0,0.1,0.3,0.2,0.7,0.2s0.7,0.1,0.7,0.2
		c0,0.1,0.5,0.3,1.2,0.3c0.6,0.1,1.2,0.2,1.3,0.3c0.1,0.1,0.6,0.3,1.2,0.4c0.6,0.1,1.1,0.2,1.1,0.4s0.2,0.2,0.5,0.2s0.6,0.1,0.7,0.2
		c0.1,0.1,0.3,0.2,0.5,0.2c0.2,0,0.7,0.2,1,0.3c0.4,0.2,0.8,0.3,0.9,0.3s0.3,0.1,0.3,0.2c0,0.1,0.1,0.2,0.3,0.1
		c0.2-0.1,0.3,0,0.3,0.1c0,0.2,0.9,0.6,1.8,0.9c0.3,0.1,0.6,0.2,0.6,0.3c0,0.1,0.2,0.2,0.4,0.2s0.4,0.1,0.4,0.2
		c0,0.1,0.2,0.2,0.3,0.2s0.4,0.1,0.5,0.3c0.1,0.2,0.5,0.4,0.9,0.5c0.4,0.1,0.8,0.2,0.8,0.4s0.2,0.2,0.3,0.2c0.2,0,0.3,0.1,0.3,0.2
		c0,0.1,0.3,0.3,0.6,0.4s0.6,0.2,0.6,0.3c0,0.1,0.2,0.2,0.4,0.3c0.4,0.1,1.1,0.6,1.6,1c0.2,0.2,0.4,0.3,0.6,0.3
		c0.1,0,0.4,0.2,0.6,0.4c0.2,0.2,0.4,0.4,0.6,0.3c0.2-0.1,0.3,0.1,0.4,0.3c0.1,0.2,0.4,0.5,0.6,0.6c0.3,0.1,0.8,0.5,1.2,0.9
		c0.4,0.4,0.9,0.8,1.2,0.9c0.3,0.1,0.6,0.3,0.6,0.6c0.1,0.2,0.3,0.5,0.6,0.6c0.2,0.1,0.5,0.3,0.6,0.6s0.3,0.5,0.6,0.6
		c0.2,0.1,0.4,0.2,0.3,0.3c-0.1,0.1,0.1,0.3,0.4,0.3c0.3,0.1,0.6,0.3,0.6,0.5c0,0.3,0.6,1,1.5,1.6c0.3,0.2,0.4,0.4,0.4,0.5
		c-0.1,0.1,0.1,0.2,0.3,0.3c0.2,0.1,0.6,0.5,1,0.9c0.3,0.4,0.7,0.8,0.9,0.9c0.2,0.1,0.4,0.3,0.5,0.6c0.1,0.2,0.2,0.4,0.3,0.4
		c0.1,0,0.2,0.1,0.2,0.3c0,0.2,0.2,0.4,0.5,0.4c0.3,0.1,0.6,0.4,0.7,0.6c0.1,0.3,0.4,0.7,0.7,1c0.3,0.3,0.5,0.6,0.5,0.8
		c0,0.2,0.1,0.3,0.2,0.3s0.3,0.3,0.4,0.6c0.1,0.3,0.4,0.6,0.5,0.7c0.2,0.1,0.4,0.5,0.5,0.9c0.1,0.4,0.2,0.7,0.3,0.6
		c0.1-0.1,0.2,0.1,0.3,0.4c0.1,0.3,0.2,0.6,0.4,0.6c0.1,0,0.2,0.2,0.2,0.4s0.1,0.4,0.2,0.4c0.1,0,0.3,0.4,0.4,0.9
		c0.1,0.5,0.2,0.9,0.3,0.9c0.2,0,0.6,1.3,0.5,1.6c0,0.1,0.1,0.2,0.2,0.2c0.1,0,0.2,0.3,0.2,0.6c0,0.3,0.1,0.6,0.2,0.6
		s0.3,0.6,0.4,1.3c0.1,0.7,0.2,1.4,0.4,1.5c0.1,0.1,0.2,0.3,0.2,0.6c0,0.5,1.6,0.5,1.7,0c0-0.1,0.3-0.2,0.6-0.2s0.5-0.1,0.5-0.2
		c0-0.1,0.2-0.2,0.3-0.1c0.2,0.1,0.3,0,0.3-0.1c0-0.1,0.1-0.2,0.3-0.2c0.2,0,0.6-0.2,1-0.3c0.4-0.2,0.9-0.3,1.1-0.3
		c0.3,0,0.5-0.1,0.5-0.2c0-0.1,0.2-0.2,0.4-0.2c0.2,0,0.5-0.1,0.6-0.2c0.1-0.1,0.7-0.3,1.4-0.4c0.7-0.1,1.2-0.2,1.2-0.3
		s0.6-0.3,1.2-0.3c0.7-0.1,1.2-0.2,1.2-0.4c0-0.1,0.3-0.2,0.7-0.2s0.7-0.1,0.8-0.2c0.1-0.1,0.9-0.3,1.9-0.4c1-0.1,1.8-0.2,1.8-0.4
		c0-0.1,0.4-0.2,0.9-0.2c0.5,0,0.9-0.1,0.9-0.2c0-0.2,0.4-0.2,1-0.2c0.6,0,1,0,1-0.1s0.6-0.2,1.3-0.2c0.9,0,1.4-0.1,1.4-0.3
		c0.1-0.4,19.8-0.4,20,0c0.1,0.1,1.2,0.3,2.4,0.4c1.2,0.1,2.3,0.3,2.3,0.4c0,0.1,0.5,0.2,0.9,0.2c0.5,0,0.9,0.1,0.9,0.2
		c0,0.1,0.7,0.3,1.5,0.4c0.8,0.1,1.5,0.2,1.5,0.4s0.3,0.2,0.6,0.2c0.4,0,0.9,0.2,1.3,0.3c0.4,0.2,0.9,0.3,1.1,0.3
		c0.3,0,0.5,0.1,0.6,0.2c0.1,0.1,0.6,0.3,1.1,0.4c0.6,0.1,1,0.2,1,0.3c0,0.1,0.3,0.2,0.6,0.2c0.3,0,0.6,0.1,0.6,0.2
		c0,0.1,0.4,0.3,0.9,0.3c0.5,0.1,0.9,0.2,0.9,0.4c0,0.1,0.2,0.2,0.3,0.2c0.2,0,0.3,0.1,0.3,0.2c0,0.1,0.2,0.2,0.6,0.1
		c0.3-0.1,0.6,0,0.6,0.1c0,0.1,0.2,0.2,0.3,0.2s0.3,0.1,0.3,0.2c0,0.1,0.3,0.3,0.8,0.4c0.5,0.1,0.8,0.3,0.9,0.6
		c0.1,0.3,0.3,0.4,0.6,0.3c0.2-0.1,0.4,0,0.3,0.1c-0.1,0.1,0.1,0.2,0.3,0.2c0.3,0,0.5,0.1,0.5,0.2c0,0.1,0.3,0.3,0.7,0.4
		c0.4,0.1,0.7,0.2,0.7,0.4s0.2,0.2,0.3,0.2c0.2,0,0.3,0.1,0.3,0.2c0,0.1,0.3,0.3,0.6,0.4c0.3,0.1,0.6,0.2,0.6,0.3s0.4,0.4,0.8,0.6
		c0.5,0.2,1,0.6,1.1,0.7c0.2,0.2,0.4,0.3,0.6,0.3c0.1,0,0.4,0.2,0.6,0.4c0.2,0.2,0.4,0.4,0.6,0.3s0.4,0.2,0.7,0.5
		c0.2,0.3,0.5,0.6,0.6,0.6c0.1,0,0.5,0.3,0.8,0.6c0.3,0.3,0.7,0.6,0.8,0.6c0.1,0,0.6,0.3,0.9,0.8c0.4,0.4,0.9,0.8,1.2,0.9
		c0.3,0.1,0.5,0.2,0.5,0.4c0,0.3,1.3,1.6,1.6,1.6c0.4,0,4.4,4.3,4.4,4.7c0,0.2,0.1,0.4,0.2,0.4c0.4,0,1.1,0.8,1.1,1.3
		c0,0.3,0.2,0.5,0.5,0.6c0.4,0.1,0.5,0.2,0.6,0.7c0,0.4,0.2,0.6,0.4,0.6c0.2,0,0.3,0.2,0.3,0.5c0,0.3,0.2,0.6,0.4,0.8
		c0.2,0.2,0.5,0.6,0.6,0.9c0.1,0.3,0.4,0.7,0.6,0.9c0.2,0.2,0.5,0.6,0.6,1s0.2,0.6,0.3,0.6c0.1,0,0.2,0.4,0.3,0.8
		c0.1,0.4,0.2,0.8,0.4,0.8c0.1,0,0.2,0.2,0.2,0.3c0,0.2,0.1,0.3,0.2,0.3s0.3,0.4,0.4,0.8c0.1,0.4,0.2,0.8,0.3,0.8
		c0.1,0,0.2,0.4,0.3,0.9c0.1,0.5,0.2,0.9,0.4,0.9c0.1,0,0.2,0.2,0.2,0.4s0.1,0.4,0.2,0.4s0.3,0.5,0.4,1.1c0.1,0.6,0.2,1.1,0.3,1.1
		c0.1,0,0.3,0.6,0.3,1.2c0.1,0.7,0.2,1.2,0.4,1.2c0.1,0,0.2,0.3,0.2,0.8c0,0.4,0.1,0.8,0.2,0.8c0.1,0,0.3,0.8,0.4,1.6
		c0.1,0.8,0.2,1.5,0.3,1.5c0.1,0,0.2,0.6,0.2,1.3c0,0.8,0.1,1.4,0.3,1.4c0.4,0.1,0.4,13,0,13.1c-0.2,0.1-0.3,0.7-0.3,1.6
		c0,1-0.1,1.5-0.2,1.4c-0.1-0.1-0.2-0.1-0.2,0c0.1,0.5-0.3,3.4-0.5,3.4c-0.1,0-0.2,0.3-0.2,0.8c0,0.4-0.1,1-0.3,1.4
		c-0.2,0.4-0.3,0.8-0.3,1c0,0.2-0.2,0.7-0.3,1c-0.2,0.4-0.3,0.9-0.3,1.1c0,0.3-0.1,0.6-0.2,0.6c-0.5,0.3-0.3,2.1,0.3,2.1
		c0.3,0,0.6,0.1,0.7,0.2c0.1,0.1,0.6,0.3,1.1,0.4c0.5,0.1,1,0.2,1,0.3c0,0.1,0.5,0.3,1,0.3s1,0.2,1,0.3c0,0.2,0.9,0.5,1.3,0.5
		c0.2,0,0.3,0.1,0.3,0.2c0,0.1,0.2,0.2,0.3,0.2s0.3,0.1,0.3,0.2s0.3,0.3,0.7,0.4c0.4,0.1,0.7,0.2,0.7,0.4s0.2,0.2,0.4,0.2
		s0.4,0.1,0.4,0.2c0,0.1,0.3,0.3,0.7,0.4c0.4,0.1,0.7,0.2,0.7,0.3c0,0.1,0.3,0.2,0.6,0.3c0.3,0.1,0.6,0.2,0.6,0.4
		c0,0.1,0.2,0.2,0.3,0.2s0.3,0.1,0.3,0.2c0,0.1,0.3,0.3,0.6,0.3c0.3,0.1,0.6,0.2,0.6,0.4c0,0.1,0.1,0.2,0.3,0.2
		c0.2,0,0.3,0.1,0.3,0.2c0,0.1,0.2,0.3,0.5,0.4c0.5,0.2,2.7,1.8,2.8,2.2c0,0.1,0.2,0.2,0.4,0.2s0.6,0.4,1.1,0.9
		c0.4,0.5,0.9,0.9,1,0.9c0.3,0,3.2,2.9,3.2,3.2c0,0.1,0.4,0.5,0.8,0.9c0.4,0.4,0.8,0.8,0.8,0.9c0,0.1,0.2,0.4,0.5,0.7
		c0.3,0.3,0.9,0.9,1.3,1.5c0.4,0.6,0.9,1,1,1.1c0.1,0,0.2,0.2,0.2,0.4c0,0.2,0.1,0.3,0.2,0.3c0.1,0,0.2,0.1,0.1,0.2
		c-0.1,0.1,0,0.2,0.1,0.2c0.1,0,0.2,0.1,0.2,0.3c0,0.2,0.2,0.4,0.3,0.4c0.2,0.1,0.3,0.3,0.3,0.5s0.3,0.6,0.6,0.9
		c0.3,0.3,0.6,0.6,0.6,0.8c0,0.1,0.1,0.3,0.2,0.3c0.1,0,0.2,0.2,0.2,0.4c0,0.2,0.1,0.5,0.2,0.6c0.1,0.1,0.2,0.2,0.1,0.3
		c-0.1,0.1,0,0.2,0.1,0.2c0.1,0,0.2,0.2,0.2,0.3s0.1,0.3,0.2,0.3c0.1,0,0.3,0.4,0.4,0.9c0.1,0.5,0.2,0.9,0.3,0.9s0.3,0.4,0.3,0.9
		c0.1,0.5,0.2,0.9,0.3,0.9s0.2,0.3,0.2,0.6c0,0.3,0.1,0.6,0.2,0.6s0.3,0.4,0.3,0.9c0.1,0.5,0.2,1.1,0.4,1.3c0.1,0.2,0.3,1,0.3,1.7
		c0.1,0.7,0.2,1.3,0.3,1.4c0.1,0.1,0.2,0.6,0.2,1.2c0,0.7,0.1,1.1,0.3,1.2c0.4,0.1,0.4,12.7,0,12.9c-0.2,0.1-0.3,0.5-0.3,1.3
		c0,0.7-0.1,1.2-0.2,1.2s-0.3,0.8-0.3,1.7c-0.1,0.9-0.2,1.8-0.3,1.8c-0.1,0.1-0.3,0.8-0.4,1.5c-0.1,0.8-0.3,1.4-0.4,1.4
		c-0.1,0-0.2,0.2-0.2,0.5c0,0.2-0.1,0.6-0.2,0.8c-0.1,0.2-0.3,0.8-0.3,1.2c-0.1,0.5-0.2,0.8-0.3,0.8c-0.1,0-0.3,0.5-0.3,1.1
		c-0.1,0.6-0.2,1.1-0.4,1c-0.1-0.1-0.2,0.1-0.2,0.3s-0.1,0.5-0.2,0.5c-0.1,0-0.3,0.3-0.4,0.7c-0.1,0.4-0.2,0.7-0.4,0.8
		c-0.1,0.1-0.2,0.3-0.2,0.6c0,0.2-0.1,0.4-0.2,0.4c-0.1,0-0.3,0.3-0.4,0.6c-0.1,0.3-0.2,0.6-0.3,0.6c-0.1,0-0.2,0.3-0.3,0.7
		c-0.1,0.4-0.2,0.7-0.3,0.7c-0.1,0-0.2,0.2-0.3,0.4c-0.2,0.4-0.6,1.1-1,1.6c-0.2,0.2-0.3,0.4-0.3,0.6c0,0.1-0.3,0.5-0.6,0.7
		s-0.6,0.5-0.6,0.7c0,0.2-0.8,1-1.7,2c-0.9,0.9-1.7,1.7-1.7,1.8c0,0.1-0.5,0.6-1,1.1c-0.6,0.5-1,1.1-1,1.2c0,0.1-0.2,0.3-0.5,0.4
		c-0.3,0.1-0.6,0.2-0.6,0.3c-0.2,0.2-1.4,1.2-2.1,1.7c-0.4,0.2-0.9,0.7-1.2,0.9c-0.3,0.3-0.7,0.5-0.9,0.5c-0.2,0-0.4,0.1-0.5,0.3
		c-0.1,0.2-0.4,0.4-0.7,0.5s-0.5,0.2-0.5,0.4c0,0.1-0.2,0.2-0.3,0.2c-0.2,0-0.3,0.1-0.3,0.2c0,0.1-0.2,0.2-0.5,0.2
		c-0.2,0-0.5,0.2-0.6,0.3c-0.1,0.2-0.3,0.3-0.4,0.3s-0.3,0.1-0.3,0.2c0,0.1-0.1,0.2-0.3,0.1c-0.2-0.1-0.5,0.1-0.9,0.3
		c-0.3,0.2-0.8,0.5-1.2,0.6c-0.3,0.1-0.6,0.2-0.6,0.4c0,0.1-0.3,0.2-0.6,0.2s-0.6,0.1-0.6,0.2c0,0.1-0.3,0.3-0.7,0.4
		c-0.4,0.1-1,0.3-1.3,0.5c-0.3,0.2-0.8,0.3-1.1,0.3c-0.3,0-0.5,0.1-0.5,0.2s-0.3,0.2-0.6,0.2c-0.3,0-0.6,0.1-0.6,0.2s-0.4,0.3-1,0.3
		c-0.5,0.1-1.1,0.2-1.1,0.4c-0.1,0.1-0.4,0.2-0.8,0.2c-0.4,0-0.7,0.1-0.7,0.2c0,0.2-0.3,0.2-0.7,0.1c-0.4-0.1-0.7,0-0.8,0.1
		c-0.1,0.1-0.4,0.2-0.8,0.2c-0.4,0-0.7,0.1-0.7,0.3c-0.1,0.2-11.7,0.3-57,0.3l-56.9,0.1v-26.8v-26.8l0.9-0.4c0.5-0.2,1-0.4,1.1-0.4
		c0.1,0,0.2-0.1,0.2-0.2c0-0.1,0.2-0.2,0.3-0.2c0.2,0,0.3-0.1,0.3-0.2c0-0.1,0.3-0.3,0.7-0.3c0.4-0.1,0.8-0.3,0.9-0.5
		c0.1-0.2,0.4-0.3,0.5-0.3c0.3,0,3.8-3.5,3.8-3.8c0-0.1,0.1-0.2,0.2-0.2s0.2-0.1,0.1-0.2c-0.1-0.1,0-0.2,0.1-0.2
		c0.1,0,0.2-0.2,0.2-0.3c0-0.2,0.1-0.3,0.2-0.3c0.1,0,0.3-0.3,0.4-0.7c0.1-0.4,0.2-0.7,0.4-0.7c0.1,0,0.2-0.1,0.2-0.3
		c0-0.2,0.2-0.6,0.3-0.9c0.2-0.4,0.3-0.9,0.3-1.1c0-0.3,0.1-0.6,0.2-0.6c0.1-0.1,0.2-0.6,0.2-1.1c0-0.5,0.1-1,0.2-1.1
		c0.1-0.1,0.2-1,0.2-2c0-1-0.1-1.9-0.2-2c-0.1-0.1-0.2-0.5-0.2-1c0-0.5-0.1-0.9-0.2-0.9c-0.1,0-0.3-0.6-0.3-1.3
		c-0.1-0.7-0.2-1.3-0.4-1.3c-0.1,0-0.2-0.2-0.2-0.3c0-0.2-0.1-0.3-0.2-0.3c-0.1,0-0.3-0.3-0.4-0.7c-0.1-0.4-0.2-0.7-0.3-0.7
		s-0.3-0.2-0.3-0.5c-0.1-0.3-0.3-0.6-0.6-0.8c-0.2-0.2-0.4-0.4-0.4-0.6c0-0.2-0.3-0.6-0.6-0.9c-0.3-0.3-0.9-0.9-1.3-1.2
		c-0.4-0.4-0.8-0.7-0.9-0.7c-0.1,0-0.3-0.2-0.5-0.4c-0.2-0.2-0.4-0.4-0.5-0.3c-0.1,0.1-0.4-0.1-0.7-0.4c-0.3-0.3-0.7-0.5-1-0.6
		c-0.3-0.1-0.5-0.2-0.5-0.3c0-0.1-0.2-0.2-0.5-0.2c-0.3,0-0.6-0.1-0.6-0.2c0-0.1-0.5-0.3-1.1-0.4c-0.6-0.1-1.1-0.2-1.2-0.4
		c-0.2-0.3-7.5-0.3-7.7,0c-0.1,0.2-1,0.4-2,0.6c-0.2,0-0.3,0.1-0.3,0.2c0,0.1-0.3,0.2-0.6,0.2c-0.3,0-0.6,0.1-0.6,0.2
		c0,0.1-0.2,0.3-0.5,0.3c-0.3,0.1-0.7,0.3-1,0.5c-0.2,0.2-0.6,0.4-0.7,0.3c-0.1,0-0.3,0.1-0.4,0.4s-0.3,0.5-0.4,0.5
		c-0.4,0-3,2.5-3,2.9c0,0.1-0.1,0.2-0.2,0.2c-0.1,0-0.2,0.1-0.1,0.2c0.1,0.1,0,0.2-0.1,0.2s-0.3,0.2-0.3,0.4
		c-0.1,0.4-0.6,1.2-0.8,1.4c-0.2,0.2-0.9,1.7-0.9,2.1c0,0.2-0.1,0.4-0.2,0.4s-0.3,0.6-0.3,1.3c-0.1,0.7-0.2,1.5-0.4,1.7
		c-0.1,0.2-0.2,1.3-0.2,2.5c0,1.2,0.1,2.3,0.2,2.5c0.1,0.2,0.3,1,0.4,1.7c0.1,0.7,0.2,1.3,0.3,1.3c0.1,0,0.2,0.4,0.3,0.8
		c0.1,0.4,0.2,0.8,0.4,0.8c0.1,0,0.2,0.2,0.2,0.4c0,0.2,0.1,0.4,0.2,0.4c0.1,0,0.3,0.3,0.4,0.7c0.1,0.4,0.2,0.7,0.3,0.7
		c0.1,0,0.3,0.2,0.3,0.5c0.2,0.5,1.6,2,1.9,2c0.1,0,0.2,0.2,0.3,0.4c0.1,0.2,0.3,0.5,0.6,0.6c0.2,0.1,0.4,0.2,0.3,0.3
		c-0.1,0.1,0.2,0.4,0.7,0.6c0.4,0.2,0.8,0.5,0.8,0.6s0.3,0.2,0.6,0.3c0.3,0.1,0.9,0.3,1.2,0.6c0.3,0.2,0.9,0.5,1.2,0.6
		c0.3,0.1,0.7,0.2,0.7,0.4c0.1,0.1,0.3,0.2,0.6,0.2c0.4,0,0.4,0.5,0.4,31.6v31.6l62.9-0.1c53.4-0.1,62.9-0.1,63.1-0.4
		c0.1-0.2,0.4-0.3,0.8-0.2c0.3,0.1,0.6,0,0.6-0.1s0.4-0.2,0.9-0.2c0.5,0,0.9-0.1,1-0.2c0.1-0.1,0.7-0.3,1.4-0.4
		c0.7-0.1,1.2-0.2,1.2-0.3c0-0.1,0.5-0.2,1-0.3c0.6-0.1,1.1-0.2,1.1-0.4c0.1-0.1,0.3-0.2,0.6-0.2c0.2,0,0.4-0.1,0.4-0.2
		s0.4-0.3,0.9-0.3c0.5-0.1,0.9-0.2,0.9-0.4c0-0.1,0.3-0.2,0.6-0.2s0.6-0.1,0.6-0.2s0.4-0.3,0.8-0.3s0.8-0.2,0.8-0.3
		c0-0.1,0.3-0.3,0.7-0.3c0.4-0.1,0.7-0.2,0.7-0.3c0-0.1,0.7-0.5,1.5-0.8c0.8-0.4,1.5-0.7,1.5-0.8c0-0.1,0.3-0.2,0.8-0.3
		c0.4-0.1,0.8-0.3,0.9-0.5c0.1-0.2,0.3-0.3,0.5-0.3c0.2,0,0.3-0.1,0.3-0.2c0-0.1,0.2-0.2,0.4-0.2s0.5-0.2,0.6-0.3
		c0.1-0.2,0.3-0.3,0.5-0.3c0.2,0,0.3-0.1,0.3-0.2c0-0.1,0.2-0.3,0.5-0.4c0.3-0.1,0.7-0.3,0.8-0.5c0.2-0.2,0.6-0.5,0.8-0.5
		c0.3-0.1,0.6-0.4,0.6-0.6c0.1-0.2,0.3-0.4,0.4-0.3c0.2,0.1,0.5-0.1,0.8-0.4c0.3-0.3,0.6-0.5,0.7-0.5c0.1,0,0.8-0.6,1.5-1.3
		c0.7-0.7,1.5-1.4,1.8-1.5c0.3-0.1,0.5-0.4,0.6-0.6c0.1-0.2,0.2-0.4,0.3-0.3s0.3-0.1,0.3-0.3c0.1-0.2,0.2-0.5,0.4-0.5
		c0.1,0,0.2-0.1,0.2-0.2s0.6-0.8,1.2-1.5c0.7-0.7,1.2-1.4,1.2-1.5c0-0.1,0.3-0.5,0.7-0.9c0.4-0.4,0.8-0.9,0.9-1.1
		c0.1-0.2,0.2-0.4,0.4-0.4c0.1,0,0.2-0.2,0.2-0.4c0-0.2,0.1-0.5,0.3-0.6c0.3-0.2,0.7-0.8,1-1.4c0.1-0.2,0.3-0.5,0.6-0.7
		c0.2-0.2,0.4-0.5,0.4-0.6c0-0.1,0.2-0.5,0.5-0.7c0.3-0.3,0.6-0.8,0.7-1.1c0.1-0.4,0.2-0.6,0.3-0.6c0.1,0,0.3-0.3,0.3-0.7
		c0.1-0.4,0.2-0.7,0.4-0.7s0.2-0.2,0.2-0.4c0-0.2,0.1-0.4,0.2-0.4c0.1,0,0.3-0.4,0.4-0.9c0.1-0.5,0.2-0.9,0.3-0.9
		c0.1,0,0.3-0.4,0.3-0.9c0.1-0.5,0.2-0.9,0.3-0.9c0.1,0,0.2-0.1,0.2-0.3c0-0.2,0.1-0.3,0.2-0.3c0.1,0,0.3-0.5,0.4-1.1
		c0.1-0.6,0.2-1.1,0.4-1.1s0.2-0.2,0.2-0.4c0-0.2,0.1-0.5,0.2-0.6c0.1-0.1,0.3-0.7,0.4-1.4c0.1-0.7,0.2-1.2,0.3-1.2
		c0.1,0,0.3-0.7,0.3-1.6c0.1-0.9,0.2-1.6,0.3-1.6c0.1,0,0.2-0.4,0.2-0.9c0-0.5,0.1-0.9,0.2-0.9c0.1,0,0.2-0.4,0.2-1s0.1-2,0.3-3.3
		c0.4-3.3,0.2-17.5-0.2-18c-0.2-0.2-0.2-0.6-0.2-1c0.1-0.4,0-0.7-0.1-0.7c-0.1,0-0.2-0.4-0.2-0.9c0-0.5-0.1-0.9-0.2-0.9
		c-0.1,0-0.3-0.6-0.4-1.2c-0.1-0.7-0.2-1.2-0.3-1.2c-0.1,0-0.3-0.5-0.3-1c-0.1-0.6-0.2-1.1-0.3-1.1c-0.1-0.1-0.2-0.4-0.2-0.7
		c0-0.3-0.1-0.5-0.2-0.5s-0.3-0.4-0.4-0.9c-0.1-0.5-0.2-0.9-0.4-0.9s-0.2-0.2-0.2-0.4c0-0.2-0.1-0.4-0.2-0.4c-0.1,0-0.3-0.3-0.4-0.6
		c-0.1-0.3-0.2-0.6-0.3-0.6c-0.1,0-0.2-0.2-0.2-0.4c0-0.2-0.1-0.5-0.3-0.7c-0.1-0.1-0.2-0.3-0.1-0.3c0.1,0,0-0.2-0.3-0.5
		c-0.2-0.3-0.5-0.8-0.6-1.1s-0.2-0.6-0.3-0.6c-0.1,0-0.3-0.3-0.3-0.6c-0.1-0.3-0.2-0.6-0.3-0.6s-0.2-0.2-0.3-0.4
		c-0.2-0.5-0.6-1.2-1.1-1.6c-0.2-0.2-0.4-0.6-0.5-0.8c-0.1-0.3-0.2-0.5-0.3-0.5c-0.1,0-0.2-0.2-0.3-0.5c-0.1-0.3-0.3-0.6-0.6-0.7
		c-0.2-0.1-0.4-0.3-0.4-0.4c0-0.2-0.2-0.5-0.4-0.8c-0.2-0.3-0.4-0.6-0.4-0.7c0-0.2-0.6-0.8-2.2-2.2c-0.5-0.5-0.9-0.9-0.8-0.9
		c0.1-0.1,0-0.1-0.1-0.1c-0.1,0-0.3-0.1-0.3-0.2c0-0.3-0.6-0.9-0.8-0.9c-0.1,0-1-0.8-1.9-1.8c-0.9-1-1.9-1.8-2-1.8s-0.5-0.3-0.8-0.7
		c-0.3-0.4-0.7-0.7-0.8-0.7s-0.5-0.3-0.8-0.6s-0.6-0.6-0.8-0.6c-0.1,0-0.3-0.1-0.3-0.2c0-0.1-0.2-0.3-0.5-0.4
		c-0.3-0.1-0.6-0.3-0.7-0.5c-0.1-0.2-0.3-0.3-0.5-0.3c-0.2,0-0.5-0.2-0.7-0.4c-0.2-0.2-0.5-0.4-0.6-0.4c-0.2,0-0.4-0.2-0.4-0.3
		c-0.1-0.2-0.3-0.3-0.6-0.3c-0.2,0-0.5-0.1-0.6-0.3c-0.1-0.2-0.3-0.3-0.4-0.3c-0.2,0-0.3-0.1-0.3-0.2c0-0.1-0.4-0.3-0.8-0.4
		c-0.4-0.1-0.8-0.2-0.8-0.3c0-0.1-0.1-0.2-0.3-0.2c-0.2,0-0.3-0.1-0.3-0.2c0-0.1-0.3-0.3-0.6-0.4c-0.3-0.1-0.6-0.2-0.6-0.3
		c0-0.1-0.3-0.2-0.6-0.2s-0.6-0.1-0.6-0.2c0-0.1-0.2-0.2-0.4-0.2c-0.2,0-0.3-0.1-0.1-0.2c0.1-0.1,0.3-1.1,0.4-2.2
		c0.1-1.1,0.2-2.1,0.3-2.2c0.5-0.6,0.9-17.3,0.5-17.3c-0.1,0-0.2-0.6-0.2-1.6c0-0.9-0.1-1.6-0.2-1.6s-0.3-0.9-0.4-1.9
		c-0.1-1-0.2-1.9-0.3-1.9c-0.1,0-0.2-0.7-0.3-1.6c-0.1-0.9-0.2-1.6-0.4-1.6c-0.1,0-0.2-0.3-0.2-0.6c0-0.3-0.1-0.6-0.2-0.6
		c-0.1,0-0.3-0.6-0.4-1.2c-0.1-0.7-0.2-1.2-0.3-1.2c-0.1,0-0.2-0.4-0.3-0.9c-0.1-0.5-0.2-0.9-0.4-0.9c-0.1,0-0.2-0.3-0.2-0.6
		c0-0.3-0.1-0.6-0.2-0.6s-0.3-0.4-0.3-0.9c-0.1-0.5-0.2-0.9-0.4-0.9c-0.1,0-0.2-0.2-0.2-0.3c0-0.2-0.1-0.3-0.2-0.3s-0.3-0.4-0.4-0.9
		c-0.1-0.5-0.2-0.9-0.3-0.9c-0.1,0-0.3-0.3-0.3-0.7c-0.1-0.4-0.3-0.9-0.6-1c-0.2-0.2-0.5-0.6-0.5-0.9c-0.1-0.4-0.2-0.7-0.4-0.7
		s-0.2-0.2-0.2-0.3c0-0.2-0.1-0.3-0.2-0.3c-0.1,0-0.2-0.1-0.1-0.3c0.1-0.2-0.1-0.4-0.3-0.6c-0.2-0.2-0.4-0.4-0.4-0.6
		c0-0.1-0.1-0.4-0.3-0.6c-0.3-0.4-0.8-1-1-1.5c-0.2-0.4-0.4-0.7-1.1-1.5c-0.3-0.3-0.7-0.8-0.9-1.2c-0.2-0.4-0.5-0.7-0.7-0.7
		c-0.2,0-0.3-0.1-0.3-0.2c0-0.1-0.5-0.7-1.1-1.3c-0.6-0.6-1.2-1.3-1.2-1.5s-0.3-0.5-0.6-0.6c-0.2-0.1-0.4-0.2-0.4-0.3
		c0-0.2-3.4-3.6-3.6-3.6c-0.1,0-0.6-0.5-1.2-1c-0.5-0.6-1.1-1-1.3-1s-0.4-0.2-0.5-0.4c-0.1-0.2-0.2-0.4-0.3-0.3
		c-0.1,0.1-0.3-0.1-0.3-0.3c-0.1-0.2-0.3-0.5-0.5-0.5c-0.2,0-0.6-0.3-0.8-0.6c-0.2-0.3-0.5-0.6-0.7-0.6s-0.5-0.3-0.8-0.6
		s-0.6-0.6-0.8-0.6s-0.4-0.1-0.5-0.3c-0.1-0.2-0.4-0.4-0.7-0.6c-0.6-0.3-1.4-0.8-1.6-0.9c-0.2-0.2-0.9-0.6-1.3-0.8
		c-0.2-0.1-0.5-0.3-0.7-0.6c-0.2-0.2-0.7-0.5-1-0.5s-0.6-0.2-0.6-0.3c0-0.1-0.3-0.2-0.7-0.3c-0.4-0.1-0.8-0.3-1-0.6
		c-0.2-0.2-0.6-0.5-0.9-0.6c-0.3-0.1-0.6-0.2-0.6-0.4c0-0.1-0.2-0.2-0.5-0.2c-0.3,0-0.6-0.1-0.7-0.2c-0.1-0.1-0.2-0.2-0.3-0.2
		c-0.6-0.1-1.2-0.4-1.2-0.5c0-0.1-0.3-0.2-0.7-0.3c-0.4-0.1-0.7-0.2-0.7-0.4s-0.3-0.2-0.6-0.2c-0.3,0-0.6-0.1-0.6-0.2
		c0-0.1-0.4-0.3-0.9-0.4c-0.5-0.1-0.9-0.2-1-0.3s-0.6-0.2-1.1-0.3c-0.6-0.1-1-0.2-1-0.3c0-0.1-0.2-0.2-0.3-0.2s-0.3-0.1-0.3-0.2
		c0-0.1-0.6-0.3-1.2-0.4c-0.7-0.1-1.2-0.2-1.2-0.4c0-0.1-0.2-0.2-0.5-0.2c-0.3,0-0.6-0.1-0.7-0.2c-0.1-0.1-0.7-0.3-1.5-0.4
		c-0.7-0.1-1.3-0.2-1.3-0.3c0-0.1-0.7-0.2-1.5-0.3c-0.8-0.1-1.5-0.2-1.5-0.4s-0.5-0.2-1.1-0.2c-0.6,0-1.1-0.1-1.1-0.2
		s-0.5-0.1-1-0.1c-0.6,0-1,0-1-0.2c0-0.2-0.5-0.2-1.4-0.2c-0.9,0-1.5-0.1-1.5-0.3c-0.1-0.4-20.3-0.4-20.5,0
		c-0.1,0.2-0.7,0.3-1.8,0.3c-1.2,0-1.6,0.1-1.5,0.2c0.1,0.2-0.2,0.2-1,0.2c-0.6,0-1.1,0-1.1,0.1c0,0.1-0.5,0.2-1.1,0.2
		c-0.6,0-1.1,0.1-1.1,0.2c0,0.1-0.7,0.3-1.6,0.3s-1.7,0.2-1.8,0.3c-0.1,0.1-0.8,0.3-1.5,0.4c-0.7,0.1-1.3,0.2-1.4,0.4
		c-0.1,0.1-0.4,0.2-0.8,0.2c-0.4,0-0.7,0.1-0.7,0.2c-0.2,0.5-2.7,0.6-2.8,0c-0.1-0.3-0.2-0.5-0.3-0.5c-0.1,0-0.2-0.2-0.2-0.4
		s-0.1-0.4-0.2-0.4c-0.1,0-0.3-0.3-0.4-0.7c-0.1-0.4-0.2-0.7-0.3-0.7c-0.1,0-0.2-0.3-0.3-0.6c-0.1-0.3-0.2-0.6-0.4-0.6
		c-0.1,0-0.2-0.2-0.2-0.3c0-0.2-0.1-0.3-0.2-0.3c-0.1,0-0.3-0.2-0.4-0.5s-0.3-0.6-0.5-0.8s-0.3-0.4-0.3-0.6s-0.3-0.5-0.6-0.7
		c-0.3-0.2-0.6-0.5-0.6-0.6c0-0.2-0.2-0.4-1.5-1.9c-0.3-0.3-0.4-0.5-0.4-0.5c0.1,0-0.2-0.3-0.7-0.7c-0.4-0.4-0.9-0.9-0.9-1.2
		c-0.1-0.3-0.3-0.6-0.6-0.7c-0.2-0.1-0.5-0.3-0.6-0.6c-0.1-0.2-0.2-0.4-0.3-0.4c-0.1,0-0.5-0.3-0.9-0.7c-0.8-0.9-0.9-1-1.8-1.8
		c-0.4-0.4-0.7-0.8-0.7-0.9c0-0.1-0.2-0.2-0.4-0.2s-0.8-0.5-1.3-1c-0.5-0.6-1.1-1-1.2-1c-0.1,0-0.6-0.3-0.9-0.8
		c-0.4-0.4-0.9-0.8-1.2-0.9c-0.3-0.1-0.6-0.4-0.6-0.6c-0.1-0.2-0.3-0.4-0.6-0.4s-0.5-0.2-0.6-0.3c-0.1-0.2-0.2-0.3-0.3-0.3
		c-0.3,0-2.2-1.4-2.2-1.6c0-0.1-0.3-0.2-0.8-0.3c-0.5-0.1-0.8-0.3-0.9-0.6c-0.1-0.2-0.3-0.4-0.6-0.4c-0.2,0-0.5-0.1-0.6-0.3
		c-0.1-0.2-0.6-0.5-1.2-0.7c-0.6-0.2-1.1-0.6-1.2-0.7c-0.1-0.2-0.4-0.3-0.6-0.3c-0.2,0-0.4-0.1-0.4-0.2c0-0.1-0.2-0.2-0.3-0.2
		c-0.2,0-0.3-0.1-0.3-0.2c0-0.1-0.1-0.2-0.2-0.2c-0.4,0-2-0.8-2-0.9c0-0.1-0.2-0.1-0.3,0c-0.2,0.1-0.3,0-0.3-0.1
		c0-0.1-0.2-0.2-0.5-0.2s-0.6-0.1-0.6-0.2c0-0.1-0.5-0.3-1-0.4c-0.5-0.1-0.9-0.2-0.9-0.3c0-0.1-0.2-0.2-0.4-0.2
		c-0.2,0-0.4-0.1-0.4-0.2c0-0.1-0.5-0.3-1-0.4c-0.6-0.1-1.1-0.2-1.1-0.3c-0.1-0.1-0.6-0.3-1.1-0.3c-0.6-0.1-1-0.2-1-0.3
		c0-0.1-0.2-0.2-0.5-0.2c-0.3,0-0.6-0.1-0.7-0.2c-0.1-0.1-0.6-0.3-1.2-0.4c-0.6-0.1-1.1-0.2-1.1-0.3s-0.4-0.2-0.8-0.2
		c-0.4,0-0.8-0.1-0.8-0.2s-0.6-0.3-1.3-0.4c-0.7-0.1-1.3-0.2-1.3-0.3s-0.9-0.2-2-0.3c-1.1-0.1-2-0.3-2-0.4c0-0.1-0.6-0.2-1.3-0.2
		c-0.7,0-1.3-0.1-1.3-0.2c0-0.1-0.8-0.1-1.8-0.1c-1.5,0.1-1.8,0-1.8-0.3c0-0.3-0.9-0.4-8.9-0.4C93.6,309.5,92.1,309.5,92.1,309.8
		 M137.4,442.9c0,0.1,0.2,0.2,0.6,0.1c0.3-0.1,0.6,0,0.6,0.1c0,0.1,0.2,0.2,0.4,0.2c0.6,0,1.8,0.7,2.4,1.3c0.3,0.3,0.6,0.5,0.7,0.5
		c0.4,0,1.2,0.8,1.2,1.3c0,0.2,0.1,0.4,0.3,0.4c0.2,0,0.3,0.2,0.3,0.4c0,0.2,0.1,0.4,0.2,0.4c0.1,0,0.3,0.3,0.4,0.7
		c0.1,0.4,0.2,0.7,0.3,0.7c0.1,0,0.3,0.4,0.3,0.8s0.2,1,0.3,1.2c0.3,0.6,0.3,4.9,0,4.9c-0.1,0-0.2,0.2-0.1,0.6
		c0.1,0.3,0,0.6-0.1,0.6c-0.1,0-0.2,0.2-0.2,0.3c0,0.2-0.1,0.3-0.2,0.3c-0.1,0-0.3,0.3-0.3,0.6c-0.1,0.3-0.3,0.8-0.5,0.9
		c-0.2,0.2-0.4,0.5-0.3,0.7c0.1,0.4-1.1,1.9-1.4,1.6c-0.1-0.1-0.1,0-0.1,0.1s-0.2,0.3-0.3,0.3c-0.2,0-0.3,0.1-0.3,0.2
		c0,0.1-0.3,0.3-0.6,0.4c-0.3,0.1-0.6,0.2-0.6,0.3c0,0.1-0.1,0.2-0.3,0.2c-0.2,0-0.3,0.1-0.3,0.2c0,0.1-0.4,0.3-0.8,0.4
		c-0.5,0.1-0.9,0.3-1,0.4c-0.2,0.3-5.3,0.4-5.5,0c-0.1-0.1-0.6-0.3-1.1-0.4c-0.5-0.1-1.2-0.4-1.6-0.7c-0.4-0.3-0.8-0.5-0.9-0.5
		c-0.1,0-0.4-0.2-0.5-0.4c-0.2-0.2-0.4-0.4-0.5-0.3c-0.1,0.1-0.1,0-0.1-0.1c0-0.1-0.4-0.6-0.9-1.1c-0.5-0.5-0.9-1.1-1-1.4
		c-0.1-0.3-0.3-0.7-0.5-0.8s-0.3-0.5-0.3-0.7s-0.1-0.4-0.2-0.4s-0.2-0.2-0.2-0.5c0-0.3-0.1-0.6-0.2-0.6c-0.3-0.1-0.4-4.8,0-5.2
		c0.1-0.1,0.3-0.4,0.3-0.7c0-0.2,0.1-0.4,0.2-0.4s0.2-0.1,0.2-0.3c0-0.4,0.9-2.2,1.2-2.2c0.1,0,0.2-0.2,0.2-0.3s0.1-0.3,0.3-0.3
		c0.1,0,0.2-0.1,0.1-0.1c-0.2-0.2,1.4-1.6,1.7-1.6c0.1,0,0.4-0.2,0.6-0.4c0.2-0.2,0.6-0.5,0.9-0.6c0.3-0.1,0.6-0.2,0.6-0.3
		c0-0.1,0.2-0.2,0.4-0.2s0.4-0.1,0.4-0.3c0-0.2,0.2-0.2,0.7-0.1c0.4,0.1,0.7,0,0.7-0.1c0-0.1,1-0.2,2.3-0.2
		C136.5,442.7,137.4,442.7,137.4,442.9"/>
	<path id="path1" class="st1" d="M56.3,393.9c0,0.1-0.2,0.2-0.5,0.2c-0.3,0-0.3,0-0.1,0c0.8,0.2,0.7,0.7-0.2,0.7
		c-0.6,0-0.8-0.1-0.8-0.4c0-0.4-0.4-0.6-0.8-0.3c-0.1,0.1-0.6,0.3-1.1,0.4c-0.9,0.2-1.2,0.7-0.4,0.6c0.6-0.1,0.4,0.4-0.2,0.5
		c-0.2,0-0.5-0.1-0.7-0.3c-0.2-0.3-0.3-0.3-0.9,0c-0.3,0.2-0.7,0.3-0.8,0.2c-0.1-0.1-0.2,0.1-0.3,0.2c-0.1,0.2-0.3,0.3-0.6,0.3
		c-0.3,0-0.4,0.1-0.3,0.2c0.1,0.2-0.1,0.3-0.6,0.3c-0.1,0-0.3,0.3-0.5,0.6c-0.2,0.3-0.3,0.5-0.1,0.3c0.2-0.1,0.5-0.2,0.7-0.2
		s0.5-0.2,0.7-0.5c0.2-0.3,0.4-0.5,0.6-0.5c0.5,0,0.4,0.2-0.8,1.2c-0.3,0.2-0.5,0.3-0.4,0.1c0.1-0.2,0.1-0.3-0.1-0.2
		c-0.1,0.1-0.2,0.3-0.1,0.4c0.1,0.1-0.1,0.3-0.3,0.4c-0.3,0.1-0.5,0.2-0.5,0c0-0.3-0.6-0.5-0.9-0.4c-0.1,0.1-0.1,0.3-0.1,0.5
		c0.1,0.3,0.2,0.3,0.3,0c0.2-0.2,0.2-0.2,0.4,0c0.1,0.2,0.2,0.3,0.2,0.3c0,0-0.4,0.3-0.7,0.6c-0.5,0.5-0.7,0.6-0.9,0.4
		c-0.1-0.2-0.1-0.2,0.1-0.1c0.1,0.1,0.2,0,0.2-0.2c0-0.4-0.5-0.2-1.1,0.3c-0.4,0.4-0.2,0.9,0.4,0.9c0.4,0,0.4,0.3-0.2,0.7
		c-0.2,0.2-0.4,0.5-0.4,0.8c0,0.3-0.1,0.4-0.3,0.2c-0.2-0.2-0.2-0.4,0-0.7c0.2-0.2,0.3-0.5,0.3-0.7c0-0.4-0.6-0.3-0.8,0.1
		c-0.1,0.2,0,0.3,0.1,0.2c0.2-0.1,0.1,0-0.1,0.2c-0.4,0.4-0.5,0.9-0.1,0.9c0.5,0,0.6,0.5,0.2,1c-0.2,0.3-0.4,0.4-0.6,0.2
		c-0.2-0.2-0.2-0.3,0-0.4c0.4-0.2,0.3-0.5-0.1-0.5c-0.2,0-0.3,0.1-0.3,0.2c0.1,0.6,0,0.8-0.3,0.7c-0.2-0.1-0.2-0.1-0.1,0.1
		c0.1,0.1,0.3,0.2,0.5,0.1c0.2-0.1,0.3,0,0.3,0.3c0,0.5-0.3,0.6-0.5,0.2c-0.1-0.2-0.2-0.2-0.3,0.1c-0.2,0.3-0.1,0.4,0.2,0.4
		c0.3,0,0.4,0.2,0.4,0.5c0,0.5-0.4,0.6-0.6,0.1c-0.2-0.5-0.5-0.4-0.6,0.1c-0.1,0.3,0,0.4,0.3,0.4c0.3,0,0.4,0.2,0.4,0.7
		c0,0.4-0.1,0.7-0.2,0.7c-0.1,0-0.2-0.2-0.2-0.3c0-0.5-0.3-0.4-0.6,0.1c-0.2,0.4-0.2,0.4,0.2,0.5c0.6,0.1,0.7,0.5,0.6,3.8
		c-0.1,1.5-0.1,1.7-0.5,1.7c-0.4,0-0.4,0.1-0.3,0.4c0.1,0.2,0.2,0.8,0.2,1.2c0,1.1,0.4,1.8,0.5,0.9c0-0.4,0-0.9,0-1.3
		c0-0.3,0.1-0.6,0.2-0.6c0.1,0,0.2,0.6,0.2,1.4c0,0.8,0.1,1.6,0.3,1.7c0.4,0.4,0.2,2.3-0.3,2.3c-0.2,0-0.3-0.2-0.3-0.3
		c0.3-1.2,0.3-2.1,0-2c-0.3,0.1-0.5,1.9-0.2,2.3c0.1,0.1,0.2,0.5,0.3,0.9l0.1,0.7l0.3-0.7l0.3-0.7l0.2,0.8c0.1,0.4,0.2,1.1,0.3,1.4
		c0.1,0.5,0.1,0.6-0.2,0.6c-0.3,0-0.3-0.1-0.2-0.7c0.1-0.4,0-0.7-0.1-0.7c-0.3,0-0.3,1.8,0.1,2.3c0.2,0.3,0.3,0.3,0.4-0.2
		c0.1-0.3,0.2-0.6,0.3-0.6c0.2,0,0.1,0.8-0.3,1.5c-0.3,0.6-0.2,1.2,0.2,1c0.1-0.1,0.2-0.3,0.2-0.6c0-0.2,0.1-0.4,0.2-0.4
		c0.3,0,0.3,1-0.1,1.3c-0.2,0.1-0.4,0.2-0.4,0.1c-0.2-0.2-0.2,0.2,0.1,0.7c0.1,0.2,0.2,0.3,0.2,0.2c0-0.2,0.1-0.2,0.2-0.2
		c0.1,0.1,0.2-0.1,0.2-0.3c0-0.6,0.2-0.8,0.6-0.4c0.2,0.2,0.2,0.3,0,0.3c-0.1,0-0.2,0.2-0.1,0.6c0.1,0.4,0,0.6-0.2,0.6
		c-0.2,0-0.4,0.2-0.4,0.4c-0.1,0.2,0,0.4,0.2,0.4c0.2,0,0.3-0.1,0.3-0.3c0-0.4,0.4-0.4,0.5,0.1c0.2,0.6,0.2,1.2-0.1,0.8
		c-0.1-0.2-0.3-0.2-0.6-0.1c-0.2,0.1-0.3,0.2-0.1,0.2c0.2,0,0.3,0.2,0.3,0.5c0,0.5,0,0.5,0.4,0.1c0.4-0.4,0.4-0.4,0.4,0.2
		c0,0.4-0.1,0.6-0.3,0.5c-0.2-0.1-0.3,0.1-0.3,0.4c0,0.3,0.1,0.5,0.3,0.5c0.2,0,0.3-0.2,0.3-0.3c0-0.2,0.1-0.3,0.2-0.3
		c0.4,0,0.2,0.8-0.2,1.2c-0.3,0.3-0.4,0.5-0.2,0.6c0.2,0.2,0.3,0.2,0.6,0c0.3-0.2,0.3-0.2,0.3,0.3c0,0.4-0.1,0.5-0.5,0.5
		c-0.3-0.1-0.4,0-0.2,0.1c0.1,0.1,0.3,0.4,0.3,0.7c0.1,1.2,0.2,1.4,0.5,1.5c0.2,0.1,0.4,0,0.5-0.2c0.1-0.2,0.2-0.2,0.2-0.1
		c0,0.1,0,0.4,0.1,0.7c0,0.3,0,0.4-0.2,0.4c-0.2-0.1-0.3,0.1-0.3,0.4c0,0.5,0.2,0.6,0.6,0.2c0.2-0.2,0.3-0.2,0.3,0.2
		c0,0.3-0.2,0.6-0.4,0.7c-0.3,0.2-0.3,0.3-0.1,0.5c0.2,0.2,0.3,0.2,0.4,0c0.2-0.4,0.5-0.3,0.5,0.2c0,0.2-0.1,0.4-0.3,0.4
		c-0.4,0-0.6,0.5-0.4,0.9c0.1,0.2,0.1,0.5,0.1,0.7c0,0.2,0,0.4,0.1,0.4s0.2,0.1,0.1,0.2c-0.1,0.1,0,0.2,0.2,0.2s0.3-0.1,0.3-0.2
		c0-0.1,0.1-0.2,0.2-0.2s0.2,0.2,0.2,0.5c0,0.2,0.1,0.5,0.3,0.6c0.2,0.1,0.3,0.3,0.2,0.7c-0.1,0.6-0.4,0.7-0.6,0.3
		c-0.1-0.1-0.3-0.2-0.4-0.2c-0.2,0-0.1,0.1,0.1,0.2c0.2,0.1,0.2,0.2,0.1,0.2c-0.2,0-0.3,0.2-0.3,0.4c0,0.2,0.1,0.3,0.2,0.2
		c0.1-0.1,0.2,0.1,0.2,0.3c0,0.3,0.1,0.5,0.2,0.5c0.1,0,0.2-0.1,0.1-0.2c-0.2-0.3,0.2-0.8,0.4-0.7c0.2,0.2-0.4,1.3-0.7,1.1
		c-0.1-0.1-0.2,0,0,0.2c0.1,0.2,0.2,0.5,0.1,0.7c-0.1,0.4,0.3,0.8,0.7,0.8c0.3,0,0.2-0.6-0.1-0.7c-0.2-0.1-0.2-0.3-0.1-0.6
		c0.2-0.6,0.7-0.4,0.5,0.2c-0.1,0.2,0,0.5,0.1,0.5c0.3,0.2,0.2,0.9-0.1,1.1c-0.2,0.1-0.3,0.2-0.2,0.4c0.1,0.2,0.2,0.5,0.2,0.8
		c0,0.7,0.3,0.9,0.6,0.4c0.2-0.3,0.3-0.4,0.4-0.1c0.3,0.5,0.2,0.9-0.2,0.8c-0.3-0.1-0.4,0-0.3,0.6l0.1,0.7l0.4-0.5l0.4-0.5l0,0.5
		c0,0.3-0.1,0.5-0.2,0.5c-0.1,0-0.2,0.3-0.3,0.7c-0.1,0.4,0,0.7,0.1,0.7c0.1,0,0.1,0.1,0.1,0.3c-0.1,0.2,0,0.4,0.1,0.5
		c0.1,0.1,0.2,0.3,0.1,0.6c-0.1,0.2,0,0.4,0.1,0.4c0.1,0,0.2-0.1,0.2-0.2c0-0.1,0.2-0.2,0.5-0.2c0.2,0,0.4,0.1,0.4,0.2
		c-0.1,0.3,0.7,1.9,0.9,1.9c0.3,0,0,1-0.3,1c-0.2,0-0.3,0-0.3-0.1c0.1-0.1,0-0.3-0.1-0.3c-0.2-0.1-0.2-0.3,0-0.6
		c0.2-0.4,0.2-0.4-0.2-0.4c-0.6,0-0.8-0.4-0.3-0.5c0.4-0.1,0.1-0.8-0.4-0.8c-0.3,0-0.2,1.1,0,1.2c0.1,0.1,0.2,0.2,0.1,0.3
		c-0.1,0.1,0,0.2,0.2,0.2c0.2,0,0.3,0.1,0.2,0.2c-0.4,0.6,0.3,1.8,1,1.6c0.9-0.3,1.3-0.6,1.2-1c-0.1-0.2,0-0.3,0.1-0.3
		c0.1,0,0.2,0.1,0.1,0.3c-0.1,0.2,0,0.2,0.6,0.1c0.4-0.1,0.9-0.1,1.1-0.1c0.3,0,0.3,0,0-0.2c-0.3-0.2-0.2-0.2,0.2-0.2
		c0.5,0,0.7-0.5,0.3-0.8c-0.1-0.1-0.2-0.3-0.1-0.5c0.1-0.2,0-0.3-0.1-0.3c-0.3,0-0.5,0.4-0.3,0.6c0.3,0.2,0.3,0.6,0.1,0.6
		c-0.4,0-0.7-1.1-0.4-1.3c0.4-0.1,0.4-1.4,0-1.8c-0.3-0.3-0.3-0.2-0.4,0.1c-0.1,0.2-0.2,0.4-0.3,0.4c-0.3,0,0-0.9,0.4-1.3
		c0.2-0.2,0.3-0.3,0.1-0.4c-0.1-0.1-0.4,0-0.5,0.1c-0.3,0.3-0.7,0.3-0.5,0c0.1-0.1,0.1-0.4,0-0.5c-0.3-0.4-0.3-1.1-0.1-1.1
		c0.1,0,0.2-0.1,0.2-0.3c0-0.2-0.1-0.3-0.2-0.3s-0.2,0.1-0.2,0.2c0,0.1-0.1,0.2-0.2,0.1c-0.5-0.3-0.2-0.8,0.3-0.7
		c0.3,0.1,0.4,0.1,0.3,0c-0.1-0.1-0.2-0.4-0.1-0.7c0.1-0.3,0-0.8-0.1-1.1c-0.5-1.2-0.7-1.8-0.6-2c0.1-0.1,0.1-0.2,0-0.2
		c-0.1,0-0.3,0.3-0.4,0.6c-0.3,0.5-0.3,0.6-0.5,0.2c-0.1-0.2,0-0.6,0.2-0.8c0.4-0.4,0.5-0.9,0.1-0.9c-0.1,0-0.2,0.1-0.2,0.2
		c0,0.1-0.1,0.2-0.3,0.2c-0.2,0-0.3-0.2-0.3-0.5c0-0.3-0.1-0.8-0.2-1.1c-0.1-0.5-0.1-0.6,0.2-0.5c0.3,0.1,0.4,0,0.4-0.3
		c0-0.6-0.2-0.8-0.6-0.5c-0.4,0.4-0.4-0.2,0-0.6c0.2-0.2,0.3-0.3,0.3-0.1c0,0.2,0.1,0.2,0.1,0.1c0.1-0.1,0-0.4-0.2-0.6
		c-0.3-0.4-0.4-0.5-0.5-0.1c-0.2,0.5-0.5,0.5-0.5-0.1c0-0.2,0.2-0.6,0.4-0.7c0.3-0.2,0.4-0.4,0.2-0.6c-0.2-0.3-0.3-0.3-0.5,0.1
		c-0.4,0.5-0.3,0.5-0.8-1.1c-0.3-1.2-0.3-1.3,0.1-1.1c0.2,0.1,0.4-0.1,0.4-0.4c0.2-0.7-0.1-0.8-0.4-0.3c-0.3,0.4-0.3,0.4-0.5,0
		c-0.1-0.2,0-0.5,0.2-0.8c0.2-0.2,0.4-0.7,0.3-1.1l0-0.7l-0.2,0.6c-0.3,0.9-0.9,1-0.9,0.2c0-0.5,0.1-0.6,0.3-0.5
		c0.3,0.1,0.3,0,0.3-0.6c0-0.4-0.1-0.7-0.2-0.7c-0.1,0-0.2,0.1-0.2,0.2c0.1,0.4,0,0.7-0.3,0.7c-0.1,0-0.2-0.2-0.2-0.4
		c0-0.2-0.1-0.7-0.3-1c-0.2-0.5-0.2-0.6,0.1-0.9c0.2-0.2,0.4-0.6,0.4-1.1l0-0.9l-0.3,0.8c-0.4,0.9-0.7,1-0.6,0.1
		c0.1-0.3,0-0.6-0.1-0.7c-0.4-0.2-0.3-1.2,0.1-1.3c0.4-0.1,0.4-0.7,0.1-0.9c-0.1-0.1-0.3,0.1-0.4,0.3c-0.2,0.6-0.5,0.4-0.4-0.3
		c0-0.3,0-0.6-0.1-0.7c-0.3-0.2-0.2-1.2,0.1-1.3c0.3-0.1,0.4-1.3,0.1-1.3c-0.1,0-0.3,0.3-0.4,0.6c-0.2,0.5-0.2,0.6-0.4,0.2
		c-0.1-0.2,0-0.6,0.3-1c0.3-0.3,0.4-0.7,0.3-0.8c-0.2-0.3-0.5-0.2-0.7,0.3c-0.2,0.6-0.6,0.4-0.4-0.2c0.1-0.2,0.3-0.4,0.5-0.5
		c0.3,0,0.3,0,0-0.2c-0.3-0.2-0.1-0.3,0.3-0.2c0.1,0,0.1-0.1-0.1-0.3c-0.2-0.2-0.3-0.7-0.3-1.1c0-0.4-0.2-0.9-0.3-1.2
		c-0.2-0.2-0.2-0.3-0.2-0.1c0.1,0.5-0.5,1-0.7,0.6c-0.2-0.4,0.3-1,0.7-1c0.2,0,0.3-0.1,0.3-0.2s-0.1-0.2-0.2-0.1
		c-0.1,0.1-0.2-0.1-0.2-0.5c0-0.8-0.2-1-0.6-0.5c-0.3,0.3-0.3,0.3-0.3-0.5c0-0.5,0.2-1.1,0.3-1.3c0.4-0.4,0.3-2.4-0.1-2.5
		c-0.1,0-0.3,0.4-0.3,1c-0.1,0.7-0.2,0.9-0.3,0.6c-0.3-0.6-0.2-1.7,0.1-2.2c0.2-0.4,0.2-0.5-0.1-0.7c-0.3-0.2-0.3-0.3-0.1-0.3
		c0.2-0.1,0.3-0.3,0.3-0.4c0-0.2-0.1-0.3-0.3-0.3c-0.2,0-0.2-0.1,0.1-0.2c0.3-0.2,0.3-0.3,0.1-0.4c-0.3-0.1-0.4-1.2-0.1-1.2
		c0.1,0,0.3,0.2,0.3,0.3c0.2,0.5,0.6,0.4,0.5-0.2c0-0.3-0.2-0.5-0.4-0.5c-0.2,0-0.3-0.1-0.2-0.5c0.1-0.5,0.1-0.5,0.4-0.2
		c0.2,0.3,0.3,0.3,0.8-0.4c0.3-0.4,0.4-0.6,0.2-0.4c-0.7,0.6-1.1,0.2-0.7-0.7c0.4-0.8,0.4-0.8,1-0.4l0.6,0.4l-0.5-0.5
		c-0.3-0.3-0.5-0.6-0.4-0.8c0.1-0.4,0.9-1.7,1.1-1.7c0.1,0,0.2-0.1,0.2-0.3c0-0.2,0.1-0.3,0.3-0.2c0.3,0.1,0.3,0.2,0,0.4
		c-0.2,0.2-0.3,0.4-0.2,0.5s-0.1,0.4-0.4,0.6c-0.4,0.3-0.4,0.4-0.1,0.4c0.6,0,1.1-0.3,0.9-0.5c-0.1-0.1,0-0.3,0.2-0.4
		c0.2-0.2,0.2-0.2,0-0.2c-0.2,0-0.2-0.1-0.2-0.2c0.1-0.1,0.3-0.2,0.4-0.1c0.1,0.1,0.1-0.1-0.2-0.3s-0.3-0.5-0.2-0.5
		c0.1,0,0.3-0.2,0.3-0.4c0.1-0.3,0.3-0.4,0.6-0.4c0.2,0,0.5-0.2,0.6-0.3c0.1-0.2,0.3-0.3,0.5-0.3c0.2,0,0.3,0.1,0.2,0.4
		c-0.2,0.4,0.9,0.3,1.4-0.3c0.2-0.2,0.4-0.2,0.5-0.1c0.1,0.1,0.1-0.1,0-0.4c-0.1-0.4-0.1-0.6,0.1-0.6c0.1,0,0.2,0.2,0.2,0.3
		c0,0.5,0.4,0.4,0.6-0.1c0.1-0.2,0.2-0.4,0.4-0.4c0.2,0,0.2,0.1,0,0.3c-0.3,0.3,0.7,0.4,1,0.1c0.1-0.1,0.7-0.2,1.3-0.2
		c1,0,1.1,0,0.8-0.3c-0.6-0.4-0.8-1.4-0.8-2.9c0-0.8-0.1-1.5-0.2-1.6C56.4,393.7,56.3,393.8,56.3,393.9 M84.4,395.9
		c-0.1,2.3-0.2,2.2,0.9,2.1c0.8,0,0.8,0,0.4,0.3c-0.4,0.3-0.4,0.3,0.1,0.2c0.4-0.1,0.6,0,0.8,0.3c0.3,0.3,0.3,0.3,0.5,0
		c0.2-0.3,0.3-0.3,0.5,0.1c0.3,0.4,1.2,0.4,0.9-0.1c-0.1-0.1,0-0.2,0.1-0.2c0.1,0,0.2,0.2,0.1,0.5c-0.1,0.3,0,0.5,0.2,0.5
		c0.2,0,0.3-0.1,0.3-0.2c0-0.1,0.1-0.2,0.2-0.2c0.1,0,0.2,0.2,0.1,0.5c-0.1,0.5-0.1,0.5,0.3-0.1c0.2-0.3,0.5-0.5,0.6-0.4
		c0.1,0.1,0,0.2-0.1,0.2c-0.1,0-0.3,0.2-0.3,0.4s0.1,0.4,0.2,0.4c0.1,0,0.2-0.2,0.2-0.3c0-0.2,0.1-0.3,0.2-0.3s0.2,0.2,0.2,0.5
		c0,0.7,0.4,1.3,0.8,1.3c0.2,0,0.3,0.1,0.2,0.4c-0.1,0.2-0.1,0.3,0,0.2c0.2-0.2,0.9,0.5,1,0.9c0.1,0.5,0.9,1,1.1,0.7
		c0.3-0.4,0.6-0.1,0.9,0.8c0.1,0.5,0.3,1,0.4,1.3c0.7,1.7,0.9,2.8,0.5,2.8c-0.3,0-0.3,0.7,0,1.1c0.2,0.2,0.2,0.3,0,0.3
		c-0.2,0-0.1,0.2,0.1,0.6c0.3,0.6,0.3,0.8,0,1.5l-0.3,0.9l0-1.1c0-1.6-0.6-1.4-0.7,0.2c0,0.9,0,1.2,0.2,1.2c0.2,0,0.3,0.3,0.4,1
		c0,0.7,0,1-0.2,0.9c-0.1-0.1-0.2-0.3-0.2-0.5s-0.1-0.3-0.2-0.3s-0.2,0.4-0.2,0.8c0,0.4-0.1,0.8-0.2,0.8c-0.3,0-0.3,1.9,0,2.2
		c0.3,0.3,0.5,1.1,0.2,1.3c-0.1,0.1-0.3,0-0.3-0.2c-0.1-0.4-0.8-0.5-0.8-0.1c0,0.1,0.2,0.3,0.4,0.5c0.3,0.2,0.4,0.5,0.4,0.9
		c0,0.6,0,0.6-0.3,0.2c-0.3-0.4-0.3-0.4-0.7,0.3c-0.2,0.4-0.3,0.7-0.1,0.7c0.1,0,0.2-0.1,0.2-0.2c0-0.5,0.6-0.1,0.6,0.4
		c0.1,0.7-0.3,1.1-0.5,0.4c-0.2-0.6-0.5-0.6-0.7,0c-0.1,0.3,0,0.4,0.1,0.3c0.2-0.1,0.2,0,0.1,0.2c-0.1,0.3,0,0.3,0.2,0.2
		c0.4-0.1,0.5,0.9,0.1,1.1c-0.1,0.1-0.1,0.4-0.1,0.6c0.1,0.3,0,0.6-0.2,0.8c-0.3,0.2-0.3,0.2-0.3-0.1c0-0.2-0.1-0.4-0.3-0.5
		c-0.2-0.1-0.3,0-0.2,0.3c0.1,0.2-0.1,0.7-0.3,1c-0.4,0.5-0.6,1.4-0.3,1c0.1-0.1,0.3,0,0.5,0.1c0.3,0.2,0.3,0.1,0.2-0.6
		c-0.1-0.7-0.1-0.8,0.2-0.8c0.3,0,0.4,0.4,0,2c-0.2,0.8-0.5,0.8-0.5,0c0-0.2-0.1-0.4-0.2-0.4c-0.1,0-0.2,0.1-0.1,0.2
		c0.1,0.1,0,0.3-0.1,0.3c-0.3,0.2,0,0.8,0.3,0.8c0.3,0,0.4,1.1,0.1,1.2c-0.1,0.1-0.2-0.1-0.2-0.3c0-0.2-0.2-0.6-0.3-0.7
		c-0.3-0.2-0.3-0.2-0.3,0.5c0,0.5,0.1,0.8,0.3,0.8c0.4-0.1,0.5,0.9,0.2,1.2c-0.2,0.2-0.2,0.1-0.2-0.4c0-0.4-0.1-0.6-0.2-0.5
		c-0.3,0.2-0.3,1.2,0,1.2c0.3,0,0.5,1.1,0.2,1.2c-0.1,0.1-0.2-0.1-0.3-0.4c-0.1-0.4-0.2-0.5-0.5-0.1c-0.3,0.3-0.3,0.4-0.1,0.5
		c0.2,0.1,0.1,0.3-0.2,0.9c-0.3,0.4-0.4,0.8-0.3,0.7c0.8-0.1,0.9,0.3,0.5,1.8c-0.3,0.8-0.3,0.9-0.6,0.4c-0.4-0.5-0.4-0.4-0.5,0.1
		c-0.1,0.3-0.1,0.6,0,0.6c0.5-0.1,0.7,0.1,0.7,0.6c0,0.6,0,0.6-0.4,0.2c-0.4-0.4-0.4-0.4-0.4,0.1c0,0.3,0.1,0.5,0.2,0.5
		s0.2,0.3,0.2,0.7l0,0.7l-0.4-0.8l-0.4-0.8l-0.1,0.7c-0.2,1.1-0.2,2.7,0,2.3c0.1-0.2,0.2-0.6,0.1-1c-0.1-0.5-0.1-0.6,0.2-0.5
		c0.3,0.1,0,2.4-0.4,2.7c-0.1,0.1-0.1,0,0-0.2c0.1-0.2,0-0.4-0.1-0.5c-0.4-0.2-0.5,0.1-0.2,0.8c0.2,0.4,0.2,0.9,0.1,1.1
		c-0.1,0.2-0.1,0.6-0.1,0.9c0,0.3,0,0.5-0.2,0.4c-0.3-0.2-0.5-1-0.3-1c0.3,0,0.5-0.7,0.2-1c-0.3-0.3-0.5-0.1-0.6,1
		c-0.1,0.8,0,1.1,0.2,1.4c0.4,0.4,0.5,0.8,0.2,0.8c-0.1,0-0.3,0.3-0.4,0.6c-0.1,0.5-0.2,0.5-0.3,0.3c-0.1-0.2-0.1-0.5,0.2-0.7
		c0.2-0.3,0.3-0.5,0.1-0.6c-0.2-0.2-0.3-0.1-0.5,0.1c-0.2,0.3-0.2,0.3,0,0.4c0.2,0,0.2,0.1-0.1,0.3c-0.2,0.2-0.3,0.5-0.3,0.6
		c0.1,0.2,0,0.4-0.1,0.5c-0.4,0.2-0.3,0.8,0.2,1.2c0.4,0.3,0.3,0.3-0.2,0.2c-0.5-0.1-0.6-0.1-0.6,0.3c0,0.3,0.1,0.5,0.2,0.5
		s0.2,0.2,0.2,0.4c0,0.3-0.1,0.3-0.2,0.1c-0.1-0.2-0.3-0.2-0.5-0.1c-0.2,0.1-0.2,0.2,0.1,0.5c0.4,0.3,0.5,0.9,0.1,0.9
		c-0.1,0-0.2-0.1-0.2-0.2c0-0.1-0.1-0.2-0.2-0.2s-0.2,0.2-0.2,0.3c0,0.2,0.1,0.3,0.2,0.3c0.1,0,0.2,0.2,0.3,0.4
		c0.1,0.3,0,0.4-0.2,0.3c-0.2-0.1-0.3-0.2-0.2-0.3c0.1-0.1-0.1-0.2-0.3-0.2c-0.2,0-0.3,0.1-0.3,0.1s0.1,0.4-0.1,0.6
		c-0.3,0.8,0.2,1.3,1.4,1.3c0.6,0,1,0.1,0.9,0.2c-0.1,0.1,0.2,0.3,0.6,0.5c0.4,0.2,0.7,0.3,0.7,0.2s-0.2-0.2-0.3-0.3
		c-0.2-0.1-0.3-0.2-0.3-0.4c0-0.2,0.2-0.2,0.5,0c0.4,0.2,0.5,0.2,0.4-0.2c-0.1-0.4,0-0.4,0.6-0.4c0.7,0.1,0.7,0,0.6-0.5
		c-0.1-0.3,0-0.5,0.1-0.5c0.1,0,0.2-0.2,0.2-0.3c0-0.2-0.1-0.3-0.2-0.2c-0.1,0.1-0.3,0-0.3-0.1c-0.1-0.1,0-0.2,0.1-0.2
		c0.4,0,0.9-0.7,0.8-1c-0.1-0.2,0-0.4,0.2-0.4c0.2-0.1,0.3-0.2,0.3-0.3c0-0.1-0.1-0.2-0.3-0.1c-0.2,0.1-0.4,0-0.4-0.1
		c-0.1-0.1,0.1-0.3,0.4-0.4c0.4-0.1,0.6-0.3,0.6-0.6c0-0.4-0.1-0.4-0.4-0.3c-0.3,0.1-0.4,0-0.4-0.3c0-0.3,0.1-0.5,0.2-0.5
		s0.2,0.1,0.2,0.2c0,0.1,0.2,0.2,0.4,0.2c0.2,0,0.4,0,0.4-0.1c0-0.1-0.2-0.3-0.4-0.5c-0.2-0.2-0.4-0.5-0.4-0.7
		c0-0.2,0.1-0.2,0.3,0.1c0.5,0.6,0.8,0.5,0.8-0.1c0-0.4-0.1-0.5-0.3-0.5c-0.2,0.1-0.3,0-0.3-0.1c0-0.2,0.5-0.3,0.9-0.2
		c0.1,0,0.2-0.3,0.2-0.7c0-0.4,0.1-0.9,0.3-1c0.2-0.2,0.2-0.3-0.1-0.3c-0.3,0-0.3,0,0-0.2c0.3-0.2,0.2-0.2-0.3-0.1
		c-0.5,0.1-0.6,0.1-0.5-0.3c0-0.2,0.1-0.6,0.1-0.7c0-0.2,0.1-0.1,0.2,0.2c0.2,0.6,0.7,0.6,0.8-0.1c0-0.2,0-0.3-0.1-0.3
		c-0.2,0.2-0.7-0.3-0.7-0.8c0-0.5,0-0.5,0.5,0c0.6,0.6,0.9,0.4,0.7-0.4c-0.1-0.4,0-0.7,0.1-0.8c0.2-0.1,0.1-0.3-0.2-0.7
		c-0.3-0.3-0.4-0.7-0.3-0.9c0.1-0.3,0.2-0.3,0.2,0c0.1,0.7,0.9,0,0.9-0.9c0-0.3,0.1-0.6,0.2-0.7c0.2-0.2,0.1-0.3-0.1-0.5
		c-0.3-0.2-0.3-0.2-0.3,0c0,0.2,0,0.2-0.2,0c-0.3-0.4-0.3-1.1,0-1.1c0.1,0,0.2,0.2,0.2,0.3c0,0.2,0.2,0.3,0.3,0.3
		c0.2,0,0.3-0.2,0.3-0.4c0-0.2-0.1-0.4-0.2-0.4c-0.3,0-0.4-0.8-0.2-1.1c0.1-0.2,0.2-0.2,0.2,0c0,0.2,0.2,0.3,0.4,0.3
		c0.2,0,0.3-0.1,0.2-0.3c-0.1-0.2,0-0.4,0.1-0.4c0.1-0.1,0.1-0.1-0.2-0.1c-0.3,0-0.5-0.1-0.5-0.5c-0.1-0.5-0.1-0.5,0.5-0.2
		c0.5,0.3,0.5,0.3,0.4-0.3c-0.1-0.4-0.2-0.6-0.3-0.5c-0.3,0.2-0.5-0.5-0.3-0.8c0.1-0.2,0.2-0.2,0.3,0c0.1,0.2,0.2,0.2,0.5,0
		c0.2-0.2,0.2-0.3-0.1-0.4c-0.2-0.1-0.4-0.4-0.4-0.8c0-0.6,0-0.6,0.2-0.3c0.3,0.5,0.6,0.5,0.7-0.1c0.2-0.7,0.2-0.7,0.4-1.2
		c0.2-0.5-0.2-1.1-0.5-0.8c-0.1,0.1-0.1-0.1-0.1-0.4c0-0.6,0.3-0.8,0.6-0.4c0.1,0.1,0.3,0.2,0.5,0.2c0.2,0,0.3-0.1,0.1-0.1
		c-0.3-0.1-0.4-0.7,0-0.7c0.1,0,0.2-0.4,0.2-0.8c0-0.5-0.2-0.8-0.3-0.8c-0.2,0-0.3-0.2-0.3-0.5c0-0.8,0.3-0.9,0.7-0.2
		c0.2,0.3,0.4,0.5,0.4,0.4c0-0.1,0.1-0.4,0.2-0.7c0.1-0.3,0.1-0.3-0.1-0.2c-0.1,0.1-0.3,0.1-0.3-0.1s0.1-0.3,0.3-0.3
		c0.2-0.1,0.1-0.1-0.2,0c-0.4,0.1-0.5,0-0.5-0.4c0-0.7,0.2-0.7,0.6-0.2c0.3,0.4,0.3,0.3,0.3-0.2c0-0.4-0.1-0.6-0.3-0.6
		c-0.4,0-0.4-0.4-0.1-0.9c0.2-0.2,0.2-0.2,0.3,0.2c0.1,0.3,0.3,0.5,0.4,0.5c0.3,0,0.1-1.4-0.2-1.7c-0.2-0.2-0.3-0.4-0.1-0.7
		c0.2-0.4,0.2-0.4,0.3,0.1c0,0.3,0.2,0.5,0.3,0.5c0.3,0,0.3-1-0.1-1.3c-0.3-0.3-0.4-2.1-0.1-1.9c0.1,0.1,0.2-0.3,0.2-0.8
		c0-0.5,0.1-1,0.2-1c0.1-0.1,0.2,0.1,0.2,0.5c0,1.1,0.5,0.9,0.8-0.3c0.1-0.5,0.1-0.6-0.4-0.6c-0.5,0-0.5-0.1-0.5-1.6
		c0-1.3,0.3-2.3,0.4-1.3c0.1,1.7,0.7,2.2,0.7,0.6c0-0.8,0.1-1.1,0.3-1c0.2,0.1,0.2,0.1,0.1-0.1c-0.1-0.1-0.3-0.2-0.5-0.1
		c-0.2,0.1-0.3,0.1-0.2-0.1c0.1-0.1,0-0.3-0.2-0.5c-0.3-0.2-0.3-0.2,0-0.5c0.2-0.2,0.3-0.5,0.1-0.9c-0.3-0.9-0.1-2.5,0.3-2.5
		c0.3,0,0.3-0.1,0.2-0.7c-0.1-0.6-0.1-0.6-0.4-0.3c-0.5,0.6-1.5-1.9-1.1-2.6c0.1-0.1,0-0.3-0.2-0.4c-0.4-0.2-1.4-2.3-1.2-2.5
		c0.2-0.2,0.6,0.5,0.5,0.8c-0.1,0.2,0,0.3,0.2,0.1c0.2-0.1,0.4-0.2,0.5-0.1c0.1,0.1,0.1,0,0-0.2c-0.1-0.2-0.2-0.4-0.4-0.4
		c-0.1,0-0.2-0.1-0.1-0.3c0.1-0.2,0-0.4-0.2-0.4c-0.2-0.1-0.3-0.2-0.2-0.4c0.1-0.2,0.1-0.2-0.1-0.1c-0.1,0.1-0.2,0.2-0.1,0.4
		c0.1,0.1,0,0.3-0.1,0.3c-0.3,0.2-1.4-1-1.2-1.3c0.2-0.2,0.3-0.1,0.4,0.1c0.2,0.5,0.5,0.5,0.4,0c0-0.2-0.3-0.5-0.5-0.6
		c-0.3-0.1-0.4-0.4-0.3-0.5c0.1-0.1,0-0.1-0.2,0.1c-0.3,0.2-0.3,0.3,0,0.5c0.2,0.1,0.2,0.2,0.1,0.3c-0.4,0.2-1-0.8-0.7-1.2
		c0.2-0.2,0.2-0.4-0.1-0.5c-0.2-0.1-0.4-0.4-0.4-0.6c0-0.2-0.1-0.3-0.3-0.2c-0.2,0.1-0.4-0.1-0.6-0.3c-0.4-0.4-0.8-0.5-1-0.2
		c-0.1,0.1,0,0.2,0.2,0.2s0.3,0.1,0.2,0.2c-0.1,0.1-0.4,0.1-0.8-0.1c-0.5-0.3-0.6-0.4-0.3-0.7c0.4-0.4,0.4-0.6,0-0.4
		c-0.2,0.1-0.4,0-0.6-0.2c-0.1-0.2-0.3-0.3-0.4-0.3c-0.1,0-0.4-0.1-0.7-0.2c-0.3-0.2-0.6-0.2-0.7-0.2c-0.1,0.1-0.2,0-0.3-0.1
		c-0.1-0.2-0.3-0.2-0.5-0.1c-0.2,0.1-0.3,0.2-0.3,0.3c0.1,0.1-0.1,0.2-0.4,0.2c-0.3,0-0.5-0.1-0.5-0.2c0-0.1,0.1-0.2,0.2-0.2
		c0.1,0,0.2-0.1,0.2-0.3c0-0.4-0.8-0.2-1,0.2c-0.1,0.4-1.5,0.4-1.4,0c0.1-0.1,0.3-0.3,0.6-0.4c0.4-0.1,0.2-0.2-0.6-0.2l-1.2,0
		L84.4,395.9 M54.2,394.8c0.2,0.4-0.4,0.5-0.7,0.2c-0.3-0.3-0.3-0.4,0.1-0.4C53.8,394.6,54.1,394.7,54.2,394.8 M50.9,396.2
		c0,0.1-0.2,0.2-0.4,0.3c-0.3,0.1-0.4,0-0.3-0.2C50.3,396,50.9,395.9,50.9,396.2 M84.4,398.3c-0.3,0.3-0.1,0.5,0.3,0.4
		c0.2-0.1,0.4-0.2,0.3-0.3C84.9,398.1,84.6,398.1,84.4,398.3 M50.7,400.3c0,0.2-0.1,0.4-0.3,0.4c-0.2,0.1-0.2,0.2-0.1,0.3
		c0.1,0.1,0.3,0.1,0.4-0.1c0.3-0.3,0.4-0.9,0.2-0.9C50.8,400,50.7,400.1,50.7,400.3 M92.2,400.6c-0.1,0.1,0.2,0.4,0.6,0.7
		c0.4,0.3,0.9,0.8,1,1.2c0.1,0.4,0.4,0.7,0.5,0.7c0.2,0,0.2,0.1,0,0.3c-0.3,0.3-0.8-0.2-0.9-0.9c0-0.3-0.2-0.7-0.4-0.8
		c-1.2-0.8-1.5-1.2-1.1-1.2C92.1,400.4,92.3,400.5,92.2,400.6 M98,402.4c-0.2,0.2-0.1,0.5,0.1,0.5c0.2,0,0.3,0.1,0.2,0.3
		c0,0.2,0.1,0.4,0.3,0.3c0.3,0,0.4-0.1,0.2-0.5C98.6,402.4,98.2,402.1,98,402.4 M99,403.9c-0.3,0.1-0.4,0.7-0.1,0.7
		c0.1,0,0.3-0.2,0.3-0.4c0.1-0.2,0.1-0.4,0.1-0.4C99.3,403.8,99.2,403.9,99,403.9 M99.2,404.9c-0.1,0.4-0.2,0.7,0,0.8
		c0.1,0.1,0.2-0.1,0.2-0.3c0-0.3,0-0.4,0.2-0.1c0.2,0.2,0.2,0.2,0.1-0.3C99.5,404.1,99.5,404.1,99.2,404.9 M95,406.2
		c0,0.4,0.4,0.5,0.5,0.1c0.1-0.2,0-0.3-0.2-0.3C95.1,406,95,406.1,95,406.2 M95.3,407.8c0.2,0.4,0.3,0.5,0.4,0.3
		c0.3-0.5,0.2-1-0.2-1C95.1,407.2,95.1,407.3,95.3,407.8 M99.8,408.1c-0.3,0.7-0.1,1.7,0.2,1.7c0.2,0,0.3-0.3,0.3-1
		C100.3,407.8,100,407.5,99.8,408.1 M41.5,409.4c0,1.2,0.3,1.5,0.6,0.6c0.2-0.7-0.1-1.7-0.4-1.7C41.6,408.2,41.5,408.7,41.5,409.4
		 M95.5,416.8c0.1,0.3,0,0.7-0.1,0.8c-0.1,0.2-0.2,0.2-0.2-0.1c0-0.2-0.1-0.4-0.2-0.4c-0.2,0-0.2-0.4,0-1.1
		C95,415.9,95.4,416.4,95.5,416.8 M98.6,417.7c-0.2,0.5,0.1,1.5,0.4,1.5c0.3,0,0.3-1.5,0-1.7C98.9,417.4,98.7,417.5,98.6,417.7
		 M47.2,419.7c0,0.1,0,0.4,0,0.8c0,0.5-0.1,0.5-0.2,0.3c-0.3-0.5-0.3-1.4,0-1.3C47.1,419.5,47.2,419.6,47.2,419.7 M47.1,423.9
		c0,0.2-0.1,0.4-0.2,0.4c-0.1,0-0.2-0.2-0.2-0.4c0-0.2,0.1-0.4,0.2-0.4C47.1,423.4,47.1,423.6,47.1,423.9 M92.9,423.8
		c0,0.1,0.1,0.3,0.2,0.5c0.2,0.4,0.7,0.1,0.5-0.3C93.6,423.7,92.9,423.5,92.9,423.8 M48.3,424.8c0,0.2,0.1,0.4,0.2,0.4
		s0.2-0.2,0.2-0.4s-0.1-0.4-0.2-0.4S48.3,424.5,48.3,424.8 M96.9,427.2c-0.1,0.3-0.2,0.3-0.4,0c-0.1-0.2-0.2-0.6-0.1-0.8
		c0.1-0.3,0.2-0.3,0.4,0C96.9,426.6,96.9,427,96.9,427.2 M49.1,427.2c-0.2,0.7-0.2,0.9,0,0.9c0.3,0,0.4-0.5,0.3-1
		C49.2,426.7,49.2,426.7,49.1,427.2 M96.1,430.3c-0.5,0.3-0.6,0.2-0.4-0.4c0.1-0.4,0.2-0.4,0.5-0.2C96.4,430,96.4,430.1,96.1,430.3
		 M49.9,430c-0.4,0.5-0.3,1,0.1,1c0.3,0,0.4-0.1,0.3-0.7c-0.1-0.4-0.1-0.7-0.1-0.7C50.2,429.7,50,429.8,49.9,430 M46.9,433.4
		c0,0.2-0.2,0.3-0.4,0.3c-0.2,0-0.3-0.1-0.2-0.4c0.1-0.2,0.1-0.5,0.1-0.6C46.5,432.4,46.9,433.1,46.9,433.4 M91.6,434.5
		c0,0.3-0.1,0.6-0.2,0.6c-0.2,0-0.5-0.8-0.3-1C91.4,433.8,91.6,434,91.6,434.5 M51.2,436c-0.2,0.5-0.1,0.8,0.2,0.8
		c0.1,0,0.2-0.3,0.2-0.7C51.5,435.4,51.4,435.3,51.2,436 M90.3,436.2c0,0.4,0,0.6,0.2,0.5c0.3-0.2,0.3-0.9,0.1-1.1
		C90.4,435.6,90.3,435.8,90.3,436.2 M48.2,439.2c-0.2,0.2-0.4-0.1-0.2-0.5c0.2-0.4,0.2-0.4,0.2,0C48.3,438.9,48.2,439.2,48.2,439.2
		 M94,438.9c0.1,0.3,0.1,0.6,0.1,0.6c-0.1,0.1-0.7-0.7-0.7-0.9C93.4,438.2,93.9,438.4,94,438.9 M47.9,441.1c0,0.4,0.4,0.6,0.7,0.3
		c0.2-0.2-0.1-0.8-0.4-0.8C48,440.6,47.8,440.8,47.9,441.1 M52.5,441.7c0,0.3,0.1,0.5,0.2,0.5c0.1,0,0.2-0.1,0.2-0.3
		c0-0.2-0.1-0.4-0.2-0.5C52.6,441.3,52.5,441.5,52.5,441.7 M93.4,442.1c-0.1,0.2-0.2,0.3-0.4,0.2c-0.2-0.1-0.3-0.4-0.2-0.6
		C93,441.1,93.5,441.5,93.4,442.1 M53.7,445.5c-0.1,0.2-0.2,0.3-0.3,0.3c-0.2,0-0.3-0.7,0-1C53.5,444.6,53.8,445.1,53.7,445.5
		 M54.1,446.3c-0.1,0.6-0.5,1-0.5,0.6c0-0.1-0.1-0.4-0.1-0.6c-0.1-0.2,0-0.4,0.3-0.4c0.2-0.1,0.4-0.1,0.4-0.1
		C54.2,445.8,54.2,446,54.1,446.3 M50.4,447.1c-0.3,0.4-0.5,0.2-0.4-0.4c0.1-0.5,0.1-0.5,0.3-0.2C50.4,446.7,50.4,447,50.4,447.1
		 M54.9,448.8c-0.1,0.1-0.2,0.3-0.2,0.5c0,0.3,0.1,0.3,0.2,0.1c0.1-0.1,0.2-0.4,0.2-0.5C55.1,448.8,55,448.7,54.9,448.8 M87.5,449.1
		c0,0.2-0.1,0.4-0.2,0.3c-0.2-0.2-0.2-0.8,0-0.8C87.5,448.7,87.5,448.9,87.5,449.1 M51.6,450.4c0,0.2-0.1,0.3-0.3,0.3
		c-0.4,0-0.4,0-0.2-0.5C51.2,449.7,51.6,449.9,51.6,450.4 M51.8,451.5c0,0.2-0.1,0.3-0.3,0.3c-0.2,0-0.3-0.1-0.2-0.3
		c0.1-0.2,0.2-0.3,0.3-0.3C51.7,451.1,51.8,451.3,51.8,451.5 M55.8,452.2c-0.4,0.4-0.4,0.4-0.4-0.1c0-0.3,0.1-0.5,0.2-0.6
		c0.1-0.1,0.3,0,0.4,0.1C56.1,451.7,56,451.9,55.8,452.2 M89.8,453.9c0,0.2-0.1,0.3-0.3,0.3s-0.3-0.1-0.3-0.3c0-0.2,0.1-0.3,0.3-0.3
		S89.8,453.8,89.8,453.9 M86,454.4c0,0.2-0.1,0.4-0.3,0.5c-0.2,0.1-0.2,0.1-0.1-0.1c0.1-0.1,0.1-0.3-0.1-0.3c-0.1,0-0.2-0.1-0.2-0.2
		c0-0.1,0.2-0.2,0.3-0.2C85.9,454,86,454.2,86,454.4 M89.3,455.5c-0.2,0.2-0.4,0.5-0.4,0.7c0,0.3,0.1,0.3,0.5-0.1
		C89.9,455.5,89.9,454.9,89.3,455.5"/>
	<path id="path2" class="st2" d="M59.9,389.9c0,0.1-0.3,0.3-0.6,0.3c-0.6,0.2-1.9,1.3-1.9,1.7c0,0.1-0.1,0.3-0.3,0.3
		c-1.1,0.4,0.6,7.5,1.8,7.5c0.1,0,0.3,0.1,0.3,0.3c0.1,0.2,0.8,0.3,2.8,0.3s2.8-0.1,2.8-0.3c0.1-0.2,0.2-0.3,0.3-0.3
		c0.1,0,0.5-0.3,0.8-0.6c2.5-2.6,1.8-7.4-1.3-9C64,389.7,59.9,389.5,59.9,389.9 M76.9,389.9c0,0.1-0.3,0.3-0.6,0.3
		c-0.7,0.2-1.9,1.2-1.9,1.6c0,0.2-0.1,0.3-0.3,0.4c-0.2,0.1-0.3,0.8-0.3,2.8c0,2,0.1,2.8,0.3,2.8c0.2,0.1,0.3,0.2,0.3,0.4
		c0,0.3,1.2,1.5,1.5,1.5c0.1,0,0.2,0.1,0.3,0.3c0.3,0.8,5.8,0.4,6.4-0.5c0.1-0.2,1.2-0.5,1.4-0.5c0.1,0,0.1-0.1,0-0.3
		c-0.2-0.5-0.2-1.4,0.1-3.6c0.4-2.5-0.3-3.8-2.5-5C80.8,389.7,76.9,389.5,76.9,389.9 M95.6,398.2c0.5,0.6,1,1.1,1.1,1.1
		C96.8,399.3,96.7,399.1,95.6,398.2l-1-1.1L95.6,398.2 M94.6,406.3c0.2,0.8,0.5,1,0.4,0.3c-0.1-0.3-0.2-0.6-0.3-0.7
		C94.5,405.8,94.5,405.9,94.6,406.3 M41.8,406.6c-0.2,0.3-0.2,0.7-0.2,0.7c0.2,0.2,0.6-0.8,0.5-1.1C42.1,406.1,42,406.2,41.8,406.6
		 M99.9,406.9c0,0.6,0.4,1,0.4,0.5c0-0.3-0.1-0.6-0.2-0.6C100,406.7,99.9,406.8,99.9,406.9 M95.2,409.5c0,0.7,0,1,0.1,0.6
		c0-0.4,0-1,0-1.3C95.3,408.4,95.2,408.7,95.2,409.5 M46.5,410.1c0,0.9,0,1.2,0.1,0.7c0-0.5,0-1.2,0-1.6
		C46.6,408.9,46.5,409.3,46.5,410.1 M41.6,411.7c0,0.7,0,1,0.1,0.6c0.1-0.4,0-1,0-1.3C41.7,410.6,41.6,411,41.6,411.7 M100.2,411.3
		c0,0.5,0,0.7,0.1,0.4c0.1-0.3,0.1-0.7,0-0.9C100.2,410.5,100.1,410.8,100.2,411.3 M43.3,423.4c0.1,0.4,0.1,0.8,0.1,0.8
		c-0.1,0.1,0,0.1,0.1,0.1c0.3,0,0.1-1.1-0.2-1.4C43.2,422.8,43.2,423,43.3,423.4 M52.5,440.2c0.1,0.4,0.3,0.9,0.3,1
		c0,0.2,0.2,0.3,0.4,0.3c0.2,0,0.2,0,0-0.1c-0.2-0.1-0.3-0.4-0.3-0.7c0-0.3-0.1-0.7-0.3-0.9C52.3,439.5,52.3,439.6,52.5,440.2
		 M88.2,443.4c-0.1,0.3,0,0.6,0.1,0.6c0.1,0,0.2-0.3,0.2-0.6c0-0.3,0-0.6-0.1-0.6C88.3,442.9,88.3,443.1,88.2,443.4 M87.5,445.8
		c-0.1,0.3-0.1,0.6,0,0.7c0.1,0.1,0.2-0.1,0.2-0.5C87.8,445.2,87.7,445.1,87.5,445.8 M134.5,446c0,0.1-0.4,0.3-0.9,0.3
		c-0.5,0-0.9,0.1-0.9,0.2c0,0.1-0.3,0.3-0.7,0.4c-0.4,0.1-0.7,0.2-0.7,0.4c0,0.1-0.2,0.2-0.4,0.2s-0.5,0.2-0.6,0.3
		c-0.1,0.2-0.3,0.3-0.5,0.3s-0.4,0.1-0.5,0.3c-0.1,0.2-0.1,0.2,0.2,0.1c0.2-0.1,0.1,0.1-0.3,0.4c-0.3,0.3-0.7,0.8-0.7,1
		c-0.1,0.3-0.3,0.5-0.4,0.5c-0.1,0-0.2,0.2-0.2,0.4c0,0.2-0.1,0.5-0.3,0.7c-0.4,0.4-0.4,4.3,0,4.4c0.1,0.1,0.3,0.3,0.3,0.5
		c0,0.2,0.1,0.4,0.2,0.4c0.1,0,0.3,0.4,0.5,0.9c0.3,0.9,0.5,1.1,0.7,0.6c0.1-0.2,0.1-0.1,0.1,0.2c0,0.3,0.1,0.5,0.2,0.5
		s0.2,0.1,0.2,0.3c0,0.1,0.3,0.4,0.7,0.5c0.4,0.1,0.8,0.3,0.9,0.4c0.8,1,5.2,1.2,6.2,0.2c0.3-0.2,0.8-0.5,1.2-0.6
		c0.8-0.2,2-1.2,2-1.9c0-0.2,0.2-0.4,0.3-0.4c0.2,0,0.3-0.3,0.3-0.6c0-0.3,0.1-0.6,0.2-0.6c0.1,0,0.2-0.2,0.2-0.4
		c0-0.2,0.1-0.8,0.3-1.4c0.2-0.8,0.2-1.2,0-2c-0.1-0.5-0.3-1.2-0.3-1.4c0-0.2-0.1-0.4-0.2-0.4s-0.2-0.2-0.2-0.5s-0.2-0.7-0.5-0.8
		c-0.3-0.2-0.6-0.6-0.7-0.9c-0.1-0.3-0.4-0.6-0.6-0.6c-0.2-0.1-0.4-0.2-0.4-0.3s-0.5-0.3-1-0.6c-0.6-0.2-1-0.5-1-0.6
		c0-0.1-0.4-0.2-1-0.3c-0.5-0.1-1.2-0.2-1.5-0.3C134.7,445.8,134.5,445.8,134.5,446 M56.4,452.5c0,0.3,0.1,0.6,0.2,0.6
		c0.1,0,0.2,0.2,0.2,0.4c0,0.2,0.1,0.3,0.1,0.2c0.1-0.1-0.1-0.6-0.2-1C56.3,452,56.3,452,56.4,452.5 M-65,528.7
		c0.1,0.2,0.2,0.3,0.4,0.3c0.1,0,0.3,0,0.3,0.2s0.2,0.2,0.3,0.2c0.5,0,0.4-0.4-0.1-0.5c-0.2-0.1-0.5-0.2-0.7-0.3
		C-65,528.5-65.1,528.5-65,528.7"/>
	<path id="path3" class="st3" d="M54.7,394.4c0,0.3,0.2,0.4,0.7,0.4c1.1,0,1.1-0.8,0-0.8C54.9,394,54.7,394.1,54.7,394.4
		 M86.3,394.1c-0.3,0.1-0.6,0.3-0.6,0.4c-0.1,0.4,1.1,0.3,1.4-0.1c0.2-0.3,0.4-0.3,0.7-0.2c0.3,0.1,0.3,0.2,0.1,0.3
		c-0.5,0.2-0.3,0.4,0.3,0.4c0.7,0,0.6-0.3-0.1-0.7C87.5,393.9,87.1,393.9,86.3,394.1 M56.8,395.4c0,1.5,0.3,2.7,0.8,2.9
		c0.4,0.2,0.4,0-0.1-0.8c-0.2-0.4-0.4-1.3-0.5-2.1l-0.2-1.3L56.8,395.4 M84.3,394.9c0,0.5-0.1,1.3-0.3,1.8c-0.3,1.1-0.1,2.1,0.4,1.7
		c0.2-0.2,0.4-0.2,0.6,0c0.2,0.2,0.4,0.2,0.7-0.1c0.4-0.3,0.4-0.3-0.1-0.3c-1.2,0.1-1.3,0.1-1.2-1.6c0-0.8,0-1.7,0-2
		C84.3,394.2,84.3,394.4,84.3,394.9 M53.4,395c0.2,0.2,0.5,0.3,0.6,0.2c0.4-0.2,0.1-0.6-0.5-0.6C53.1,394.6,53.1,394.6,53.4,395
		 M51.6,395.2c0.1,0.5,1.1,0.6,1.3,0.1c0.1-0.2,0-0.3-0.3-0.2c-0.2,0.1-0.5,0-0.7-0.1C51.6,394.8,51.6,394.8,51.6,395.2 M91.9,396
		c-0.2,0.2-0.1,0.4,0.4,0.7c0.4,0.2,0.7,0.3,0.8,0.1c0.1-0.1,0-0.2-0.2-0.2c-0.2,0-0.3-0.2-0.3-0.4C92.6,395.8,92.2,395.7,91.9,396
		 M50.2,396.3c-0.1,0.2,0,0.2,0.3,0.2c0.5-0.1,0.6-0.4,0.1-0.4C50.4,396,50.2,396.1,50.2,396.3 M48.9,396.9
		c-0.2,0.4-0.4,0.5-0.9,0.5c-0.4,0-0.6,0-0.5,0.1c0.1,0.1,0,0.2-0.2,0.3c-0.3,0.1-0.3,0.2-0.1,0.4c0.3,0.3,1.2,0.1,1-0.3
		c-0.1-0.1,0-0.3,0.1-0.4c0.2-0.1,0.2-0.1,0.1,0.2c-0.1,0.2,0.1,0.1,0.4-0.1c1.2-1,1.4-1.2,0.8-1.2
		C49.4,396.4,49.1,396.6,48.9,396.9 M95,398.2c-0.3,0.4,0.3,1.4,0.7,1.1c0.1-0.1,0.2,0,0.1,0.1c-0.2,0.4,1,1.5,1.3,1.2
		c0.2-0.1,0.4-0.2,0.5-0.1c0.1,0.1,0-0.1-0.3-0.4c-0.5-0.6-0.8-0.8-0.6-0.4c0.3,0.4-0.1,0.2-0.7-0.3c-0.7-0.7-0.7-0.9-0.1-0.5
		c0.4,0.2,0.5,0.2,0.2,0c-0.2-0.2-0.4-0.4-0.6-0.6C95.3,398,95.2,398,95,398.2 M46.3,398.7c0,0.2-0.2,0.4-0.3,0.4s-0.4,0.1-0.5,0.3
		c-0.1,0.2,0,0.2,0.2,0.1c0.3-0.1,0.4-0.1,0.1,0.2c-0.5,0.6,0.1,0.5,0.8-0.1c0.5-0.4,0.6-0.7,0.5-0.9c-0.2-0.3-0.2-0.3-0.4,0
		c-0.2,0.3-0.2,0.3-0.3,0C46.3,398.4,46.3,398.4,46.3,398.7 M88.6,399c0,0.2,0.2,0.4,0.3,0.6c0.2,0.2,0.2,0.1,0.1,0
		c-0.1-0.1-0.2-0.4-0.1-0.6c0.1-0.2,0-0.3-0.1-0.3S88.5,398.8,88.6,399 M50.6,400.1c-0.1,0.2-0.3,0.3-0.6,0.3
		c-0.3,0-0.5,0.2-0.6,0.4c-0.1,0.2-0.2,0.4-0.3,0.4c-0.1,0-0.1,0.2,0.2,0.4c0.5,0.5,1.4-0.1,1.1-0.8c-0.1-0.2,0-0.3,0.1-0.3
		s0.2-0.2,0.2-0.3c0-0.2,0.1-0.3,0.2-0.3c0.2,0,0.2,0.4-0.1,0.9c-0.2,0.3-0.1,0.3,0.1,0.1c0.4-0.4,0.5-1.2,0.1-1.2
		C50.8,399.7,50.6,399.9,50.6,400.1 M90.7,400.2c0,0.2,0.1,0.5,0.2,0.6c0.1,0.1,0.2-0.1,0.2-0.4c0-0.3-0.1-0.6-0.2-0.6
		S90.7,399.9,90.7,400.2 M44.6,400.8c0.1,0.2,0,0.7-0.1,0.9c-0.2,0.4-0.2,0.5,0,0.7c0.2,0.2,0.3,0.2,0.3-0.1c0-0.2,0.2-0.6,0.5-0.8
		c0.3-0.2,0.4-0.4,0.4-0.5C44.5,400.4,44.4,400.4,44.6,400.8 M92.1,400.9c0.3,0.3,0.7,0.6,0.9,0.7c0.2,0.1,0.4,0.5,0.4,0.8
		c0.1,0.7,0.6,1.2,0.9,0.9c0.2-0.2,0.2-0.3,0-0.3c-0.1,0-0.4-0.3-0.5-0.7c-0.1-0.4-0.6-0.9-1-1.2c-0.4-0.3-0.7-0.6-0.6-0.7
		c0.1-0.1-0.1-0.2-0.3-0.2C91.6,400.4,91.6,400.5,92.1,400.9 M97,401.2c0,0.3,1,2.2,1.2,2.3c0.1,0.1,0.2,0.5,0.3,1
		c0.1,1.2,0.4,2.2,0.7,2.3c0.4,0.1,0.8-1,0.6-1.4c-0.2-0.4-0.2-0.4-0.2,0c0,0.2-0.1,0.3-0.2,0.3c-0.1-0.1-0.1-0.4,0-0.8
		c0.1-0.4,0.2-0.7,0.1-0.8c-0.1-0.1-0.1,0-0.1,0.2c0,0.2-0.1,0.4-0.2,0.4c-0.2,0-0.2-0.2-0.1-0.7c0.1-0.6,0.1-0.6-0.2-0.5
		c-0.3,0.1-0.4,0-0.3-0.3c0-0.3,0-0.4-0.2-0.4c-0.2,0-0.3-0.1-0.2-0.2c0.1-0.2,0.2-0.3,0.4-0.2c0.2,0.1,0.2,0,0-0.3
		c-0.2-0.3-0.4-0.3-0.6-0.1c-0.2,0.2-0.3,0.2-0.2,0c0.2-0.3,0-1-0.3-1C97.1,401.1,97,401.2,97,401.2 M48.5,401.9
		c0,0.2-0.1,0.3-0.2,0.3c-0.2,0-1,1.3-1.1,1.7c0,0.2,0.1,0.4,0.3,0.6c0.2,0.2,0.2,0.3,0.1,0.3c-0.1,0-0.3-0.1-0.4-0.3
		c-0.1-0.2-0.3,0-0.6,0.5c-0.4,0.8-0.4,1.1,0.1,1.1c0.3,0,0.3-0.1,0.1-0.4c-0.2-0.4-0.2-0.5,0.3-0.6c0.6-0.2,1.2-1,0.7-1
		c-0.2,0-0.1-0.1,0.1-0.3c0.4-0.3,0.4-0.3,0-0.3c-0.4,0-0.4,0,0-0.3c0.2-0.2,0.4-0.5,0.4-0.7c0-0.2,0.1-0.4,0.3-0.5
		c0.2-0.1,0.3,0,0.1,0.2c-0.1,0.2-0.1,0.2,0.1,0.1c0.4-0.2,0.3-0.3-0.2-0.6C48.6,401.6,48.5,401.6,48.5,401.9 M43.5,402.1
		c-0.3,0.3-0.2,0.8,0.1,0.6c0.2-0.1,0.2,0,0.1,0.2c-0.1,0.2-0.3,0.3-0.4,0.2c-0.2,0-0.2,0.1,0.1,0.3c0.4,0.4,0.4,0.4,0.7,0
		c0.4-0.5,0.2-1-0.2-1c-0.2,0-0.3-0.1-0.2-0.2C43.8,402,43.7,401.9,43.5,402.1 M43,404c0,0.2,0.1,0.5,0.1,0.5c0,0.1,0.1,0.2,0.2,0.2
		c0.3,0,0.3-0.8-0.1-1C43,403.6,43,403.7,43,404 M94.3,403.8c0,0.2,0.1,0.4,0.2,0.5c0.2,0.1,0.2,0.2,0,0.3c-0.4,0.3,0.1,1.3,0.7,1.3
		c0.3,0,0.4,0.1,0.3,0.3c-0.1,0.2-0.2,0.3-0.4,0.2c-0.2-0.1-0.2,0-0.1,0.2c0.1,0.2,0.1,0.4,0.1,0.5c0,0,0.2,0,0.4-0.1
		c0.3-0.1,0.3,0,0.2,0.5c-0.3,1-0.3,3.2-0.1,3.2c0.1,0,0.2,0.5,0.2,1.1l0,1.1l0.3-0.9c0.3-0.8,0.3-1,0-1.5c-0.2-0.4-0.2-0.6-0.1-0.6
		c0.2,0,0.2-0.1,0-0.3c-0.3-0.3-0.4-1.1,0-1.1c0.5,0,0.3-0.8-0.9-4C94.8,403.7,94.3,403.2,94.3,403.8 M42.7,405.3
		c0.1,0.6,0.6,0.6,0.6,0.1c0-0.3-0.1-0.5-0.4-0.5C42.8,404.9,42.7,405,42.7,405.3 M42.3,406.5c0.1,0.3,0.1,0.6,0.1,0.7
		c0,0.5,0.4,0,0.4-0.5c0-0.5-0.1-0.7-0.4-0.7C42.3,406,42.2,406.1,42.3,406.5 M46,406.9c-0.1,0.4,0,0.5,0.3,0.5
		c0.5,0,0.5-0.1,0.1-0.7C46.1,406.4,46.1,406.4,46,406.9 M99.4,407.5c-0.2,0.2-0.2,2.1,0.1,2.6c0.1,0.3,0.1,0.6-0.1,0.8
		c-0.3,0.3-0.3,0.3,0,0.5c0.2,0.1,0.3,0.3,0.2,0.4c-0.1,0.1,0,0.2,0.2,0.3c0.2,0.1,0.3-0.1,0.2-1c-0.2-2-0.2-2.9-0.1-3.3
		C100,407.5,99.6,407.2,99.4,407.5 M41.9,408c0.2,0.6,0.2,1.3,0,3.6c-0.1,1.4-0.1,1.5,0.3,1.5c0.3-0.1,0.4-0.3,0.5-1.8
		c0.1-3.2,0.1-3.7-0.5-3.8C41.8,407.5,41.7,407.6,41.9,408 M45.6,408.3c0,0.3,0.1,0.6,0.3,0.7c0.2,0.1,0.2,0.2-0.1,0.4
		c-0.2,0.2-0.2,0.2-0.1,0.2c0.2,0,0.3,0.1,0.3,0.3c0,0.2-0.1,0.4-0.3,0.4c-0.2,0.1-0.2,0.2,0.1,0.3c0.3,0.2,0.3,0.3,0.1,0.7
		c-0.3,0.5-0.4,1.8-0.1,2.2c0.2,0.2,0.2,0.1,0.2-0.6c0-0.5,0.1-1,0.2-1.1c0.3-0.2,0.3-3.3-0.1-3.7C45.7,407.6,45.6,407.7,45.6,408.3
		 M98.8,413.8c0,1.5,0,1.6,0.5,1.6c0.6,0,0.8-0.8,0.3-1.2c-0.2-0.2-0.4-0.9-0.4-1.6C99.2,411.5,98.9,412.5,98.8,413.8 M95,413.6
		c0,0.2,0.2,0.7,0.4,1.2c0.4,0.8,0.6,0.5,0.5-0.8C95.7,413.2,95,412.9,95,413.6 M42.5,414.2c0.1,1.2,0,2-0.2,1.7
		c-0.1-0.2-0.2-0.1-0.2,0.4c0,0.6,0.1,0.7,0.4,0.6c0.4-0.1,0.5,0.5,0.1,1.9c0,0.2,0.1,0.3,0.3,0.3c0.4,0,0.7-1.9,0.3-2.3
		c-0.2-0.2-0.3-0.9-0.3-1.7c0-0.8-0.1-1.4-0.2-1.4C42.5,413.6,42.5,413.9,42.5,414.2 M46.3,414.5c-0.5,0.6-0.4,2.1,0.1,1.6
		c0.2-0.2,0.3-0.5,0.2-0.5c-0.1,0-0.1-0.3,0.1-0.5C47,414.6,46.7,414.1,46.3,414.5 M98.7,415.7c-0.1,0.1-0.2,0.6-0.2,1
		s-0.1,0.8-0.2,0.8c-0.1-0.1-0.2,0.3-0.2,0.7c0,1,0.5,1.8,0.8,1.3c0.1-0.1,0-0.4-0.1-0.6c-0.4-0.4-0.4-1.3-0.1-1.5
		c0.1-0.1,0.3,0,0.5,0.3c0.2,0.3,0.2,0.3,0.2,0.1c-0.1-0.2,0-0.5,0.1-0.7c0.2-0.3,0.1-0.4-0.1-0.3c-0.2,0.1-0.3-0.1-0.4-0.6
		C98.9,415.9,98.8,415.6,98.7,415.7 M94.8,416.5c0,0.4,0.1,0.7,0.2,0.7c0.1,0,0.2,0.2,0.2,0.4c0,0.3,0,0.3,0.2,0.1
		c0.2-0.4,0.1-1.3-0.3-1.6C94.9,415.9,94.8,416,94.8,416.5 M46.5,417.9c-0.3,0.3-0.3,0.8-0.1,0.9c0.1,0.1,0.3-0.2,0.4-0.5
		C47.1,417.6,47,417.4,46.5,417.9 M94.4,418.5c0.1,0.6,0.4,1.2,0.6,1c0.3-0.2,0-1.4-0.4-1.4C94.4,418.1,94.4,418.2,94.4,418.5
		 M43.1,420c-0.4,0.7-0.4,0.7,0.1,0.7c0.4,0,0.4,0.1,0.3,0.7c-0.1,0.5-0.1,0.7,0.2,0.7c0.3,0,0.3-0.1,0.2-0.6
		c-0.1-0.3-0.2-1-0.3-1.4l-0.2-0.8L43.1,420 M46.7,419.9c0,0.3,0.1,0.7,0.2,0.8c0.2,0.3,0.2,0.2,0.2-0.3c0-0.4,0.1-0.6,0.3-0.5
		c0.2,0.1,0.2,0,0-0.2C47,419.3,46.7,419.3,46.7,419.9 M94,420.2c-0.1,0.3,0,0.5,0.1,0.4c0.1-0.1,0.3,0.1,0.4,0.3
		c0.2,0.3,0.2,0.3,0.2-0.3C94.7,419.7,94.2,419.4,94,420.2 M98,420.2c-0.1,0.3-0.1,0.5,0.2,0.7c0.2,0.1,0.3,0.3,0.2,0.4
		c-0.1,0.1,0,0.2,0.1,0.3c0.1,0.1,0.2,0,0.2-0.3c0-0.3-0.1-0.5-0.2-0.5c-0.1,0-0.2-0.2-0.3-0.5C98.2,419.8,98.1,419.8,98,420.2
		 M47.6,421c0.3,0.2,0.3,0.2,0,0.2c-0.2,0-0.4,0.2-0.5,0.4c-0.2,0.7,0.1,0.7,0.5,0.1c0.4-0.6,0.4-1-0.1-0.9
		C47.4,420.8,47.4,420.8,47.6,421 M93.7,421.6c0.2,1.4,0.8,1.8,0.7,0.5c0-0.4-0.1-0.6-0.1-0.5c-0.1,0.1-0.2,0-0.4-0.1
		C93.8,421.3,93.7,421.3,93.7,421.6 M97.6,422c-0.2,0.6-0.2,0.7,0.3,0.9c0.5,0.1,0.5,0,0.1-0.7C97.7,421.7,97.7,421.6,97.6,422
		 M47.7,422.5c-0.2,0.3-0.3,0.6-0.2,0.8c0.1,0.3,0.2,0.3,0.5-0.4C48.3,422.1,48.2,421.9,47.7,422.5 M43.8,423
		c-0.3,0.9-0.3,1,0.1,0.7c0.3-0.3,0.6-1.4,0.4-1.4C44.1,422.3,43.9,422.6,43.8,423 M93.3,423.1c-0.1,0.2,0,0.5,0.2,0.7
		c0.4,0.4,0.3,0.8-0.2,0.8c-0.4,0-0.6,0.6-0.2,0.8c0.2,0.1,0.3,0.3,0.2,0.5c-0.1,0.3-0.1,0.3,0.2,0.1c0.2-0.2,0.3-0.5,0.3-0.8
		c-0.1-0.3,0-0.6,0.1-0.6c0.4-0.2,0.2-1.3-0.1-1.1c-0.2,0.1-0.3,0-0.2-0.2c0.1-0.2,0.1-0.3,0-0.3C93.4,422.8,93.3,422.9,93.3,423.1
		 M97.2,423.7c0,0.3,0.2,0.6,0.4,0.8c0.4,0.4,0.4,0.4,0.2,0c-0.1-0.2-0.1-0.4,0.1-0.4c0.1,0,0.1-0.2-0.1-0.4
		C97.4,423.1,97.2,423.1,97.2,423.7 M46.8,423.9c0,0.2,0.1,0.4,0.2,0.4c0.1,0,0.2-0.2,0.2-0.4c0-0.2-0.1-0.4-0.2-0.4
		C46.9,423.4,46.8,423.6,46.8,423.9 M48.1,423.8c-0.3,0.1-0.4,1.1-0.1,1.3c0.1,0.1,0.2,0.4,0.1,0.7c-0.1,0.7,0.3,1,0.4,0.3
		c0.1-0.3,0.2-0.4,0.4-0.3c0.1,0.1,0.2,0,0.1-0.2c-0.1-0.2-0.3-0.3-0.4-0.3c-0.4,0-0.4-0.8,0-1c0.2-0.1,0.2-0.2,0.1-0.3
		C48.5,423.8,48.2,423.8,48.1,423.8 M44.2,424.3c0,0.2-0.1,0.5-0.2,0.6s-0.2,0.2-0.1,0.4c0.2,0.4,0.8-0.2,0.8-0.8
		c0-0.3-0.1-0.5-0.2-0.5C44.3,423.9,44.2,424.1,44.2,424.3 M96.9,424.7c-0.2,0.2-0.2,1.2,0.1,1.1c0.1-0.1,0.3,0,0.4,0.3
		c0.2,0.3,0.2,0.3,0.2-0.2C97.6,425.3,97.1,424.5,96.9,424.7 M44.5,425.7c-0.4,0.9-0.2,2.3,0.4,2.1c0.2-0.1,0.4,0,0.5,0.1
		c0.2,0.4,0.3-0.3,0.1-0.8c-0.2-0.5-0.5-0.5-0.5,0c0,0.2-0.1,0.3-0.2,0.2c-0.4-0.2-0.3-0.8,0.1-0.8c0.3,0,0.3-0.1,0.3-0.6
		c-0.1-0.3,0-0.6,0.1-0.6c0.1,0,0.1-0.1,0.1-0.2C45,424.8,44.8,425,44.5,425.7 M92.7,426c-0.1,0.1,0,0.4,0.1,0.8
		c0.3,1,0.3,1.1-0.1,0.8c-0.3-0.3-0.3-0.2-0.2,0.4c0.3,1.1,0.4,1.1,0.6,0.3c0.4-1.5,0.4-2,0-2c-0.2,0-0.3-0.1-0.2-0.2
		C93,425.9,92.9,425.8,92.7,426 M96.4,426.4c-0.1,0.2,0,0.6,0.1,0.8c0.2,0.4,0.2,0.4,0.4,0c0.1-0.2,0-0.6-0.1-0.8
		C96.6,426,96.5,426,96.4,426.4 M48.8,426.7c-0.3,0.1-0.4,1.1,0,1.3c0.1,0.1,0.2,0.4,0.1,0.7c-0.1,0.7,0.2,0.9,0.4,0.3
		c0.1-0.2,0.2-0.4,0.3-0.3c0.1,0.1,0.1-0.1,0.1-0.3c-0.1-0.3-0.2-0.4-0.4-0.3c-0.4,0.1-0.4-0.1-0.1-0.9
		C49.4,426.6,49.3,426.5,48.8,426.7 M96.1,428.5c0,0.3,0.1,0.5,0.1,0.4c0.1-0.1,0.3,0,0.4,0.1c0.4,0.3,0.4-0.5,0-0.9
		C96.3,427.7,96.1,427.9,96.1,428.5 M45.3,428.8c-0.4,0.5-0.5,0.8-0.1,1c0.1,0.1,0.2,0,0.1-0.2c-0.1-0.3,0-0.3,0.2-0.2
		c0.3,0.1,0.4,0,0.4-0.4C45.8,428.2,45.8,428.2,45.3,428.8 M92.1,429.6c0.1,0.2,0.1,0.5,0.1,0.7c0,0.2,0.1,0.3,0.2,0.2
		c0.3-0.2,0.2-1.2-0.1-1.2C92.1,429.2,92.1,429.4,92.1,429.6 M95.7,429.9c-0.2,0.6-0.1,0.7,0.4,0.4c0.3-0.2,0.3-0.3,0.1-0.6
		C95.9,429.5,95.8,429.6,95.7,429.9 M45.7,430.1c-0.1,0.2-0.2,0.5-0.3,0.7c-0.1,0.2,0,0.3,0.3,0c0.3-0.1,0.5-0.5,0.5-0.7
		C46.2,429.6,45.9,429.6,45.7,430.1 M49.2,430c-0.1,0.2,0,0.5,0.1,0.8c0.1,0.2,0.2,0.7,0.2,0.9s0.1,0.5,0.2,0.5
		c0.2,0,0.3-0.2,0.2-0.6c0-0.1,0.1-0.2,0.3-0.3c0.2-0.1,0.2-0.2-0.2-0.2c-0.4,0-0.5-0.1-0.5-0.5c0-0.2,0.1-0.4,0.2-0.4
		s0.2-0.1,0.2-0.2C50,429.6,49.4,429.6,49.2,430 M91.6,431c-0.2,0.3-0.2,0.3,0,0.2c0.2-0.1,0.3,0,0.3,0.4c0,0.3,0.1,0.5,0.2,0.4
		c0.3-0.2,0.3-1.2,0-1.3C92,430.6,91.7,430.8,91.6,431 M95.4,431.5c0,0.4,0.1,0.7,0.3,0.8c0.5,0.2,0.6-0.5,0.1-1l-0.5-0.5V431.5
		 M46,431.6c-0.5,0.4-0.5,0.5,0,0.6c0.3,0.1,0.4,0,0.4-0.4C46.5,431.2,46.5,431.2,46,431.6 M91.2,432.4c0.1,0.7,0.4,1.3,0.6,1.2
		c0.3-0.2,0-1.2-0.3-1.3C91.3,432.2,91.2,432.3,91.2,432.4 M49.8,433.1c0,0.7,0.1,0.8,0.5,0.3c0.5-0.5,0.4-0.7-0.1-0.8
		C49.9,432.4,49.8,432.5,49.8,433.1 M95.1,432.6c-0.2,0.4,0.1,0.9,0.3,0.7c0.1-0.1,0.2,0.1,0.3,0.3c0.1,0.2,0.1,0.1,0.2-0.3
		c0.1-0.4,0-0.7-0.1-0.6c-0.1,0.1-0.3,0-0.4-0.2C95.2,432.3,95.2,432.3,95.1,432.6 M46.3,433.3c-0.1,0.4-0.2,0.8-0.2,0.8
		c0.1,0.1,0.1,0,0.1-0.2c0-0.1,0.2-0.3,0.3-0.3c0.4,0,0.4-0.4,0.2-0.8C46.6,432.7,46.5,432.8,46.3,433.3 M50.5,434
		c-0.3,0.3-0.3,0.8-0.1,0.9c0.1,0.1,0.3-0.1,0.4-0.4C51.2,433.9,50.9,433.6,50.5,434 M90.9,433.9c-0.1,0.1,0.4,1.2,0.6,1.2
		c0.3,0,0.2-1.1-0.1-1.2C91.1,433.8,90.9,433.8,90.9,433.9 M94.7,434.3c0,0.2,0.2,0.6,0.4,0.8c0.3,0.2,0.4,0.3,0.4,0.1
		c0-0.1-0.1-0.3-0.2-0.3c-0.1,0-0.1-0.2,0.1-0.4c0.2-0.2,0.4-0.4,0.4-0.5s-0.1-0.1-0.1,0c-0.1,0.1-0.3,0-0.6-0.1
		C94.8,434,94.7,434,94.7,434.3 M46.9,434.3c0,0.1-0.1,0.4-0.3,0.6c-0.2,0.2-0.2,0.4-0.1,0.6c0.2,0.3,0.2,0.3,0.2,0
		c0-0.2,0.1-0.3,0.3-0.2c0.2,0.1,0.3,0,0.2-0.4C47.2,434.3,46.9,433.9,46.9,434.3 M51.2,435.1c0,0.2-0.1,0.3-0.4,0.3
		c-0.4-0.2-0.4-0.1-0.1,1.1c0.5,1.7,0.4,1.6,0.8,1c0.4-0.7,0.4-1,0.1-0.8c-0.4,0.3-0.6-0.1-0.4-0.8c0.1-0.4,0.2-0.8,0.1-0.9
		C51.2,434.8,51.2,434.9,51.2,435.1 M90.4,435.5c-0.1,0.2,0,0.4,0.1,0.3c0.1-0.1,0.2,0.1,0.2,0.3s-0.2,0.5-0.4,0.6
		c-0.3,0.2-0.3,0.3-0.1,0.7c0.3,0.5,0.9-0.5,0.9-1.7C91.2,435.2,90.6,434.9,90.4,435.5 M94.5,435.5c-0.1,0.6,0,0.9,0.4,1.3
		c0.3,0.3,0.3,0.3,0.2-0.2c-0.1-0.3,0-0.6,0.1-0.7c0.1-0.1,0.1-0.1-0.1-0.1c-0.2,0-0.4-0.1-0.5-0.3
		C94.6,435.2,94.5,435.3,94.5,435.5 M47.1,436c-0.6,0.5-0.6,1.1,0,0.8c0.3-0.1,0.5-0.4,0.5-0.7C47.6,435.7,47.6,435.7,47.1,436
		 M93.8,437.2c0,0.5,0.4,1.2,0.4,0.8c0-0.2,0.1-0.2,0.2-0.2c0.1,0.1,0.1-0.1-0.1-0.4C94.1,436.8,93.8,436.7,93.8,437.2 M47.4,437.6
		c-0.2,0.3-0.2,0.6-0.2,0.7c0.1,0.1,0.2,0,0.2-0.1c0-0.1,0.1-0.3,0.3-0.3c0.2,0,0.3-0.2,0.3-0.4C48,436.9,47.7,437,47.4,437.6
		 M51.6,438.2c-0.3,0.3-0.4,1.1-0.1,1.1c0.3,0,0.7-1.1,0.5-1.2C52,438,51.8,438.1,51.6,438.2 M89.8,438.4c0,0.2,0.2,0.5,0.3,0.7
		c0.3,0.2,0.3,0.2,0.3-0.3c0-0.3-0.2-0.6-0.3-0.7C89.9,438,89.8,438.1,89.8,438.4 M48,438.7c-0.1,0.2-0.1,0.5,0,0.5
		c0.2,0.2,0.4-0.1,0.3-0.6C48.1,438.3,48.1,438.3,48,438.7 M93.4,438.6c0,0.3,0.6,1.1,0.7,0.9c0.2-0.2-0.3-1.1-0.5-1.1
		C93.5,438.4,93.4,438.5,93.4,438.6 M89.4,439.6c0,0,0.1,0.4,0.3,0.7L90,441l0-0.7c0-0.5-0.1-0.7-0.3-0.7
		C89.5,439.5,89.4,439.6,89.4,439.6 M51.8,440.1c0,0.3,0.1,0.3,0.3,0.1c0.2-0.2,0.3-0.3,0.3-0.4c0,0-0.2-0.1-0.3-0.1
		C52,439.7,51.8,439.9,51.8,440.1 M93.3,440c-0.1,0.2,0,0.5,0.2,0.8c0.2,0.2,0.3,0.3,0.2,0.1c-0.1-0.2-0.1-0.3,0.1-0.3
		c0.2,0,0.2-0.1,0.1-0.2c-0.1-0.1-0.3-0.3-0.4-0.5C93.5,439.7,93.4,439.7,93.3,440 M48.2,440.2c-0.1,0.2,0.1,0.4,0.2,0.6
		c0.3,0.3,0.3,0.4,0,0.6c-0.3,0.2,0.1,0.8,0.6,0.8c0.3,0,0.3-1.1,0-1.2c-0.2-0.1-0.3-0.3-0.3-0.6C48.7,439.9,48.3,439.8,48.2,440.2
		 M52.1,441.5c0.1,0.4,0.2,0.9,0.2,1.1c0,0.7,0.6,0.6,0.8-0.1c0.2-0.7,0-1.1-0.6-1.5C52,440.8,52,440.8,52.1,441.5 M89.2,441.5
		c0.1,0.3,0,0.8-0.1,1c-0.2,0.3-0.2,0.2-0.2-0.3l0-0.7l-0.2,0.7c-0.1,0.4-0.1,0.7,0.1,0.8c0.2,0.1,0.2,0.3,0.1,0.6s-0.1,0.3,0,0.2
		c0.4-0.4,0.7-2.6,0.4-2.7C89.2,440.9,89.1,441,89.2,441.5 M52.9,441.9c0,0.2-0.1,0.3-0.2,0.3c-0.1,0-0.2-0.2-0.2-0.5
		c0-0.3,0.1-0.4,0.2-0.3C52.8,441.5,52.9,441.7,52.9,441.9 M92.8,441.6c-0.1,0.2,0,0.5,0.2,0.6c0.4,0.2,0.6-0.4,0.2-0.7
		C93,441.3,92.9,441.4,92.8,441.6 M92.5,442.8c0,0.3,0.2,0.6,0.4,0.8c0.4,0.3,0.4,0.3,0.4,0c0-0.2-0.2-0.6-0.4-0.8
		C92.5,442.3,92.5,442.3,92.5,442.8 M48.9,442.9c0,0.2,0,0.4,0,0.4c0,0.1-0.1,0.2-0.2,0.2s-0.2,0.1-0.1,0.2c0.1,0.1,0.3,0.1,0.5-0.2
		c0.4-0.5,0.4-1,0.1-1C49,442.7,48.9,442.8,48.9,442.9 M52.9,443.7c-0.2,0.2-0.2,0.5-0.1,0.7c0.1,0.3,0.2,0.3,0.5-0.2
		C53.8,443.3,53.6,442.9,52.9,443.7 M88.6,444c0.1,0.3,0,0.7-0.2,0.9c-0.2,0.2-0.2,0.5-0.1,0.8c0.2,0.6,0.5,0.6,0.4,0
		c0-0.3,0-0.7,0.1-0.9c0.1-0.2,0.1-0.6-0.1-0.9C88.5,443.5,88.5,443.5,88.6,444 M92.3,443.8c0,0.2-0.1,0.5-0.1,0.7
		c0,0.2,0.1,0.4,0.3,0.5c0.4,0.1,0.4-0.1,0-1C92.4,443.7,92.3,443.6,92.3,443.8 M49.2,444.3c-0.1,0.3-0.1,0.5,0.1,0.6
		c0.1,0,0.3,0.2,0.3,0.4c0,0.2-0.1,0.3-0.3,0.2c-0.3-0.1-0.3,0-0.1,0.3c0.1,0.3,0.4,0.4,0.6,0.3c0.4-0.1,0.5-0.9,0.1-1.1
		c-0.1-0.1-0.2-0.3-0.1-0.5C49.9,443.9,49.4,443.7,49.2,444.3 M53.3,444.8c-0.2,0.2-0.2,1,0,1c0.1,0,0.3-0.1,0.3-0.3
		C53.8,445.1,53.5,444.6,53.3,444.8 M53.8,445.9c-0.3,0.1-0.4,0.2-0.3,0.4c0.1,0.2,0.1,0.4,0.1,0.6c0,0.4,0.4,0,0.5-0.6
		c0.1-0.3,0.1-0.6,0.1-0.5C54.2,445.8,54,445.9,53.8,445.9 M87.7,446.3c0.3,0.7,0.3,1.1,0,1.1c-0.2,0-0.2,0.1-0.2,0.4
		c0.1,0.7,0.3,0.8,0.5,0.1c0.1-0.3,0.2-0.6,0.3-0.6c0.3,0,0.2-0.4-0.3-0.9C87.6,446,87.5,446,87.7,446.3 M50,446.6
		c0,0.3-0.1,0.6-0.3,0.8c-0.2,0.2-0.2,0.3,0.2,0c0.6-0.3,0.6-0.4,0.3-0.9C50.1,446.2,50,446.2,50,446.6 M54.1,447.3
		c-0.2,0.1-0.3,0.3-0.1,0.6c0.1,0.3,0.2,0.3,0.3,0.1c0.1-0.4,0.5-0.3,0.5,0.1c0,0.2-0.1,0.3-0.2,0.3c-0.2,0-0.2,0.6,0.1,1.1
		c0.1,0.2,0.1,0.4,0,0.5c-0.2,0.3,0.2,0.3,0.5,0c0.4-0.4,0.4-1-0.1-0.6c-0.3,0.3-0.3,0.2-0.2-0.6c0.1-0.7,0.1-1-0.2-1.1
		c-0.2-0.1-0.3-0.2-0.2-0.3C54.6,447.1,54.5,447.1,54.1,447.3 M50.4,447.6c-0.1,0.2-0.3,0.3-0.4,0.3c-0.2-0.1-0.2,0-0.2,0.3
		c0.1,0.2,0.2,0.4,0.3,0.4c0.1,0,0.2-0.1,0.1-0.2c-0.1-0.1,0.1-0.1,0.3-0.1c0.5,0.1,0.6-0.3,0.2-0.8
		C50.5,447.3,50.5,447.3,50.4,447.6 M91.2,447.9c0,0.2,0.6,1,0.8,1c0.1,0,0.1-0.2,0.1-0.4c0-0.2-0.1-0.3-0.1-0.2
		c-0.1,0.1-0.3,0-0.4-0.2C91.3,447.9,91.2,447.8,91.2,447.9 M87,448.7c0.2,0.7,0.5,1,0.5,0.5c0-0.2-0.1-0.5-0.3-0.7
		C86.9,448.2,86.9,448.2,87,448.7 M50.7,449.1c-0.2,0.4-0.3,0.7-0.2,1c0.2,0.4,0.2,0.4,0.2,0c0-0.3,0.1-0.5,0.3-0.6
		c0.1,0,0.2-0.3,0.2-0.5C51.1,448.6,51,448.6,50.7,449.1 M90.7,449.4c0,0.2,0,0.4,0.1,0.4c0.3,0,0.8-0.3,0.8-0.5
		c0-0.1-0.1-0.1-0.2-0.1c-0.1,0.1-0.2,0-0.2-0.1c0-0.1-0.1-0.2-0.2-0.2S90.7,449.1,90.7,449.4 M51.1,450.2c-0.2,0.5-0.2,0.5,0.2,0.5
		c0.2,0,0.3-0.1,0.3-0.3C51.6,449.9,51.2,449.7,51.1,450.2 M55.2,450.8c-0.3,0.7-0.3,0.8-0.1,0.8c0.3,0,0.7-0.8,0.5-1.1
		C55.5,450.2,55.4,450.3,55.2,450.8 M51.2,451.6c-0.2,0.3-0.2,0.5-0.2,0.6c0.1,0.1,0.1,0,0.1-0.1s0.2-0.3,0.3-0.3
		c0.2,0,0.3-0.1,0.3-0.3C51.8,451,51.5,451.1,51.2,451.6 M55.7,451.4c-0.4,0.4-0.4,1.2,0,0.9c0.2-0.1,0.4-0.2,0.5-0.1
		c0.1,0.1,0.1,0-0.1-0.3c-0.1-0.3-0.2-0.5-0.1-0.6s0.1-0.1,0-0.1C56,451.1,55.8,451.3,55.7,451.4 M85.8,451.8c0,0.4,0.3,0.9,0.5,0.9
		c0.3,0,0.2-0.6-0.1-0.9C85.9,451.6,85.8,451.6,85.8,451.8 M51.4,452.4c0,0,0.2,0.3,0.5,0.5c0.5,0.4,0.5,0.4,0.1,0.6
		c-0.5,0.2-0.3,0.6,0.3,0.6c0.3,0,0.4,0.1,0.3,0.3c-0.1,0.2-0.2,0.3-0.4,0.2c-0.1-0.1-0.1,0.1,0.1,0.3s0.3,0.5,0.3,0.6
		s0,0.1,0.3,0.1c0.4-0.1,0.7-1,0.3-1c-0.2,0-1-1.6-0.9-1.9c0-0.1-0.2-0.3-0.4-0.2C51.6,452.3,51.4,452.4,51.4,452.4 M56,452.9
		c-0.3,0.2-0.3,0.3-0.1,0.8c0.3,0.6,0.6,0.7,0.6,0.3c0-0.1,0.1-0.2,0.3-0.1c0.2,0.1,0.2,0.1,0.1,0c-0.1-0.1-0.3-0.2-0.4-0.2
		c-0.1,0-0.3,0-0.3-0.1c-0.1,0,0-0.2,0.1-0.5C56.6,452.6,56.6,452.6,56,452.9 M85.6,453.3c0,0.2,0.1,0.4,0.3,0.4
		c0.2,0.1,0.2,0,0.2-0.3C85.9,452.9,85.6,452.8,85.6,453.3 M89.2,453.9c0,0.2,0.1,0.3,0.3,0.3s0.3-0.1,0.3-0.3
		c0-0.2-0.1-0.3-0.3-0.3S89.2,453.8,89.2,453.9 M85.3,454.3c0,0.1,0.1,0.2,0.2,0.2c0.1,0,0.2,0.1,0.1,0.3c-0.1,0.2-0.1,0.2,0.1,0.1
		c0.4-0.2,0.3-0.8-0.1-0.8C85.5,454,85.3,454.1,85.3,454.3 M88.9,455.2c0.1,0.4,0,0.4-0.4,0.2c-0.3-0.2-0.5-0.2-0.5,0
		c0,0.1,0.2,0.3,0.3,0.4c0.2,0.1,0.3,0.3,0.3,0.5c0,0.2,0.1,0.2,0.2-0.2c0.1-0.3,0.4-0.6,0.5-0.7c0.5-0.3,0.4-0.6-0.2-0.5
		C88.9,454.8,88.8,454.9,88.9,455.2"/>
	<path id="path4" class="st4" d="M89.8,310.1c0.4,0.1,1.1,0.1,1.6,0s0.1-0.1-0.7-0.1C89.7,310,89.4,310,89.8,310.1 M110.8,310.1
		c0.5,0,1.3,0,1.8,0c0.5,0,0-0.1-1-0.1C110.6,310,110.2,310,110.8,310.1 M88,320.1c0.3,0.1,0.7,0.1,1,0c0.3-0.1,0.1-0.1-0.5-0.1
		C87.9,320,87.7,320.1,88,320.1 M114.1,320.1c0.3,0.1,0.7,0.1,1,0c0.3-0.1,0.1-0.1-0.5-0.1C114.1,320,113.8,320.1,114.1,320.1
		 M20.7,343.5c0.1,0.1,0.6,0.1,1.2,0.1l1-0.1l-1.2-0.1C21.1,343.4,20.6,343.4,20.7,343.5 M-8,343.6c0.3,0.1,0.9,0.1,1.2,0
		c0.3-0.1,0.1-0.1-0.6-0.1S-8.3,343.5-8,343.6 M182.2,343.6c0.3,0.1,0.8,0,1.1,0c0.3-0.1,0-0.1-0.6-0.1
		C182,343.5,181.8,343.5,182.2,343.6 M210.7,343.6c0.3,0.1,0.7,0.1,1,0c0.3-0.1,0.1-0.1-0.5-0.1S210.4,343.5,210.7,343.6 M-7,353.6
		c0.3,0.1,0.7,0.1,1,0c0.3-0.1,0.1-0.1-0.5-0.1S-7.3,353.6-7,353.6 M20.8,353.6c0.3,0.1,0.9,0.1,1.2,0c0.3-0.1,0.1-0.1-0.6-0.1
		C20.8,353.6,20.5,353.6,20.8,353.6 M182.5,353.6c0.3,0.1,0.7,0.1,1,0c0.3-0.1,0.1-0.1-0.5-0.1S182.2,353.6,182.5,353.6
		 M210.1,353.6c0.3,0.1,0.8,0.1,1.1,0c0.3-0.1,0-0.1-0.6-0.1C210,353.6,209.8,353.6,210.1,353.6 M-65.9,399.5c0,0.8,0,1.1,0.1,0.7
		c0.1-0.4,0.1-1.1,0-1.5C-65.8,398.4-65.9,398.7-65.9,399.5 M-65.9,418.1c0,0.8,0,1.1,0.1,0.7c0.1-0.4,0.1-1.1,0-1.5
		C-65.8,416.9-65.9,417.3-65.9,418.1 M84.9,454.6c0,0.5,0.7,1,1.4,1c0.4,0,1,0.2,1.4,0.6c0.8,0.6,1.1,0.7,1.7,0.3
		c0.3-0.2,0.2-0.2-0.1-0.1c-0.3,0.1-0.5,0-0.6-0.1c-0.2-0.3-1.4-0.9-2.3-1.1c-0.4-0.1-0.9-0.3-1.1-0.5
		C85,454.5,84.9,454.5,84.9,454.6 M56.7,454.9c-0.1,0.1-0.5,0.3-1.1,0.4c-0.5,0.1-1.2,0.3-1.5,0.6c-0.3,0.2-0.7,0.4-1,0.4
		c-0.2,0-0.4,0.1-0.4,0.2c0,0.4,1,0.1,1.7-0.4c0.3-0.3,0.9-0.5,1.2-0.5c0.6,0,1.6-0.5,1.3-0.8C56.9,454.8,56.7,454.8,56.7,454.9
		 M-96.5,465.2c0,0.6,0,0.8,0.1,0.5c0.1-0.3,0.1-0.7,0-1C-96.4,464.4-96.5,464.7-96.5,465.2 M302.4,485.6c0,0.4,0,0.6,0.1,0.4
		c0.1-0.2,0.1-0.6,0-0.8C302.4,484.9,302.4,485.1,302.4,485.6 M-96.5,487.7c0,0.6,0,0.8,0.1,0.5c0.1-0.3,0-0.8,0-1.1
		C-96.4,486.8-96.5,487.1-96.5,487.7 M-50,522.3c0.5,0.2,1.9,0.2,1.8,0.1c-0.1-0.1-0.5-0.2-1-0.2S-50.1,522.3-50,522.3 M-50.3,532.3
		c0,0,0.3,0.1,0.8,0.2c0.4,0,0.7,0,0.7-0.1C-49,532.3-50.3,532.2-50.3,532.3"/>
</g>
</svg>
