<svg xmlns="http://www.w3.org/2000/svg" height="512pt" version="1.1" viewBox="0 0 512 512" width="512pt">
<g id="surface1">
<path d="M 512 256 C 512 397.386719 397.386719 512 256 512 C 114.613281 512 0 397.386719 0 256 C 0 114.613281 114.613281 0 256 0 C 397.386719 0 512 114.613281 512 256 Z M 512 256 " style=" stroke:none;fill-rule:nonzero;fill:rgb(25.490196%,28.627451%,32.156863%);fill-opacity:1;" />
<path d="M 411.210938 459.578125 C 472.464844 412.804688 512 339.023438 512 256 C 512 254.554688 511.96875 253.113281 511.945312 251.675781 L 340.359375 78.109375 L 165.347656 189.09375 L 178.125 201.25 L 177.019531 201.628906 L 225.976562 252.796875 L 205.0625 251.269531 Z M 411.210938 459.578125 " style=" stroke:none;fill-rule:nonzero;fill:rgb(20%,22.352941%,25.098039%);fill-opacity:1;" />
<path d="M 297.648438 291.355469 C 289.628906 288.433594 284.285156 280.804688 284.285156 272.265625 L 284.285156 253.425781 L 227.714844 253.425781 L 227.714844 272.265625 C 227.714844 280.804688 222.371094 288.433594 214.351562 291.355469 L 159.949219 311.167969 L 352.050781 311.167969 Z M 297.648438 291.355469 " style=" stroke:none;fill-rule:nonzero;fill:rgb(3.529412%,80.784314%,40.392157%);fill-opacity:1;" />
<path d="M 297.648438 291.355469 C 289.625 288.433594 284.285156 280.804688 284.285156 272.265625 L 284.285156 253.425781 L 255.683594 253.425781 L 255.683594 311.167969 L 352.050781 311.167969 Z M 297.648438 291.355469 " style=" stroke:none;fill-rule:nonzero;fill:rgb(10.196078%,67.843137%,36.078431%);fill-opacity:1;" />
<path d="M 208.6875 174.007812 C 208.6875 187.425781 197.808594 198.304688 184.390625 198.304688 C 170.972656 198.304688 160.09375 187.425781 160.09375 174.007812 C 160.09375 160.585938 170.972656 149.707031 184.390625 149.707031 C 197.808594 149.707031 208.6875 160.585938 208.6875 174.007812 Z M 208.6875 174.007812 " style=" stroke:none;fill-rule:nonzero;fill:rgb(100%,74.509804%,66.666667%);fill-opacity:1;" />
<path d="M 351.90625 174.007812 C 351.90625 187.425781 341.027344 198.304688 327.609375 198.304688 C 314.191406 198.304688 303.3125 187.425781 303.3125 174.007812 C 303.3125 160.585938 314.191406 149.707031 327.609375 149.707031 C 341.027344 149.707031 351.90625 160.585938 351.90625 174.007812 Z M 351.90625 174.007812 " style=" stroke:none;fill-rule:nonzero;fill:rgb(100%,74.509804%,66.666667%);fill-opacity:1;" />
<path d="M 288.351562 264.972656 L 272.125 273.304688 C 262.003906 278.507812 249.996094 278.507812 239.875 273.304688 L 223.648438 264.972656 C 199.605469 252.621094 184.484375 227.859375 184.484375 200.828125 L 184.484375 137.585938 C 184.484375 98.089844 216.503906 66.070312 256 66.070312 C 295.492188 66.070312 327.511719 98.089844 327.511719 137.585938 L 327.511719 200.828125 C 327.511719 227.859375 312.394531 252.621094 288.351562 264.972656 Z M 288.351562 264.972656 " style=" stroke:none;fill-rule:nonzero;fill:rgb(100%,80.392157%,74.509804%);fill-opacity:1;" />
<path d="M 256 66.070312 C 255.894531 66.070312 255.789062 66.074219 255.683594 66.074219 L 255.683594 277.195312 C 261.320312 277.246094 266.96875 275.957031 272.125 273.308594 L 288.351562 264.972656 C 312.394531 252.621094 327.515625 227.859375 327.515625 200.828125 L 327.515625 137.585938 C 327.511719 98.089844 295.496094 66.070312 256 66.070312 Z M 256 66.070312 " style=" stroke:none;fill-rule:nonzero;fill:rgb(100%,74.509804%,66.666667%);fill-opacity:1;" />
<path d="M 320.289062 137.707031 L 334.980469 137.707031 L 334.980469 201.628906 L 320.289062 201.628906 Z M 320.289062 137.707031 " style=" stroke:none;fill-rule:nonzero;fill:rgb(89.803922%,34.117647%,6.27451%);fill-opacity:1;" />
<path d="M 243.144531 162.566406 L 205.425781 162.566406 C 182.230469 162.566406 163.425781 143.761719 163.425781 120.5625 C 163.425781 85.867188 191.550781 57.742188 226.242188 57.742188 L 277.796875 57.742188 C 281.855469 57.742188 285.144531 61.03125 285.144531 65.089844 L 285.144531 120.5625 C 285.144531 143.761719 266.339844 162.566406 243.144531 162.566406 Z M 243.144531 162.566406 " style=" stroke:none;fill-rule:nonzero;fill:rgb(99.607843%,41.568627%,8.627451%);fill-opacity:1;" />
<path d="M 277.796875 57.746094 L 255.683594 57.746094 L 255.683594 160.660156 C 272.753906 155.324219 285.144531 139.390625 285.144531 120.5625 L 285.144531 65.09375 C 285.144531 61.035156 281.855469 57.746094 277.796875 57.746094 Z M 277.796875 57.746094 " style=" stroke:none;fill-rule:nonzero;fill:rgb(89.803922%,34.117647%,6.27451%);fill-opacity:1;" />
<path d="M 317.296875 162.566406 C 298.457031 162.566406 283.183594 147.292969 283.183594 128.453125 L 283.183594 65.949219 C 283.183594 61.417969 286.859375 57.746094 291.390625 57.746094 L 298.804688 57.746094 C 327.855469 57.746094 351.40625 81.296875 351.40625 110.347656 L 351.40625 128.457031 C 351.40625 147.292969 336.132812 162.566406 317.296875 162.566406 Z M 317.296875 162.566406 " style=" stroke:none;fill-rule:nonzero;fill:rgb(89.803922%,34.117647%,6.27451%);fill-opacity:1;" />
<path d="M 177.019531 137.707031 L 191.710938 137.707031 L 191.710938 201.628906 L 177.019531 201.628906 Z M 177.019531 137.707031 " style=" stroke:none;fill-rule:nonzero;fill:rgb(99.607843%,41.568627%,8.627451%);fill-opacity:1;" />
<path d="M 390.835938 304.613281 L 121.164062 304.613281 C 109.933594 304.613281 100.832031 313.714844 100.832031 324.945312 L 100.832031 459.609375 C 143.882812 492.46875 197.65625 512 256 512 C 314.34375 512 368.117188 492.46875 411.167969 459.609375 L 411.167969 324.945312 C 411.167969 313.714844 402.066406 304.613281 390.835938 304.613281 Z M 390.835938 304.613281 " style=" stroke:none;fill-rule:nonzero;fill:rgb(90.196078%,90.196078%,90.196078%);fill-opacity:1;" />
<path d="M 390.835938 304.613281 L 255.761719 304.613281 L 255.761719 511.996094 C 255.84375 511.996094 255.921875 512 256 512 C 314.34375 512 368.117188 492.46875 411.167969 459.609375 L 411.167969 324.945312 C 411.167969 313.714844 402.066406 304.613281 390.835938 304.613281 Z M 390.835938 304.613281 " style=" stroke:none;fill-rule:nonzero;fill:rgb(84.313725%,84.313725%,84.313725%);fill-opacity:1;" />
<path d="M 286 394 C 286 410.570312 272.570312 424 256 424 C 239.429688 424 226 410.570312 226 394 C 226 377.429688 239.429688 364 256 364 C 272.570312 364 286 377.429688 286 394 Z M 286 394 " style=" stroke:none;fill-rule:nonzero;fill:rgb(84.313725%,84.313725%,84.313725%);fill-opacity:1;" />
<path d="M 256 364 C 255.921875 364 255.84375 364.003906 255.761719 364.007812 L 255.761719 423.992188 C 255.84375 423.992188 255.921875 424 256 424 C 272.570312 424 286 410.566406 286 394 C 286 377.433594 272.570312 364 256 364 Z M 256 364 " style=" stroke:none;fill-rule:nonzero;fill:rgb(80.392157%,80.392157%,80.392157%);fill-opacity:1;" />
</g>
</svg>