<?xml version="1.0" encoding="iso-8859-1"?>
<!-- Generator: Adobe Illustrator 19.0.0, SVG Export Plug-In . SVG Version: 6.00 Build 0)  -->
<svg version="1.1" id="Layer_1" xmlns="http://www.w3.org/2000/svg" xmlns:xlink="http://www.w3.org/1999/xlink" x="0px" y="0px"
	 viewBox="0 0 512 512" style="enable-background:new 0 0 512 512;" xml:space="preserve">
<circle style="fill:#FF8C8A;" cx="256" cy="256" r="256"/>
<path style="fill:#FA7876;" d="M389.4,147.1L166.2,421.4l91.7,90.6c136.4-1,247.5-108.7,253.8-243.8L389.4,147.1z"/>
<path style="fill:#FAD55C;" d="M258.4,171.7H132.5l21,221.3c2.5,26.3,15.6,36.3,43.4,36.3h61.5h61.5c27.8,0,40.9-10,43.4-36.3
	l20.9-221.3H258.4z"/>
<g>
	<polygon style="fill:#E3C04D;" points="132.5,171.7 258.4,171.7 384.2,171.7 383.3,181.3 133.4,181.3 	"/>
	<path style="fill:#E3C04D;" d="M258.4,202.6L258.4,202.6c5.5,0,10,4.5,10,10V372c0,5.5-4.5,10-10,10l0,0c-5.5,0-10-4.5-10-10V212.7
		C248.3,207.1,252.8,202.6,258.4,202.6z M166.8,202.6L166.8,202.6c5.5,0,10.4,4.5,10.8,10L190.4,372c0.4,5.5-3.7,10-9.2,10l0,0
		c-5.5,0-10.4-4.5-10.8-10l-12.8-159.4C157.1,207.1,161.3,202.6,166.8,202.6z M212.3,202.6L212.3,202.6c5.5,0,10.2,4.5,10.5,10
		l7,159.4c0.2,5.5-4,10-9.6,10l0,0c-5.5,0-10.2-4.5-10.5-10l-7-159.4C202.5,207.1,206.8,202.6,212.3,202.6z M349.9,202.6
		L349.9,202.6c-5.5,0-10.4,4.5-10.8,10L326.3,372c-0.4,5.5,3.7,10,9.2,10l0,0c5.5,0,10.4-4.5,10.8-10l12.8-159.4
		C359.6,207.1,355.4,202.6,349.9,202.6z M304.4,202.6L304.4,202.6c-5.5,0-10.2,4.5-10.5,10l-7,159.4c-0.2,5.5,4,10,9.6,10l0,0
		c5.5,0,10.2-4.5,10.5-10l7-159.4C314.2,207.1,309.9,202.6,304.4,202.6z"/>
	<path style="fill:#E3C04D;" d="M335.8,417.6l-72.8,1h-4.6h-4.6l-72.8-1c-12.8-0.2-24-11.8-26.6-18.7c3.9,21.8,17,30.3,42.6,30.3
		h61.5H320c25.6,0,38.7-8.5,42.6-30.3C359.8,405.8,348.6,417.4,335.8,417.6z"/>
</g>
<path style="fill:#817C85;" d="M379.1,141.1L357,130c-7.8-4-15.3-5.7-24.1-5.7h-38.3v-11.7c0-4.3-1.6-8.3-4.1-11.2
	c-2.7-3.1-6.5-5.1-10.7-5.1h-43c-4.2,0-8,1.9-10.7,5.1c-2.5,2.9-4.1,6.9-4.1,11.2v11.7h-38.3c-8.8,0-16.3,1.8-24.1,5.7l-22,11.1
	c-7,3.5-14.2,6.4-14.2,14.2v16.4h269.7v-16.4C393.2,147.5,386,144.6,379.1,141.1z M285.3,124.2h-53.9v-11.7c0-2.1,0.7-4,1.9-5.3
	c1-1.1,2.2-1.8,3.6-1.8h43c1.4,0,2.6,0.7,3.6,1.8c1.2,1.3,1.9,3.2,1.9,5.3v11.7H285.3z"/>
<g>
</g>
<g>
</g>
<g>
</g>
<g>
</g>
<g>
</g>
<g>
</g>
<g>
</g>
<g>
</g>
<g>
</g>
<g>
</g>
<g>
</g>
<g>
</g>
<g>
</g>
<g>
</g>
<g>
</g>
</svg>
