<?xml version="1.0" encoding="UTF-8" standalone="no"?>
<!DOCTYPE svg PUBLIC "-//W3C//DTD SVG 1.1//EN" "http://www.w3.org/Graphics/SVG/1.1/DTD/svg11.dtd">
<svg version="1.1" xmlns="http://www.w3.org/2000/svg" xmlns:xlink="http://www.w3.org/1999/xlink" preserveAspectRatio="xMidYMid meet" viewBox="0 0 250 101" width="250" height="101"><defs><path d="M249.33 28.97C244.19 28.39 239.58 28.01 234.97 27.34C220.61 25.27 207.79 18.93 194.82 13.03C182.96 7.6 170.67 3.62 157.65 2.13C151.99 1.45 146.37 0.88 140.7 0.25C139 0.25 125.4 0.25 123.7 0.25C119.62 0.64 115.59 1.02 111.51 1.41C98.73 2.61 86.53 6.02 74.72 11.01C62.33 16.25 50.47 23.11 37.07 25.75C29.29 27.29 21.32 28.01 13.4 28.78C8.98 29.21 4.47 28.97 0 29.02C0 32.99 0 52.82 0 88.52C150 88.52 233.33 88.52 250 88.52C250 68.68 250 48.85 250 29.02C249.76 29.07 249.52 29.02 249.33 28.97C249.33 28.97 249.33 28.97 249.33 28.97Z" id="a1m25IQ3Ip"></path></defs><g><g><g><use xlink:href="#a1m25IQ3Ip" opacity="1" fill="#efefef" fill-opacity="1"></use><g><use xlink:href="#a1m25IQ3Ip" opacity="1" fill-opacity="0" stroke="#000000" stroke-width="1" stroke-opacity="0"></use></g></g></g></g></svg>